{
.appVersion = "1141";
DisplayStrings = (
"",
J,
I,
H,
G,
"Ð",
D,
"Ç",
C,
B
);
copyright = "Copyright (c) 2010 by Julia Petretta (www.juliapetretta.com), with Reserved Font Name \"Kreon\".";
customParameters = (
{
name = macintoshFONDFamilyID;
value = 128;
},
{
name = macintoshFONDName;
value = Kreon;
},
{
name = note;
value = "";
},
{
name = openTypeHeadFlags;
value = (
);
},
{
name = description;
value = "";
},
{
name = openTypeNameLicense;
value = "This Font Software is licensed under the SIL Open Font License,
Version 1.1. This license is available with a FAQ at:
http://scripts.sil.org/OFL";
},
{
name = openTypeNameLicenseURL;
value = "http://scripts.sil.org/OFL";
},
{
name = openTypeNameSampleText;
value = "";
},
{
name = openTypeNameUniqueID;
value = "JuliaPetretta: Kreon light: 2010";
},
{
name = openTypeNameVersion;
value = "1.001";
},
{
name = openTypeOS2FamilyClass;
value = (
0,
0
);
},
{
name = openTypeOS2Panose;
value = (
2,
0,
5,
6,
0,
0,
0,
2,
0,
3
);
},
{
name = openTypeOS2Selection;
value = (
);
},
{
name = openTypeOS2StrikeoutPosition;
value = 250;
},
{
name = openTypeOS2StrikeoutSize;
value = 50;
},
{
name = openTypeOS2SubscriptXOffset;
value = 0;
},
{
name = openTypeOS2SubscriptXSize;
value = 700;
},
{
name = openTypeOS2SubscriptYOffset;
value = 140;
},
{
name = openTypeOS2SubscriptYSize;
value = 650;
},
{
name = openTypeOS2SuperscriptXOffset;
value = 0;
},
{
name = openTypeOS2SuperscriptXSize;
value = 700;
},
{
name = openTypeOS2SuperscriptYOffset;
value = 477;
},
{
name = openTypeOS2SuperscriptYSize;
value = 650;
},
{
name = fsType;
value = (
);
},
{
name = unicodeRanges;
value = (
0,
1,
2,
7,
31,
33
);
},
{
name = vendorID;
value = pyrs;
},
{
name = blueFuzz;
value = 1;
},
{
name = blueScale;
value = 0.03963;
},
{
name = blueShift;
value = 7;
},
{
name = postscriptForceBold;
value = 0;
},
{
name = postscriptIsFixedPitch;
value = 0;
},
{
name = postscriptUniqueID;
value = -1;
},
{
name = trademark;

glyphs = (
{
glyphname = A;
lastChange = "2018-07-24 15:57:05 +0000";
layers = (
{
anchors = (
{
name = bottom;
position = "{283, 0}";
},
{
name = top;
position = "{279, 691}";
}
);
layerId = "1178ECA0-A987-4969-BD6E-681EE9C1B9C8";
paths = (
{
closed = 1;
nodes = (
"364 44 LINE",
"445 65 LINE",
"392 241 LINE",
"169 241 LINE",
"117 62 LINE",
"205 45 LINE",
"205 0 LINE",
"11 0 LINE",
"-2 47 LINE",
"52 65 LINE",
"243 691 LINE {name = mh01;}",
"327 691 LINE {name = ah01;}",
"519 65 LINE",
"566 47 LINE",
"555 0 LINE",
"364 0 LINE {name = hr00;}"
);
},
{
closed = 1;
nodes = (
"188 304 LINE",
"373 304 LINE",
"279 616 LINE {name = mh02;}"
);
}
);
width = 570;
},
{
anchors = (
{
name = bottom;
position = "{293, -2}";
},
{
name = top;
position = "{304, 691}";
}
);
layerId = "753CA70B-25C4-47AF-A15F-390B5E4CCE16";
paths = (
{
closed = 1;
nodes = (
"349 75 LINE",
"429 96 LINE",
"393 218 LINE",
"197 218 LINE",
"159 92 LINE",
"247 76 LINE",
"247 0 LINE",
"8 0 LINE",
"-5 78 LINE",
"50 96 LINE {name = mv01;}",
"248 690 LINE {name = ah01;}",
"372 690 LINE {name = mv02;}",
"573 96 LINE",
"619 78 LINE",
"609 0 LINE",
"349 0 LINE {name = hr00;}"
);
},
{
closed = 1;
nodes = (
"349 323 LINE",
"296 548 LINE",
"228 323 LINE"
);
}
);
width = 621;
}
);
leftKerningGroup = A;
rightKerningGroup = A;
unicode = 0041;
userData = {
com.typemytype.robofont.mark = (
0.713,
0.6,
1,
1
);
};
},
{
glyphname = Aacute;
lastChange = "2018-07-24 15:13:01 +0000";
layers = (
{
components = (
{
name = A;
}
);
layerId = "1178ECA0-A987-4969-BD6E-681EE9C1B9C8";
paths = (
{
closed = 1;
nodes = (
"334 897 LINE {name = ah02;}",
"364 890 LINE",
"401 818 LINE",
"208 717 LINE",
"176 764 LINE {name = hr00;}"
);
}
);
width = 570;
},
{
components = (
{
name = A;
}
);
layerId = "753CA70B-25C4-47AF-A15F-390B5E4CCE16";
paths = (
{
closed = 1;
nodes = (
"316 959 LINE {name = mv02;}",
"353 974 LINE",
"431 865 LINE",
"234 741 LINE {name = mv03;}",
"187 795 LINE"
);
}
);
width = 621;
}
);
leftKerningGroup = A;
rightKerningGroup = A;
unicode = 00C1;
userData = {
com.typemytype.robofont.mark = (
0.713,
0.6,
1,
1
);
};
},
{
glyphname = Adieresis;
lastChange = "2018-07-24 15:11:20 +0000";
layers = (
{
layerId = "1178ECA0-A987-4969-BD6E-681EE9C1B9C8";
paths = (
{
closed = 1;
nodes = (
"364 44 LINE",
"445 65 LINE",
"392 241 LINE",
"169 241 LINE",
"117 62 LINE",
"205 45 LINE",
"205 0 LINE",
"11 0 LINE",
"-2 47 LINE",
"52 65 LINE",
"243 691 LINE {name = mh01;}",
"327 691 LINE {name = mh02;}",
"519 65 LINE",
"566 47 LINE",
"555 0 LINE",
"364 0 LINE {name = hr00;}"
);
},
{
closed = 1;
nodes = (
"188 304 LINE",
"373 304 LINE",
"279 616 LINE {name = mh03;}"
);
},
{
closed = 1;
nodes = (
"127 804.131 OFFCURVE",
"151.869 829 OFFCURVE",
"184 829 CURVE SMOOTH {name = mh04;}",
"215.429 829 OFFCURVE",
"242 803.652 OFFCURVE",
"242 772 CURVE SMOOTH",
"242 740.478 OFFCURVE",
"215.577 714 OFFCURVE",
"184 714 CURVE SMOOTH",
"151.681 714 OFFCURVE",
"127 740.024 OFFCURVE",
"127 772 CURVE SMOOTH"
);
},
{
closed = 1;
nodes = (
"303 805.229 OFFCURVE",
"330.68 829 OFFCURVE",
"363 829 CURVE SMOOTH {name = mh05;}",
"394.755 829 OFFCURVE",
"418 803.139 OFFCURVE",
"418 772 CURVE SMOOTH",
"418 741.002 OFFCURVE",
"394.899 714 OFFCURVE",
"363 714 CURVE SMOOTH",
"330.494 714 OFFCURVE",
"303 738.885 OFFCURVE",
"303 772 CURVE SMOOTH"
);
}
);
width = 570;
},
{
layerId = "753CA70B-25C4-47AF-A15F-390B5E4CCE16";
paths = (
{
closed = 1;
nodes = (
"349 75 LINE",
"429 96 LINE",
"393 218 LINE",
"197 218 LINE",
"159 92 LINE",
"247 76 LINE",
"247 0 LINE",
"8 0 LINE",
"-5 78 LINE",
"50 96 LINE",
"248 690 LINE {name = ah01;}",
"372 690 LINE {name = mh01;}",
"573 96 LINE",
"619 78 LINE",
"609 0 LINE",
"349 0 LINE {name = hr00;}"
);
},
{
closed = 1;
nodes = (
"349 323 LINE",
"296 548 LINE {name = mh03;}",
"228 323 LINE {name = mh02;}"
);
},
{
closed = 1;
nodes = (
"155 841.995 OFFCURVE",
"184.629 873 OFFCURVE",
"223 873 CURVE SMOOTH",
"261.83 873 OFFCURVE",
"292 842.83 OFFCURVE",
"292 804 CURVE SMOOTH {name = mh04;}",
"292 765.041 OFFCURVE",
"261.66 736 OFFCURVE",
"223 736 CURVE SMOOTH {name = mv01;}",
"184.729 736 OFFCURVE",
"155 765.808 OFFCURVE",
"155 804 CURVE SMOOTH"
);
},
{
closed = 1;
nodes = (
"333 842.66 OFFCURVE",
"362.041 873 OFFCURVE",
"401 873 CURVE SMOOTH",
"440.124 873 OFFCURVE",
"468 842.443 OFFCURVE",
"468 804 CURVE SMOOTH",
"468 765.381 OFFCURVE",
"439.923 736 OFFCURVE",
"401 736 CURVE SMOOTH {name = mv02;}",
"362.209 736 OFFCURVE",
"333 765.209 OFFCURVE",
"333 804 CURVE SMOOTH"
);
}
);
width = 621;
}
);
leftKerningGroup = A;
rightKerningGroup = A;
unicode = 00C4;
userData = {
com.typemytype.robofont.mark = (
0.713,
0.6,
1,
1
);
};
},
{
glyphname = Aring;
lastChange = "2018-07-24 15:11:20 +0000";
layers = (
{
layerId = "1178ECA0-A987-4969-BD6E-681EE9C1B9C8";
paths = (
{
closed = 1;
nodes = (
"363 44 LINE",
"444 65 LINE",
"391 241 LINE",
"168 241 LINE",
"116 62 LINE",
"204 45 LINE",
"204 0 LINE",
"10 0 LINE",
"-3 47 LINE",
"51 65 LINE",
"235 670 LINE",
"206.878 686.871 OFFCURVE",
"191 718.63 OFFCURVE",
"191 751 CURVE SMOOTH",
"191 803.59 OFFCURVE",
"233.77 845 OFFCURVE",
"286 845 CURVE SMOOTH {name = mh01;}",
"337.718 845 OFFCURVE",
"380 802.718 OFFCURVE",
"380 751 CURVE SMOOTH",
"380 716.486 OFFCURVE",
"362.259 686.11 OFFCURVE",
"333 668 CURVE",
"518 65 LINE",
"565 47 LINE",
"554 0 LINE",
"363 0 LINE {name = hr00;}"
);
},
{
closed = 1;
nodes = (
"187 304 LINE",
"372 304 LINE",
"278 616 LINE {name = mh02;}"
);
},
{
closed = 1;
nodes = (
"248 728.335 OFFCURVE",
"263.335 713 OFFCURVE",
"286 713 CURVE SMOOTH",
"308.804 713 OFFCURVE",
"323 728.521 OFFCURVE",
"323 751 CURVE SMOOTH",
"323 773.479 OFFCURVE",
"308.804 789 OFFCURVE",
"286 789 CURVE SMOOTH {name = mh03;}",
"263.335 789 OFFCURVE",
"248 773.665 OFFCURVE",
"248 751 CURVE SMOOTH"
);
}
);
width = 567;
},
{
layerId = "753CA70B-25C4-47AF-A15F-390B5E4CCE16";
paths = (
{
closed = 1;
nodes = (
"347 75 LINE",
"427 96 LINE",
"391 218 LINE",
"195 218 LINE",
"157 92 LINE",
"245 76 LINE",
"245 0 LINE",
"6 0 LINE",
"-7 78 LINE",
"48 96 LINE",
"234 656 LINE",
"208.381 675.925 OFFCURVE",
"195 707.96 OFFCURVE",
"195 740 CURVE SMOOTH",
"195 800.074 OFFCURVE",
"240.997 846 OFFCURVE",
"301 846 CURVE SMOOTH {name = mh01;}",
"360.164 846 OFFCURVE",
"407 799.253 OFFCURVE",
"407 740 CURVE SMOOTH",
"407 712.668 OFFCURVE",
"397.521 685.519 OFFCURVE",
"378 666 CURVE",
"571 96 LINE",
"617 78 LINE",
"607 0 LINE",
"347 0 LINE {name = hr00;}"
);
},
{
closed = 1;
nodes = (
"347 323 LINE",
"294 549 LINE",
"226 323 LINE"
);
},
{
closed = 1;
nodes = (
"262 715.372 OFFCURVE",
"276.484 701 OFFCURVE",
"301 701 CURVE SMOOTH",
"325.089 701 OFFCURVE",
"339 716.247 OFFCURVE",
"339 740 CURVE SMOOTH",
"339 763.753 OFFCURVE",
"325.089 779 OFFCURVE",
"301 779 CURVE SMOOTH",
"276.484 779 OFFCURVE",
"262 764.628 OFFCURVE",
"262 740 CURVE SMOOTH"
);
}
);
width = 617;
}
);
leftKerningGroup = A;
rightKerningGroup = A;
unicode = 00C5;
userData = {
com.typemytype.robofont.mark = (
0.713,
0.6,
1,
1
);
};
},
{
glyphname = AE;
lastChange = "2018-07-24 15:11:20 +0000";
layers = (
{
layerId = "1178ECA0-A987-4969-BD6E-681EE9C1B9C8";
paths = (
{
closed = 1;
nodes = (
"-12 47 LINE",
"41 65 LINE",
"278 691 LINE {name = mh01;}",
"650 691 LINE",
"670 520 LINE",
"622 520 LINE",
"588 623 LINE",
"399 623 LINE",
"399 364 LINE",
"541 364 LINE",
"541 301 LINE",
"399 301 LINE",
"399 68 LINE",
"598 68 LINE",
"633 171 LINE",
"680 171 LINE",
"661 0 LINE",
"291 0 LINE",
"283 56 LINE",
"331 68 LINE",
"331 298 LINE",
"196 298 LINE",
"107 62 LINE",
"193 45 LINE",
"193 0 LINE",
"1 0 LINE {name = hr00;}"
);
},
{
closed = 1;
nodes = (
"320 628 LINE {name = mh03;}",
"219 361 LINE",
"331 361 LINE",
"331 627 LINE {name = mh02;}"
);
}
);
width = 720;
},
{
layerId = "753CA70B-25C4-47AF-A15F-390B5E4CCE16";
paths = (
{
closed = 1;
nodes = (
"-12 78 LINE",
"41 96 LINE",
"266 691 LINE {name = ah01;}",
"745 691 LINE",
"765 487 LINE",
"686 487 LINE {name = hr03;}",
"646 586 LINE",
"484 586 LINE",
"484 408 LINE",
"636 408 LINE",
"636 303 LINE",
"484 303 LINE",
"484 105 LINE",
"653 105 LINE {name = hr02;}",
"690 204 LINE",
"768 204 LINE {name = hr01;}",
"747 0 LINE",
"313 0 LINE",
"298 88 LINE",
"353 101 LINE",
"353 260 LINE",
"215 260 LINE",
"152 92 LINE",
"240 76 LINE",
"240 0 LINE",
"1 0 LINE {name = hr00;}"
);
},
{
closed = 1;
nodes = (
"255 365 LINE",
"353 365 LINE",
"353 595 LINE",
"342 596 LINE"
);
}
);
width = 803;
}
);
rightKerningGroup = E;
unicode = 00C6;
userData = {
com.typemytype.robofont.mark = (
0.713,
0.6,
1,
1
);
};
},
{
glyphname = B;
lastChange = "2018-07-24 21:13:19 +0000";
layers = (
{
layerId = "1178ECA0-A987-4969-BD6E-681EE9C1B9C8";
paths = (
{
closed = 1;
nodes = (
"289 0 LINE SMOOTH",
"410.727 0 OFFCURVE",
"510 52.875 OFFCURVE",
"510 187 CURVE SMOOTH",
"510 274.087 OFFCURVE",
"468.227 319.693 OFFCURVE",
"392 354 CURVE",
"453.712 386.929 OFFCURVE",
"480 441.647 OFFCURVE",
"480 510 CURVE SMOOTH",
"480 634.806 OFFCURVE",
"375.254 691 OFFCURVE",
"263 691 CURVE SMOOTH",
"55 691 LINE {name = mh02;}",
"55 632 LINE",
"112 627 LINE",
"112 68 LINE",
"55 56 LINE",
"62 0 LINE"
);
},
{
closed = 1;
nodes = (
"181 314 LINE {name = hr00;}",
"293 314 LINE SMOOTH",
"363.034 314 OFFCURVE",
"439 273.564 OFFCURVE",
"439 195 CURVE SMOOTH",
"439 112.994 OFFCURVE",
"389.588 68 OFFCURVE",
"309 68 CURVE SMOOTH",
"181 68 LINE"
);
},
{
closed = 1;
nodes = (
"181 623 LINE {name = hr01;}",
"261 623 LINE SMOOTH {name = mh01;}",
"338.046 623 OFFCURVE",
"409 593.027 OFFCURVE",
"409 505 CURVE SMOOTH",
"409 425.187 OFFCURVE",
"353.822 377 OFFCURVE",
"276 377 CURVE SMOOTH",
"181 377 LINE"
);
}
);
width = 557;
},
{
layerId = "753CA70B-25C4-47AF-A15F-390B5E4CCE16";
paths = (
{
closed = 1;
nodes = (
"342 0 LINE SMOOTH",
"463.598 0 OFFCURVE",
"564 52.704 OFFCURVE",
"564 187 CURVE SMOOTH {name = ah02;}",
"564 280.491 OFFCURVE",
"510.752 329.967 OFFCURVE",
"424 353 CURVE",
"492.599 370.218 OFFCURVE",
"536 441.187 OFFCURVE",
"536 509 CURVE SMOOTH",
"536 633.955 OFFCURVE",
"422.69 690 OFFCURVE",
"312 690 CURVE SMOOTH",
"35 690 LINE {name = ah01;}",
"35 600 LINE",
"105 593 LINE",
"105 100 LINE",
"41 85 LINE",
"55 0 LINE {name = hr00;}"
);
},
{
closed = 1;
nodes = (
"236 295 LINE {name = hr01;}",
"294 295 LINE SMOOTH",
"359.71 295 OFFCURVE",
"427 277.915 OFFCURVE",
"427 199 CURVE SMOOTH",
"427 126.798 OFFCURVE",
"373.375 105 OFFCURVE",
"310 105 CURVE SMOOTH",
"236 105 LINE"
);
},
{
closed = 1;
nodes = (
"236 585 LINE",
"281 585 LINE SMOOTH",
"339.85 585 OFFCURVE",
"399 561.965 OFFCURVE",
"399 494 CURVE SMOOTH",
"399 429.681 OFFCURVE",
"355.298 400 OFFCURVE",
"295 400 CURVE SMOOTH",
"236 400 LINE"
);
}
);
width = 596;
}
);
leftKerningGroup = H;
unicode = 0042;
userData = {
com.typemytype.robofont.mark = (
0.713,
0.6,
1,
1
);
};
},
{
glyphname = C;
lastChange = "2018-07-24 21:13:01 +0000";
layers = (
{
layerId = "1178ECA0-A987-4969-BD6E-681EE9C1B9C8";
paths = (
{
closed = 1;
nodes = (
"111 192.619 OFFCURVE",
"209.234 64 OFFCURVE",
"372 64 CURVE SMOOTH",
"414.892 64 OFFCURVE",
"463.641 75.744 OFFCURVE",
"500 99 CURVE",
"525 38 LINE",
"484.643 10.088 OFFCURVE",
"421.614 -4 OFFCURVE",
"373 -4 CURVE SMOOTH",
"168.328 -4 OFFCURVE",
"40 147.134 OFFCURVE",
"40 346 CURVE SMOOTH",
"40 537.859 OFFCURVE",
"180.199 691 OFFCURVE",
"375 691 CURVE SMOOTH {name = mh01;}",
"414.442 691 OFFCURVE",
"453.417 685.984 OFFCURVE",
"492 678 CURVE",
"510 520 LINE",
"453 520 LINE",
"429 618 LINE",
"411.039 620.264 OFFCURVE",
"395.384 623 OFFCURVE",
"377 623 CURVE SMOOTH {name = mh02;}",
"223.135 623 OFFCURVE",
"111 499.764 OFFCURVE",
"111 348 CURVE SMOOTH {name = hr00;}"
);
}
);
width = 556;
},
{
layerId = "753CA70B-25C4-47AF-A15F-390B5E4CCE16";
paths = (
{
closed = 1;
nodes = (
"162 223.293 OFFCURVE",
"232.896 101 OFFCURVE",
"370 101 CURVE SMOOTH",
"424.73 101 OFFCURVE",
"482.899 120.897 OFFCURVE",
"522 160 CURVE",
"564 71 LINE",
"518.329 18.848 OFFCURVE",
"431.989 -4 OFFCURVE",
"365 -4 CURVE SMOOTH",
"161.597 -4 OFFCURVE",
"28 131.3 OFFCURVE",
"28 334 CURVE SMOOTH {name = av01;}",
"28 526.881 OFFCURVE",
"155.617 691 OFFCURVE",
"358 691 CURVE SMOOTH {name = ah02;}",
"416.296 691 OFFCURVE",
"471.009 683.419 OFFCURVE",
"527 667 CURVE",
"547 460 LINE",
"466 460 LINE",
"407 584 LINE",
"394.074 585.838 OFFCURVE",
"381.033 586 OFFCURVE",
"368 586 CURVE SMOOTH {name = ah01;}",
"238.086 586 OFFCURVE",
"162 468.058 OFFCURVE",
"162 348 CURVE SMOOTH {name = hr00;}"
);
}
);
width = 587;
}
);
leftKerningGroup = C;
rightKerningGroup = C;
unicode = 0043;
userData = {
com.typemytype.robofont.mark = (
0.713,
0.6,
1,
1
);
};
},
{
glyphname = Ccedilla;
lastChange = "2018-07-24 21:12:33 +0000";
layers = (
{
layerId = "1178ECA0-A987-4969-BD6E-681EE9C1B9C8";
paths = (
{
closed = 1;
nodes = (
"385.69 -236 OFFCURVE",
"443 -209.181 OFFCURVE",
"443 -136 CURVE SMOOTH",
"443 -80.077 OFFCURVE",
"403.753 -47.606 OFFCURVE",
"351 -41 CURVE",
"363 -3 LINE",
"414.075 -7.256 OFFCURVE",
"484.614 8.675 OFFCURVE",
"527 38 CURVE",
"502 99 LINE",
"465.649 75.744 OFFCURVE",
"416.884 64 OFFCURVE",
"374 64 CURVE SMOOTH",
"210.072 64 OFFCURVE",
"113 191.671 OFFCURVE",
"113 348 CURVE SMOOTH",
"113 501.798 OFFCURVE",
"222.504 623 OFFCURVE",
"379 623 CURVE SMOOTH",
"397.402 623 OFFCURVE",
"412.998 620.269 OFFCURVE",
"431 618 CURVE",
"455 520 LINE",
"512 520 LINE",
"494 678 LINE",
"455.417 685.983 OFFCURVE",
"416.442 691 OFFCURVE",
"377 691 CURVE SMOOTH",
"182.139 691 OFFCURVE",
"42 537.785 OFFCURVE",
"42 346 CURVE SMOOTH",
"42 179.038 OFFCURVE",
"134.755 32.872 OFFCURVE",
"306 2 CURVE",
"278 -74 LINE",
"293 -90 LINE {name = hr00;}",
"323.232 -90 OFFCURVE",
"378 -94.439 OFFCURVE",
"378 -137 CURVE SMOOTH",
"378 -167.462 OFFCURVE",
"349.901 -181.038 OFFCURVE",
"323 -181 CURVE",
"258 -141 LINE",
"221 -212 LINE",
"258.85 -223.776 OFFCURVE",
"279.014 -236 OFFCURVE",
"321 -236 CURVE SMOOTH"
);
}
);
width = 559;
},
{
layerId = "753CA70B-25C4-47AF-A15F-390B5E4CCE16";
paths = (
{
closed = 1;
nodes = (
"407.873 -286 OFFCURVE",
"495 -245.089 OFFCURVE",
"495 -156 CURVE SMOOTH",
"495 -91.295 OFFCURVE",
"451.717 -53.14 OFFCURVE",
"391 -41 CURVE {name = mh05;}",
"403 -2 LINE {name = mh04;}",
"457.981 4.467 OFFCURVE",
"529.743 26.878 OFFCURVE",
"566 71 CURVE",
"524 160 LINE",
"484.888 120.886 OFFCURVE",
"426.731 101 OFFCURVE",
"372 101 CURVE SMOOTH {name = mh03;}",
"232.631 101 OFFCURVE",
"166 222.332 OFFCURVE",
"166 348 CURVE SMOOTH",
"166 468.961 OFFCURVE",
"237.963 586 OFFCURVE",
"370 586 CURVE SMOOTH",
"383.033 586 OFFCURVE",
"396.074 585.838 OFFCURVE",
"409 584 CURVE",
"468 460 LINE",
"549 460 LINE",
"529 667 LINE",
"473.033 683.425 OFFCURVE",
"418.278 691 OFFCURVE",
"360 691 CURVE SMOOTH {name = mh02;}",
"157.845 691 OFFCURVE",
"30 527.047 OFFCURVE",
"30 334 CURVE SMOOTH {name = mh01;}",
"30 162.372 OFFCURVE",
"127.032 28.464 OFFCURVE",
"301 1 CURVE",
"272 -82 LINE {name = hr00;}",
"296 -101 LINE",
"335.299 -104.826 OFFCURVE",
"387 -103.912 OFFCURVE",
"387 -159 CURVE SMOOTH",
"387 -191.763 OFFCURVE",
"353.252 -209.739 OFFCURVE",
"324 -210 CURVE",
"252 -162 LINE",
"202 -259 LINE",
"246.123 -274.882 OFFCURVE",
"282.527 -286 OFFCURVE",
"330 -286 CURVE SMOOTH {name = hr01;}"
);
}
);
width = 589;
}
);
leftKerningGroup = C;
rightKerningGroup = C;
unicode = 00C7;
userData = {
com.typemytype.robofont.mark = (
0.713,
0.6,
1,
1
);
};
},
{
glyphname = D;
lastChange = "2018-07-24 21:11:45 +0000";
layers = (
{
layerId = "1178ECA0-A987-4969-BD6E-681EE9C1B9C8";
paths = (
{
closed = 1;
nodes = (
"112 69 LINE",
"112 627 LINE",
"55 632 LINE",
"55 691 LINE",
"198 691 LINE SMOOTH {name = mh01;}",
"413.93 691 OFFCURVE",
"561 572.621 OFFCURVE",
"561 349 CURVE SMOOTH",
"561 123.458 OFFCURVE",
"436.699 0 OFFCURVE",
"211 0 CURVE SMOOTH",
"62 0 LINE",
"55 56 LINE {name = hr00;}"
);
},
{
closed = 1;
nodes = (
"490 531 OFFCURVE",
"377 623 OFFCURVE",
"181 623 CURVE",
"181 68 LINE",
"225 68 LINE SMOOTH",
"403.771 68 OFFCURVE",
"490 174.048 OFFCURVE",
"490 348 CURVE SMOOTH"
);
}
);
width = 605;
},
{
layerId = "753CA70B-25C4-47AF-A15F-390B5E4CCE16";
paths = (
{
closed = 1;
nodes = (
"104 101 LINE {name = ah05;}",
"104 594 LINE {name = mh01;}",
"41 602 LINE {name = fh01;}",
"41 690 LINE {name = ah08;}",
"219 690 LINE SMOOTH {name = ah01;}",
"441.506 690 OFFCURVE",
"606 594.282 OFFCURVE",
"606 353 CURVE SMOOTH {name = ah02;}",
"606 127.147 OFFCURVE",
"491.12 0 OFFCURVE",
"262 0 CURVE SMOOTH",
"53 0 LINE",
"39 88 LINE {name = hr00;}"
);
},
{
closed = 1;
nodes = (
"469 505.165 OFFCURVE",
"390.515 585.036 OFFCURVE",
"235 585 CURVE {name = ah07;}",
"235 105 LINE {name = ah06;}",
"254 104 LINE",
"409.773 104 OFFCURVE",
"469 206.19 OFFCURVE",
"469 350 CURVE SMOOTH {name = ah03;}"
);
}
);
width = 637;
}
);
leftKerningGroup = E;
rightKerningGroup = D;
unicode = 0044;
userData = {
com.typemytype.robofont.mark = (
0.713,
0.6,
1,
1
);
};
},
{
glyphname = Eth;
lastChange = "2018-07-24 21:11:28 +0000";
layers = (
{
layerId = "1178ECA0-A987-4969-BD6E-681EE9C1B9C8";
paths = (
{
closed = 1;
nodes = (
"212 0 LINE SMOOTH",
"437.699 0 OFFCURVE",
"562 123.458 OFFCURVE",
"562 349 CURVE SMOOTH",
"562 572.621 OFFCURVE",
"414.93 691 OFFCURVE",
"199 691 CURVE SMOOTH",
"56 691 LINE",
"56 632 LINE",
"113 627 LINE",
"113 377 LINE",
"30 377 LINE",
"23 369 LINE",
"23 314 LINE",
"113 314 LINE",
"113 69 LINE",
"56 56 LINE {name = hr00;}",
"63 0 LINE"
);
},
{
closed = 1;
nodes = (
"182 314 LINE",
"357 314 LINE",
"357 370 LINE",
"350 377 LINE",
"182 377 LINE",
"182 623 LINE",
"378 623 OFFCURVE",
"491 531 OFFCURVE",
"491 348 CURVE SMOOTH",
"491 174.053 OFFCURVE",
"404.785 68 OFFCURVE",
"226 68 CURVE",
"182 68 LINE"
);
}
);
width = 606;
},
{
layerId = "753CA70B-25C4-47AF-A15F-390B5E4CCE16";
paths = (
{
closed = 1;
nodes = (
"265 0 LINE SMOOTH",
"492.513 0 OFFCURVE",
"608 130.438 OFFCURVE",
"608 354 CURVE SMOOTH",
"608 594.68 OFFCURVE",
"444.221 691 OFFCURVE",
"222 691 CURVE SMOOTH",
"43 691 LINE {name = mh01;}",
"43 603 LINE",
"106 595 LINE",
"106 403 LINE",
"28 403 LINE",
"14 391 LINE",
"14 309 LINE",
"106 309 LINE",
"106 101 LINE",
"41 88 LINE {name = hr00;}",
"48 0 LINE"
);
},
{
closed = 1;
nodes = (
"237 309 LINE",
"369 309 LINE",
"369 396 LINE",
"362 403 LINE",
"237 403 LINE {name = mh05;}",
"237 586 LINE",
"393.247 586.028 OFFCURVE",
"472 506.768 OFFCURVE",
"472 351 CURVE SMOOTH {name = mh03;}",
"472 207.063 OFFCURVE",
"411.741 104 OFFCURVE",
"256 104 CURVE",
"237 105 LINE"
);
}
);
width = 639;
}
);
leftKerningGroup = E;
rightKerningGroup = D;
unicode = 00D0;
userData = {
com.typemytype.robofont.mark = (
0.713,
0.6,
1,
1
);
};
},
{
glyphname = E;
lastChange = "2018-07-24 15:11:20 +0000";
layers = (
{
layerId = "1178ECA0-A987-4969-BD6E-681EE9C1B9C8";
paths = (
{
closed = 1;
nodes = (
"55 691 LINE {name = mh01;}",
"453 691 LINE",
"473 520 LINE",
"425 520 LINE",
"391 623 LINE",
"181 623 LINE {name = mh02;}",
"181 377 LINE",
"343 377 LINE",
"343 314 LINE",
"181 314 LINE {name = hr01;}",
"181 68 LINE",
"401 68 LINE {name = hr02;}",
"436 171 LINE",
"483 171 LINE",
"464 0 LINE",
"62 0 LINE",
"55 56 LINE",
"112 68 LINE",
"112 627 LINE",
"55 632 LINE {name = hr00;}"
);
}
);
width = 523;
},
{
layerId = "753CA70B-25C4-47AF-A15F-390B5E4CCE16";
paths = (
{
closed = 1;
nodes = (
"516 486 LINE",
"438 486 LINE {name = hr03;}",
"397 585 LINE {name = mh02;}",
"235 585 LINE {name = mh03;}",
"235 407 LINE {name = mh04;}",
"387 407 LINE {name = mh05;}",
"387 302 LINE {name = mv01;}",
"235 302 LINE {name = mh06;}",
"235 105 LINE {name = mv02;}",
"404 105 LINE {name = hr02;}",
"441 204 LINE {name = mh07;}",
"520 204 LINE {name = hr01;}",
"499 0 LINE",
"53 0 LINE",
"39 88 LINE",
"104 101 LINE",
"104 594 LINE {name = mh08;}",
"41 601 LINE",
"41 690 LINE {name = mh09;}",
"497 690 LINE {name = mh01;}"
);
}
);
width = 555;
}
);
leftKerningGroup = E;
rightKerningGroup = E;
unicode = 0045;
userData = {
com.typemytype.robofont.mark = (
0.713,
0.6,
1,
1
);
};
},
{
glyphname = F;
lastChange = "2018-07-24 15:11:20 +0000";
layers = (
{
layerId = "1178ECA0-A987-4969-BD6E-681EE9C1B9C8";
paths = (
{
closed = 1;
nodes = (
"61 0 LINE",
"55 56 LINE",
"112 68 LINE {name = hr01;}",
"112 627 LINE",
"55 632 LINE {name = hr02;}",
"55 691 LINE {name = mh01;}",
"453 691 LINE",
"474 520 LINE",
"426 520 LINE",
"391 624 LINE",
"181 624 LINE {name = mh02;}",
"181 377 LINE",
"343 377 LINE",
"343 314 LINE",
"181 314 LINE",
"181 72 LINE",
"333 51 LINE",
"328 0 LINE {name = hr00;}"
);
}
);
width = 492;
},
{
layerId = "753CA70B-25C4-47AF-A15F-390B5E4CCE16";
paths = (
{
closed = 1;
nodes = (
"53 0 LINE",
"39 88 LINE",
"104 101 LINE",
"104 594 LINE {name = mh01;}",
"41 601 LINE {name = mh02;}",
"41 690 LINE {name = mv01;}",
"497 690 LINE {name = mh03;}",
"516 485 LINE",
"440 485 LINE {name = hr01;}",
"397 585 LINE {name = mh04;}",
"235 585 LINE {name = mh05;}",
"235 407 LINE {name = mh06;}",
"387 407 LINE {name = av01;}",
"387 302 LINE {name = mv02;}",
"235 302 LINE",
"235 105 LINE",
"405 79 LINE {name = mv03;}",
"398 0 LINE {name = hr00;}"
);
}
);
width = 528;
}
);
leftKerningGroup = E;
unicode = 0046;
userData = {
com.typemytype.robofont.mark = (
0.713,
0.6,
1,
1
);
};
},
{
glyphname = G;
lastChange = "2018-07-24 15:11:20 +0000";
layers = (
{
layerId = "1178ECA0-A987-4969-BD6E-681EE9C1B9C8";
paths = (
{
closed = 1;
nodes = (
"544 17 LINE",
"492.879 1.803 OFFCURVE",
"439.217 -4 OFFCURVE",
"386 -4 CURVE SMOOTH",
"185.687 -4 OFFCURVE",
"40 139.064 OFFCURVE",
"40 340 CURVE SMOOTH",
"40 546.387 OFFCURVE",
"177.849 691 OFFCURVE",
"386 691 CURVE SMOOTH {name = mh01;}",
"432.868 691 OFFCURVE",
"479.568 684.356 OFFCURVE",
"525 673 CURVE",
"536 519 LINE",
"473 519 LINE",
"450 618 LINE",
"427.21 621.028 OFFCURVE",
"404.001 623 OFFCURVE",
"381 623 CURVE SMOOTH {name = mh02;}",
"214.357 623 OFFCURVE",
"111 506.243 OFFCURVE",
"111 343 CURVE SMOOTH",
"111 175.879 OFFCURVE",
"225.577 64 OFFCURVE",
"392 64 CURVE SMOOTH",
"419.477 64 OFFCURVE",
"448.109 65.041 OFFCURVE",
"475 71 CURVE",
"475 238 LINE",
"352 252 LINE",
"370 313 LINE",
"544 313 LINE {name = hr00;}"
);
}
);
width = 607;
},
{
layerId = "753CA70B-25C4-47AF-A15F-390B5E4CCE16";
paths = (
{
closed = 1;
nodes = (
"572 9 LINE",
"509.275 0.066 OFFCURVE",
"443.345 -4 OFFCURVE",
"380 -4 CURVE SMOOTH",
"169.551 -4 OFFCURVE",
"27 122.68 OFFCURVE",
"27 337 CURVE SMOOTH {name = av01;}",
"27 545.969 OFFCURVE",
"161.939 692 OFFCURVE",
"374 692 CURVE SMOOTH {name = ah01;}",
"433.566 692 OFFCURVE",
"489.53 681.43 OFFCURVE",
"547 667 CURVE",
"565 461 LINE",
"484 461 LINE",
"433 584 LINE",
"412.509 586.271 OFFCURVE",
"392.617 587 OFFCURVE",
"372 587 CURVE SMOOTH {name = ah06;}",
"235.486 587 OFFCURVE",
"164 459.916 OFFCURVE",
"164 337 CURVE SMOOTH",
"164 184.864 OFFCURVE",
"262.073 98 OFFCURVE",
"411 98 CURVE SMOOTH",
"420.982 98 OFFCURVE",
"431.166 98.064 OFFCURVE",
"441 100 CURVE",
"441 229 LINE",
"338 243 LINE",
"356 324 LINE",
"572 324 LINE {name = hr00;}"
);
}
);
width = 620;
}
);
leftKerningGroup = C;
unicode = 0047;
userData = {
com.typemytype.robofont.mark = (
0.713,
0.6,
1,
1
);
};
},
{
glyphname = H;
lastChange = "2018-07-24 21:10:10 +0000";
layers = (
{
layerId = "1178ECA0-A987-4969-BD6E-681EE9C1B9C8";
paths = (
{
closed = 1;
nodes = (
"238 0 LINE",
"238 60 LINE {name = hr01;}",
"180 64 LINE",
"180 324 LINE",
"476 324 LINE",
"476 64 LINE {name = hr00;}",
"421 56 LINE",
"425 0 LINE",
"602 0 LINE",
"602 60 LINE {name = hr07;}",
"544 64 LINE",
"544 627 LINE {name = hr06;}",
"599 635 LINE",
"594 691 LINE",
"418 691 LINE",
"418 631 LINE {name = hr05;}",
"476 627 LINE",
"476 387 LINE {name = hr04;}",
"180 387 LINE",
"180 627 LINE",
"235 635 LINE",
"231 691 LINE {name = mh01;}",
"54 691 LINE",
"54 631 LINE {name = hr03;}",
"112 627 LINE",
"112 64 LINE {name = hr02;}",
"57 56 LINE",
"62 0 LINE"
);
}
);
width = 656;
},
{
layerId = "753CA70B-25C4-47AF-A15F-390B5E4CCE16";
paths = (
{
closed = 1;
nodes = (
"461 102 LINE",
"461 302 LINE",
"236 302 LINE",
"236 99 LINE",
"299 87 LINE",
"300 0 LINE",
"55 0 LINE",
"40 89 LINE",
"105 102 LINE",
"105 592 LINE",
"42 599 LINE",
"42 690 LINE",
"286 690 LINE",
"301 597 LINE",
"236 585 LINE",
"236 407 LINE",
"461 407 LINE",
"461 592 LINE",
"405 599 LINE",
"405 690 LINE",
"652 690 LINE",
"667 597 LINE",
"592 585 LINE",
"592 99 LINE",
"665 87 LINE",
"664 0 LINE",
"418 0 LINE",
"403 89 LINE {name = hr00;}"
);
}
);
width = 702;
}
);
leftKerningGroup = H;
rightKerningGroup = H;
unicode = 0048;
userData = {
com.typemytype.robofont.mark = (
0.713,
0.6,
1,
1
);
};
},
{
glyphname = I;
lastChange = "2018-07-24 21:09:50 +0000";
layers = (
{
layerId = "1178ECA0-A987-4969-BD6E-681EE9C1B9C8";
paths = (
{
closed = 1;
nodes = (
"238 0 LINE",
"238 60 LINE {name = hr02;}",
"181 64 LINE",
"181 627 LINE",
"235 635 LINE",
"231 691 LINE {name = hr01;}",
"55 691 LINE",
"55 631 LINE",
"112 627 LINE",
"112 64 LINE {name = hr00;}",
"58 56 LINE",
"62 0 LINE {name = hr03;}"
);
}
);
width = 293;
},
{
layerId = "753CA70B-25C4-47AF-A15F-390B5E4CCE16";
paths = (
{
closed = 1;
nodes = (
"311 0 LINE",
"312 87 LINE",
"238 99 LINE",
"238 585 LINE",
"314 597 LINE",
"299 690 LINE",
"39 690 LINE",
"39 599 LINE",
"107 592 LINE",
"107 102 LINE",
"37 89 LINE {name = hr00;}",
"51 0 LINE"
);
}
);
width = 348;
}
);
leftKerningGroup = I;
rightKerningGroup = I;
unicode = 0049;
userData = {
com.typemytype.robofont.mark = (
0.713,
0.6,
1,
1
);
};
},
{
glyphname = J;
lastChange = "2018-07-24 21:09:29 +0000";
layers = (
{
layerId = "1178ECA0-A987-4969-BD6E-681EE9C1B9C8";
paths = (
{
closed = 1;
nodes = (
"225.877 -4 OFFCURVE",
"257 60.447 OFFCURVE",
"257 144 CURVE SMOOTH",
"257 627 LINE",
"315 631 LINE",
"315 691 LINE {name = mh01;}",
"122 691 LINE",
"116 635 LINE {name = hr00;}",
"189 627 LINE",
"189 123 LINE SMOOTH",
"189 89.216 OFFCURVE",
"175.9 62 OFFCURVE",
"138 62 CURVE SMOOTH",
"103.324 62 OFFCURVE",
"74.251 77.799 OFFCURVE",
"50 102 CURVE",
"11 44 LINE",
"44.356 14.815 OFFCURVE",
"88.41 -4 OFFCURVE",
"133 -4 CURVE SMOOTH"
);
}
);
width = 358;
},
{
layerId = "753CA70B-25C4-47AF-A15F-390B5E4CCE16";
paths = (
{
closed = 1;
nodes = (
"269.116 -4 OFFCURVE",
"304 78.229 OFFCURVE",
"304 175 CURVE SMOOTH {name = hr00;}",
"304 592 LINE {name = mh06;}",
"372 599 LINE",
"372 690 LINE {name = mh05;}",
"108 690 LINE {name = ah01;}",
"93 597 LINE {name = mh04;}",
"173 585 LINE",
"173 136 LINE SMOOTH {name = mh03;}",
"173 124.464 OFFCURVE",
"170.393 110 OFFCURVE",
"156 110 CURVE SMOOTH",
"132.805 110 OFFCURVE",
"90.512 145.317 OFFCURVE",
"72 160 CURVE {name = mv02;}",
"2 59 LINE",
"41.376 22.919 OFFCURVE",
"105.436 -4 OFFCURVE",
"159 -4 CURVE SMOOTH {name = hr00;}"
);
}
);
width = 397;
}
);
unicode = 004A;
userData = {
com.typemytype.robofont.mark = (
0.713,
0.6,
1,
1
);
};
},
{
glyphname = K;
lastChange = "2018-07-24 21:08:53 +0000";
layers = (
{
layerId = "1178ECA0-A987-4969-BD6E-681EE9C1B9C8";
paths = (
{
closed = 1;
nodes = (
"238 0 LINE",
"238 60 LINE {name = hr02;}",
"181 64 LINE",
"181 187 LINE",
"291 323 LINE",
"471 0 LINE",
"577 0 LINE",
"577 57 LINE",
"517 66 LINE",
"338 381 LINE",
"538 628 LINE",
"572 635 LINE",
"572 691 LINE",
"382 691 LINE",
"382 637 LINE",
"461 631 LINE",
"181 286 LINE",
"181 627 LINE",
"235 635 LINE",
"231 691 LINE {name = hr01;}",
"55 691 LINE",
"55 631 LINE",
"112 627 LINE",
"112 64 LINE {name = hr00;}",
"58 56 LINE",
"62 0 LINE {name = hr03;}"
);
}
);
width = 594;
},
{
layerId = "753CA70B-25C4-47AF-A15F-390B5E4CCE16";
paths = (
{
closed = 1;
nodes = (
"305 0 LINE",
"304 87 LINE",
"238 99 LINE",
"238 202 LINE",
"314 291 LINE",
"460 0 LINE",
"618 0 LINE",
"618 87 LINE",
"564 97 LINE",
"402 391 LINE",
"575 593 LINE",
"614 601 LINE",
"614 690 LINE",
"362 690 LINE",
"362 601 LINE",
"439 585 LINE",
"238 345 LINE",
"238 585 LINE",
"307 600 LINE",
"292 690 LINE",
"39 690 LINE",
"39 597 LINE",
"107 592 LINE",
"107 102 LINE",
"37 89 LINE {name = hr00;}",
"51 0 LINE"
);
}
);
width = 635;
}
);
leftKerningGroup = I;
unicode = 004B;
userData = {
com.typemytype.robofont.mark = (
0.713,
0.6,
1,
1
);
};
},
{
glyphname = L;
lastChange = "2018-07-24 15:11:20 +0000";
layers = (
{
layerId = "1178ECA0-A987-4969-BD6E-681EE9C1B9C8";
paths = (
{
closed = 1;
nodes = (
"54 691 LINE {name = mh01;}",
"240 691 LINE",
"244 635 LINE",
"180 627 LINE",
"180 68 LINE",
"400 68 LINE",
"435 171 LINE",
"482 171 LINE",
"463 0 LINE",
"61 0 LINE",
"54 56 LINE",
"111 64 LINE",
"111 627 LINE",
"54 631 LINE {name = hr00;}"
);
}
);
width = 496;
},
{
layerId = "753CA70B-25C4-47AF-A15F-390B5E4CCE16";
paths = (
{
closed = 1;
nodes = (
"310 599 LINE",
"235 585 LINE {name = mv02;}",
"235 105 LINE {name = mv03;}",
"404 105 LINE {name = hr02;}",
"441 204 LINE",
"520 204 LINE {name = hr01;}",
"499 0 LINE",
"53 0 LINE",
"39 88 LINE",
"104 101 LINE",
"104 594 LINE",
"41 601 LINE",
"41 690 LINE {name = mh01;}",
"295 690 LINE {name = mv01;}"
);
}
);
width = 524;
}
);
unicode = 004C;
userData = {
com.typemytype.robofont.mark = (
0.713,
0.6,
1,
1
);
};
},
{
glyphname = M;
lastChange = "2018-07-24 21:07:34 +0000";
layers = (
{
layerId = "1178ECA0-A987-4969-BD6E-681EE9C1B9C8";
paths = (
{
closed = 1;
nodes = (
"238 0 LINE",
"238 56 LINE",
"175 66 LINE",
"175 623 LINE",
"371 15 LINE",
"458 15 LINE",
"651 636 LINE",
"651 68 LINE",
"595 55 LINE",
"600 0 LINE",
"780 0 LINE",
"780 55 LINE",
"720 67 LINE",
"720 626 LINE",
"772 631 LINE",
"766 691 LINE",
"608 691 LINE",
"421 87 LINE",
"226 691 LINE {name = hr00;}",
"55 691 LINE {name = mh01;}",
"55 632 LINE",
"112 627 LINE",
"112 68 LINE",
"54 56 LINE",
"62 0 LINE"
);
}
);
width = 831;
},
{
layerId = "753CA70B-25C4-47AF-A15F-390B5E4CCE16";
paths = (
{
closed = 1;
nodes = (
"251 0 LINE",
"250 87 LINE",
"204 98 LINE {name = mh11;}",
"204 589 LINE {name = mh10;}",
"367 13 LINE {name = mh09;}",
"501 13 LINE {name = mh08;}",
"668 596 LINE {name = mh07;}",
"668 103 LINE",
"624 90 LINE",
"633 0 LINE {name = mh06;}",
"845 0 LINE",
"845 87 LINE",
"794 94 LINE",
"794 585 LINE {name = mh05;}",
"849 597 LINE",
"834 690 LINE {name = mh04;}",
"595 690 LINE {name = mh03;}",
"450 178 LINE {name = mh02;}",
"306 690 LINE {name = mh01;}",
"49 690 LINE {name = hr00;}",
"49 596 LINE",
"104 590 LINE {name = mh12;}",
"104 95 LINE",
"45 87 LINE",
"51 0 LINE"
);
}
);
width = 895;
}
);
leftKerningGroup = H;
rightKerningGroup = H;
unicode = 004D;
userData = {
com.typemytype.robofont.mark = (
0.713,
0.6,
1,
1
);
};
},
{
glyphname = N;
lastChange = "2018-07-24 21:07:13 +0000";
layers = (
{
layerId = "1178ECA0-A987-4969-BD6E-681EE9C1B9C8";
paths = (
{
closed = 1;
nodes = (
"241 0 LINE",
"241 56 LINE",
"174 66 LINE",
"174 629 LINE {name = hr00;}",
"449 0 LINE {name = mh03;}",
"554 0 LINE",
"554 623 LINE",
"615 635 LINE",
"605 691 LINE",
"427 691 LINE",
"427 635 LINE",
"491 625 LINE",
"491 75 LINE",
"221 691 LINE {name = mh02;}",
"54 691 LINE {name = mh01;}",
"54 632 LINE",
"112 627 LINE",
"112 68 LINE",
"54 56 LINE",
"62 0 LINE"
);
}
);
width = 659;
},
{
layerId = "753CA70B-25C4-47AF-A15F-390B5E4CCE16";
paths = (
{
closed = 1;
nodes = (
"261 0 LINE",
"262 88 LINE",
"211 104 LINE",
"211 562 LINE {name = hr00;}",
"428 0 LINE",
"630 0 LINE",
"630 585 LINE",
"697 597 LINE",
"682 690 LINE",
"467 690 LINE",
"467 599 LINE",
"525 592 LINE",
"525 96 LINE",
"298 690 LINE",
"42 690 LINE",
"42 597 LINE",
"106 590 LINE",
"106 100 LINE",
"37 87 LINE",
"53 0 LINE"
);
}
);
width = 727;
}
);
leftKerningGroup = H;
rightKerningGroup = N;
unicode = 004E;
userData = {
com.typemytype.robofont.mark = (
0.713,
0.6,
1,
1
);
};
},
{
glyphname = O;
lastChange = "2018-07-24 15:11:20 +0000";
layers = (
{
layerId = "1178ECA0-A987-4969-BD6E-681EE9C1B9C8";
paths = (
{
closed = 1;
nodes = (
"132.916 -4 OFFCURVE",
"50 176.165 OFFCURVE",
"50 343 CURVE SMOOTH",
"50 509.141 OFFCURVE",
"133.425 691 OFFCURVE",
"323 691 CURVE SMOOTH {name = mh01;}",
"512.668 691 OFFCURVE",
"595 508.925 OFFCURVE",
"595 343 CURVE SMOOTH {name = mh02;}",
"595 176.381 OFFCURVE",
"513.174 -4 OFFCURVE",
"323 -4 CURVE SMOOTH {name = hr00;}"
);
},
{
closed = 1;
nodes = (
"121 213.252 OFFCURVE",
"171.36 64 OFFCURVE",
"323 64 CURVE SMOOTH {name = mh03;}",
"473.919 64 OFFCURVE",
"524 214.071 OFFCURVE",
"524 341 CURVE SMOOTH",
"524 467.092 OFFCURVE",
"474.083 623 OFFCURVE",
"323 623 CURVE SMOOTH",
"171.185 623 OFFCURVE",
"121 467.915 OFFCURVE",
"121 341 CURVE SMOOTH"
);
}
);
width = 645;
},
{
layerId = "753CA70B-25C4-47AF-A15F-390B5E4CCE16";
paths = (
{
closed = 1;
nodes = (
"123.698 -4 OFFCURVE",
"36 160.889 OFFCURVE",
"36 345 CURVE SMOOTH {name = mh01;}",
"36 529.995 OFFCURVE",
"123.1 693 OFFCURVE",
"328 693 CURVE SMOOTH {name = mh03;}",
"532.919 693 OFFCURVE",
"619 529.715 OFFCURVE",
"619 345 CURVE SMOOTH {name = mh04;}",
"619 161.164 OFFCURVE",
"532.318 -4 OFFCURVE",
"328 -4 CURVE SMOOTH {name = hr00;}"
);
},
{
closed = 1;
nodes = (
"173 249.148 OFFCURVE",
"210.068 101 OFFCURVE",
"328 101 CURVE SMOOTH",
"444.905 101 OFFCURVE",
"482 250.206 OFFCURVE",
"482 343 CURVE SMOOTH {name = mh05;}",
"482 435.518 OFFCURVE",
"445.226 588 OFFCURVE",
"328 588 CURVE SMOOTH",
"209.791 588 OFFCURVE",
"173 436.585 OFFCURVE",
"173 343 CURVE SMOOTH"
);
}
);
width = 655;
}
);
leftKerningGroup = O;
rightKerningGroup = O;
unicode = 004F;
userData = {
com.typemytype.robofont.mark = (
0.713,
0.6,
1,
1
);
};
},
{
glyphname = P;
lastChange = "2018-07-24 21:04:48 +0000";
layers = (
{
layerId = "1178ECA0-A987-4969-BD6E-681EE9C1B9C8";
paths = (
{
closed = 1;
nodes = (
"321 0 LINE",
"321 51 LINE",
"181 70 LINE",
"181 264 LINE",
"233.438 264 OFFCURVE",
"282.569 262.749 OFFCURVE",
"333.5 276.5 CURVE SMOOTH",
"433.885 303.604 OFFCURVE",
"494 375.812 OFFCURVE",
"494 481 CURVE SMOOTH",
"494 641.779 OFFCURVE",
"356.134 691 OFFCURVE",
"219 691 CURVE SMOOTH {name = mh01;}",
"55 691 LINE",
"55 632 LINE",
"112 627 LINE",
"112 68 LINE",
"55 55 LINE",
"62 0 LINE"
);
},
{
closed = 1;
nodes = (
"181 623 LINE",
"245 623 LINE SMOOTH",
"337.424 623 OFFCURVE",
"423 584.716 OFFCURVE",
"423 480 CURVE SMOOTH",
"423 360.682 OFFCURVE",
"338.612 332 OFFCURVE",
"235 332 CURVE SMOOTH {name = hr00;}",
"181 332 LINE"
);
}
);
width = 520;
},
{
layerId = "753CA70B-25C4-47AF-A15F-390B5E4CCE16";
paths = (
{
closed = 1;
nodes = (
"384 0 LINE",
"390 83 LINE",
"238 105 LINE",
"238 222 LINE {name = mh16;}",
"296.55 222 OFFCURVE",
"354.078 221.029 OFFCURVE",
"410.5 239 CURVE SMOOTH",
"515.778 272.533 OFFCURVE",
"571 349.696 OFFCURVE",
"571 460 CURVE SMOOTH {name = mh13;}",
"571 630.748 OFFCURVE",
"440.142 690 OFFCURVE",
"289 690 CURVE SMOOTH {name = mh10;}",
"39 690 LINE {name = mh09;}",
"39 599 LINE {name = mh08;}",
"107 592 LINE {name = mh07;}",
"107 100 LINE",
"37 86 LINE",
"51 0 LINE {name = mh18;}"
);
},
{
closed = 1;
nodes = (
"238 585 LINE {name = mh06;}",
"293 585 LINE SMOOTH {name = mh05;}",
"374.028 585 OFFCURVE",
"434 551.621 OFFCURVE",
"434 463 CURVE SMOOTH {name = mh03;}",
"434 351 OFFCURVE",
"357 330 OFFCURVE",
"266 327 CURVE",
"238 327 LINE {name = hr00;}"
);
}
);
width = 585;
}
);
leftKerningGroup = H;
unicode = 0050;
userData = {
com.typemytype.robofont.mark = (
0.713,
0.6,
1,
1
);
};
},
{
glyphname = Thorn;
lastChange = "2018-07-24 21:04:11 +0000";
layers = (
{
layerId = "1178ECA0-A987-4969-BD6E-681EE9C1B9C8";
paths = (
{
closed = 1;
nodes = (
"291 0 LINE",
"291 51 LINE",
"181 64 LINE",
"181 175 LINE",
"317.512 175 OFFCURVE",
"475 196.827 OFFCURVE",
"475 371 CURVE SMOOTH {name = av01;}",
"475 532 OFFCURVE",
"339 558 OFFCURVE",
"212 561 CURVE",
"181 561 LINE {name = mh01;}",
"181 627 LINE {name = mv04;}",
"236 635 LINE",
"232 691 LINE {name = mv03;}",
"55 691 LINE {name = at01;}",
"55 631 LINE {name = mv02;}",
"112 627 LINE {name = mv01;}",
"112 64 LINE {name = hr00;}",
"58 56 LINE",
"63 0 LINE"
);
},
{
closed = 1;
nodes = (
"181 492 LINE",
"218 492 LINE SMOOTH",
"304.69 492 OFFCURVE",
"402 478.813 OFFCURVE",
"402 370 CURVE SMOOTH {name = hr01;}",
"402 261.619 OFFCURVE",
"304.426 244 OFFCURVE",
"217 244 CURVE SMOOTH",
"181 244 LINE"
);
}
);
width = 500;
},
{
layerId = "753CA70B-25C4-47AF-A15F-390B5E4CCE16";
paths = (
{
closed = 1;
nodes = (
"354 0 LINE",
"354 87 LINE",
"240 99 LINE",
"240 147 LINE",
"381.634 134.058 OFFCURVE",
"545 183.05 OFFCURVE",
"545 352 CURVE SMOOTH {name = hr01;}",
"545 507.756 OFFCURVE",
"410.037 559 OFFCURVE",
"276 559 CURVE",
"240 558 LINE",
"240 586 LINE",
"315 598 LINE",
"301 691 LINE",
"40 691 LINE",
"40 600 LINE",
"108 593 LINE",
"108 102 LINE",
"40 89 LINE {name = hr00;}",
"40 0 LINE"
);
},
{
closed = 1;
nodes = (
"240 453 LINE",
"262 452 LINE SMOOTH",
"330 449 OFFCURVE",
"409 435 OFFCURVE",
"409 352 CURVE SMOOTH",
"409 267 OFFCURVE",
"329 253 OFFCURVE",
"260 251 CURVE SMOOTH",
"240 251 LINE"
);
}
);
width = 556;
}
);
leftKerningGroup = I;
unicode = 00DE;
userData = {
com.typemytype.robofont.mark = (
0.713,
0.6,
1,
1
);
};
},
{
glyphname = Q;
lastChange = "2018-07-24 21:02:11 +0000";
layers = (
{
layerId = "1178ECA0-A987-4969-BD6E-681EE9C1B9C8";
paths = (
{
closed = 1;
nodes = (
"496 -102 LINE",
"501 -130 LINE",
"417 -191 LINE",
"260 -56 LINE",
"283 -29 LINE {name = hr00;}"
);
},
{
closed = 1;
nodes = (
"134.364 -4 OFFCURVE",
"50 175.142 OFFCURVE",
"50 343 CURVE SMOOTH",
"50 510.161 OFFCURVE",
"134.874 691 OFFCURVE",
"325 691 CURVE SMOOTH {name = mh01;}",
"514.237 691 OFFCURVE",
"600 509.568 OFFCURVE",
"600 343 CURVE SMOOTH",
"600 175.736 OFFCURVE",
"514.743 -4 OFFCURVE",
"325 -4 CURVE SMOOTH"
);
},
{
closed = 1;
nodes = (
"123 213.252 OFFCURVE",
"173.36 64 OFFCURVE",
"325 64 CURVE SMOOTH",
"475.919 64 OFFCURVE",
"526 214.071 OFFCURVE",
"526 341 CURVE SMOOTH",
"526 467.063 OFFCURVE",
"476.208 624 OFFCURVE",
"325 624 CURVE SMOOTH",
"173.057 624 OFFCURVE",
"123 467.887 OFFCURVE",
"123 341 CURVE SMOOTH"
);
}
);
width = 649;
},
{
layerId = "753CA70B-25C4-47AF-A15F-390B5E4CCE16";
paths = (
{
closed = 1;
nodes = (
"522 -91 LINE",
"529 -129 LINE",
"435 -227 LINE",
"259 -72 LINE",
"314 -15 LINE {name = hr00;}"
);
},
{
closed = 1;
nodes = (
"123.698 -4 OFFCURVE",
"36 160.889 OFFCURVE",
"36 345 CURVE SMOOTH",
"36 529.995 OFFCURVE",
"123.1 693 OFFCURVE",
"328 693 CURVE SMOOTH {name = mh01;}",
"532.919 693 OFFCURVE",
"619 529.715 OFFCURVE",
"619 345 CURVE SMOOTH",
"619 161.164 OFFCURVE",
"532.318 -4 OFFCURVE",
"328 -4 CURVE SMOOTH"
);
},
{
closed = 1;
nodes = (
"173 249.148 OFFCURVE",
"210.068 101 OFFCURVE",
"328 101 CURVE SMOOTH",
"444.905 101 OFFCURVE",
"482 250.206 OFFCURVE",
"482 343 CURVE SMOOTH",
"482 435.518 OFFCURVE",
"445.226 588 OFFCURVE",
"328 588 CURVE SMOOTH",
"209.791 588 OFFCURVE",
"173 436.585 OFFCURVE",
"173 343 CURVE SMOOTH"
);
}
);
width = 655;
}
);
leftKerningGroup = O;
rightKerningGroup = O;
unicode = 0051;
userData = {
com.typemytype.robofont.mark = (
0.713,
0.6,
1,
1
);
};
},
{
glyphname = R;
lastChange = "2018-07-24 20:59:53 +0000";
layers = (
{
layerId = "1178ECA0-A987-4969-BD6E-681EE9C1B9C8";
paths = (
{
closed = 1;
nodes = (
"259 0 LINE",
"259 51 LINE",
"181 70 LINE",
"181 264 LINE",
"272 266 LINE",
"392 0 LINE",
"510 0 LINE",
"510 51 LINE",
"445 65 LINE",
"343 282 LINE",
"436.477 311.208 OFFCURVE",
"494 381.951 OFFCURVE",
"494 481 CURVE SMOOTH {name = mh02;}",
"494 637.572 OFFCURVE",
"366.078 691 OFFCURVE",
"229 691 CURVE SMOOTH {name = mh01;}",
"55 691 LINE",
"55 632 LINE",
"112 627 LINE",
"112 68 LINE",
"55 55 LINE {name = hr00;}",
"62 0 LINE"
);
},
{
closed = 1;
nodes = (
"181 623 LINE",
"255 623 LINE SMOOTH",
"348.333 623 OFFCURVE",
"423 582.322 OFFCURVE",
"423 480 CURVE SMOOTH {name = mh04;}",
"423 364.105 OFFCURVE",
"335.821 332 OFFCURVE",
"235 332 CURVE {name = mh03;}",
"181 332 LINE"
);
}
);
width = 544;
},
{
layerId = "753CA70B-25C4-47AF-A15F-390B5E4CCE16";
paths = (
{
closed = 1;
nodes = (
"290 0 LINE",
"290 87 LINE",
"238 95 LINE",
"238 231 LINE",
"311 234 LINE",
"415 0 LINE",
"584 0 LINE",
"584 87 LINE",
"521 97 LINE",
"433 264 LINE",
"522.237 300.489 OFFCURVE",
"572 367.521 OFFCURVE",
"572 465 CURVE SMOOTH",
"572 633.707 OFFCURVE",
"429.99 690 OFFCURVE",
"284 690 CURVE SMOOTH",
"39 690 LINE",
"39 599 LINE",
"107 592 LINE",
"107 99 LINE",
"38 85 LINE {name = hr00;}",
"47 0 LINE"
);
},
{
closed = 1;
nodes = (
"238 584 LINE",
"246 584 LINE",
"333 583 OFFCURVE",
"437 573 OFFCURVE",
"437 462 CURVE SMOOTH",
"437 366.633 OFFCURVE",
"352.364 336 OFFCURVE",
"271 336 CURVE",
"238 336 LINE"
);
}
);
width = 612;
}
);
leftKerningGroup = H;
unicode = 0052;
userData = {
com.typemytype.robofont.mark = (
0.713,
0.6,
1,
1
);
};
},
{
glyphname = S;
lastChange = "2018-07-24 17:08:34 +0000";
layers = (
{
layerId = "1178ECA0-A987-4969-BD6E-681EE9C1B9C8";
paths = (
{
closed = 1;
nodes = (
"347.698 -4 OFFCURVE",
"446 67.858 OFFCURVE",
"446 189 CURVE SMOOTH {name = mh04;}",
"446 415.406 OFFCURVE",
"125 368.083 OFFCURVE",
"125 528 CURVE SMOOTH",
"125 593.73 OFFCURVE",
"191.709 624 OFFCURVE",
"249 624 CURVE SMOOTH",
"275.788 624 OFFCURVE",
"302.097 621.49 OFFCURVE",
"327 611 CURVE",
"369 505 LINE",
"424 505 LINE",
"411 659 LINE",
"361.306 677.803 OFFCURVE",
"310.434 691 OFFCURVE",
"257 691 CURVE SMOOTH {name = mh03;}",
"156.123 691 OFFCURVE",
"54 630.836 OFFCURVE",
"54 520 CURVE SMOOTH {name = mh02;}",
"54 307.459 OFFCURVE",
"375 363.141 OFFCURVE",
"375 181 CURVE SMOOTH",
"375 102.25 OFFCURVE",
"303.82 64 OFFCURVE",
"233 64 CURVE SMOOTH",
"203.281 64 OFFCURVE",
"165.907 71.265 OFFCURVE",
"139 84 CURVE",
"112 183 LINE {name = hr00;}",
"54 183 LINE",
"65 29 LINE",
"116.908 4.412 OFFCURVE",
"175.967 -4 OFFCURVE",
"233 -4 CURVE SMOOTH"
);
}
);
width = 491;
},
{
layerId = "753CA70B-25C4-47AF-A15F-390B5E4CCE16";
paths = (
{
closed = 1;
nodes = (
"368.893 -4 OFFCURVE",
"489 57.25 OFFCURVE",
"489 201 CURVE SMOOTH",
"489 410.649 OFFCURVE",
"180 401.568 OFFCURVE",
"180 511 CURVE SMOOTH {name = mh08;}",
"180 569.337 OFFCURVE",
"233.089 587 OFFCURVE",
"282 587 CURVE SMOOTH",
"304.735 587 OFFCURVE",
"327.55 584.447 OFFCURVE",
"350 581 CURVE",
"399 475 LINE {name = mh07;}",
"483 475 LINE",
"468 665 LINE",
"406.525 682.337 OFFCURVE",
"341.891 692 OFFCURVE",
"278 692 CURVE SMOOTH {name = mh06;}",
"165.072 692 OFFCURVE",
"44 631.519 OFFCURVE",
"44 504 CURVE SMOOTH {name = mh03;}",
"44 280.247 OFFCURVE",
"352 312.095 OFFCURVE",
"352 183 CURVE SMOOTH {name = hr00;}",
"352 118.568 OFFCURVE",
"286.777 101 OFFCURVE",
"234 101 CURVE SMOOTH",
"203.538 101 OFFCURVE",
"177.275 109.235 OFFCURVE",
"148 116 CURVE",
"140 227 LINE",
"56 234 LINE",
"36 41 LINE {name = mh12;}",
"101.217 14.915 OFFCURVE",
"169.349 -4 OFFCURVE",
"240 -4 CURVE SMOOTH"
);
}
);
width = 528;
}
);
unicode = 0053;
userData = {
com.typemytype.robofont.mark = (
0.713,
0.6,
1,
1
);
};
},
{
glyphname = T;
lastChange = "2018-07-24 15:11:20 +0000";
layers = (
{
layerId = "1178ECA0-A987-4969-BD6E-681EE9C1B9C8";
paths = (
{
closed = 1;
nodes = (
"127 52 LINE",
"240 70 LINE",
"240 623 LINE",
"103 623 LINE",
"64 526 LINE {name = hr01;}",
"18 526 LINE",
"41 691 LINE {name = mh01;}",
"506 691 LINE",
"529 526 LINE",
"483 526 LINE",
"444 623 LINE {name = hr02;}",
"308 623 LINE",
"308 70 LINE",
"423 52 LINE",
"423 0 LINE",
"127 0 LINE {name = hr00;}"
);
}
);
width = 547;
},
{
layerId = "753CA70B-25C4-47AF-A15F-390B5E4CCE16";
paths = (
{
closed = 1;
nodes = (
"243 102 LINE",
"243 585 LINE {name = mh01;}",
"130 585 LINE {name = hr02;}",
"87 485 LINE",
"10 485 LINE {name = hr01;}",
"29 690 LINE {name = mv01;}",
"584 690 LINE",
"606 486 LINE",
"530 486 LINE",
"486 585 LINE",
"372 585 LINE {name = mh02;}",
"372 102 LINE",
"488 80 LINE",
"478 0 LINE",
"138 0 LINE",
"128 80 LINE {name = hr00;}"
);
}
);
width = 615;
}
);
unicode = 0054;
userData = {
com.typemytype.robofont.mark = (
0.713,
0.6,
1,
1
);
};
},
{
glyphname = U;
lastChange = "2018-07-24 20:55:30 +0000";
layers = (
{
layerId = "1178ECA0-A987-4969-BD6E-681EE9C1B9C8";
paths = (
{
closed = 1;
nodes = (
"437.327 -4 OFFCURVE",
"536 72.047 OFFCURVE",
"536 202 CURVE SMOOTH",
"536 627 LINE",
"591 635 LINE",
"587 691 LINE",
"417 691 LINE",
"417 631 LINE {name = hr00;}",
"474 627 LINE",
"474 213 LINE SMOOTH",
"474 115.325 OFFCURVE",
"414.845 63 OFFCURVE",
"319 63 CURVE SMOOTH",
"223.134 63 OFFCURVE",
"164 115.386 OFFCURVE",
"164 213 CURVE SMOOTH",
"164 627 LINE",
"219 635 LINE",
"215 691 LINE",
"38 691 LINE {name = mh01;}",
"38 631 LINE",
"96 627 LINE",
"96 202 LINE SMOOTH",
"96 74.492 OFFCURVE",
"189.082 -4 OFFCURVE",
"313 -4 CURVE SMOOTH"
);
}
);
width = 628;
},
{
layerId = "753CA70B-25C4-47AF-A15F-390B5E4CCE16";
paths = (
{
closed = 1;
nodes = (
"509.85 -4 OFFCURVE",
"584 98.488 OFFCURVE",
"584 248 CURVE SMOOTH",
"584 586 LINE {name = mh03;}",
"643 599 LINE {name = hr02;}",
"643 690 LINE {name = mh02;}",
"415 690 LINE {name = mv01;}",
"415 602 LINE",
"479 593 LINE {name = mh01;}",
"479 251 LINE SMOOTH",
"479 165.318 OFFCURVE",
"448.748 101 OFFCURVE",
"353 101 CURVE SMOOTH",
"250.648 101 OFFCURVE",
"219 153.396 OFFCURVE",
"219 250 CURVE SMOOTH {name = hr00;}",
"219 591 LINE {name = mh07;}",
"290 602 LINE",
"290 690 LINE",
"21 690 LINE {name = mh06;}",
"21 601 LINE",
"88 592 LINE {name = mh05;}",
"88 248 LINE SMOOTH {name = hr01;}",
"88 66.255 OFFCURVE",
"177.079 -4 OFFCURVE",
"353 -4 CURVE SMOOTH"
);
}
);
width = 670;
}
);
leftKerningGroup = U;
rightKerningGroup = U;
unicode = 0055;
userData = {
com.typemytype.robofont.mark = (
0.713,
0.6,
1,
1
);
};
},
{
glyphname = V;
lastChange = "2018-07-24 20:53:24 +0000";
layers = (
{
layerId = "1178ECA0-A987-4969-BD6E-681EE9C1B9C8";
paths = (
{
closed = 1;
nodes = (
"205 647 LINE",
"117 626 LINE {name = mh01;}",
"284 111 LINE {name = mh02;}",
"455 629 LINE {name = mh03;}",
"364 646 LINE",
"364 691 LINE",
"560 691 LINE",
"560 644 LINE",
"520 626 LINE",
"312 0 LINE",
"247 0 LINE",
"44 626 LINE",
"8 644 LINE",
"8 691 LINE {name = mh04;}",
"205 691 LINE {name = hr00;}"
);
}
);
width = 562;
},
{
layerId = "753CA70B-25C4-47AF-A15F-390B5E4CCE16";
paths = (
{
closed = 1;
nodes = (
"258 611 LINE",
"181 594 LINE",
"338 130 LINE",
"493 594 LINE",
"402 612 LINE",
"402 690 LINE",
"635 690 LINE",
"635 601 LINE",
"598 594 LINE",
"391 0 LINE",
"250 0 LINE",
"40 594 LINE",
"4 601 LINE",
"4 690 LINE",
"244 690 LINE {name = hr00;}"
);
}
);
width = 639;
}
);
unicode = 0056;
userData = {
com.typemytype.robofont.mark = (
0.713,
0.6,
1,
1
);
};
},
{
glyphname = W;
lastChange = "2018-07-24 15:11:20 +0000";
layers = (
{
layerId = "1178ECA0-A987-4969-BD6E-681EE9C1B9C8";
paths = (
{
closed = 1;
nodes = (
"201 647 LINE",
"123 626 LINE",
"236 88 LINE",
"391 668 LINE {name = mh01;}",
"476 668 LINE",
"628 82 LINE",
"742 629 LINE",
"664 646 LINE",
"664 691 LINE {name = mh02;}",
"846 691 LINE",
"846 644 LINE",
"806 626 LINE",
"673 0 LINE",
"582 0 LINE",
"431 576 LINE",
"281 0 LINE",
"181 0 LINE",
"52 626 LINE",
"13 644 LINE",
"13 691 LINE {name = mh03;}",
"201 691 LINE {name = hr00;}"
);
}
);
width = 856;
},
{
layerId = "753CA70B-25C4-47AF-A15F-390B5E4CCE16";
paths = (
{
closed = 1;
nodes = (
"988 602 LINE",
"910 582 LINE",
"800 0 LINE {name = mh01;}",
"632 0 LINE {name = mh02;}",
"491 506 LINE",
"355 0 LINE {name = mh03;}",
"181 0 LINE {name = mh04;}",
"71 587 LINE {name = mh05;}",
"16 600 LINE",
"16 690 LINE {name = mh06;}",
"260 690 LINE {name = hr02;}",
"277 611 LINE",
"207 601 LINE {name = mh07;}",
"289 143 LINE {name = mh08;}",
"443 677 LINE {name = mh09;}",
"585 677 LINE {name = hr01;}",
"734 129 LINE",
"812 601 LINE",
"728 614 LINE",
"739 690 LINE",
"988 690 LINE {name = hr00;}"
);
}
);
width = 985;
}
);
unicode = 0057;
userData = {
com.typemytype.robofont.mark = (
0.713,
0.6,
1,
1
);
};
},
{
glyphname = X;
lastChange = "2018-07-24 20:53:14 +0000";
layers = (
{
layerId = "1178ECA0-A987-4969-BD6E-681EE9C1B9C8";
paths = (
{
closed = 1;
nodes = (
"20 54 LINE",
"65 61 LINE",
"240 347 LINE",
"69 627 LINE",
"22 638 LINE",
"22 691 LINE {name = mh01;}",
"217 691 LINE",
"217 648 LINE",
"146 633 LINE",
"288 401 LINE",
"417 633 LINE",
"358 643 LINE",
"358 691 LINE",
"537 691 LINE",
"537 637 LINE",
"492 630 LINE",
"325 341 LINE",
"490 75 LINE",
"554 52 LINE",
"554 0 LINE",
"356 0 LINE",
"356 52 LINE",
"418 58 LINE",
"276 289 LINE",
"139 58 LINE",
"197 48 LINE",
"197 0 LINE",
"20 0 LINE {name = hr00;}"
);
}
);
width = 566;
},
{
layerId = "753CA70B-25C4-47AF-A15F-390B5E4CCE16";
paths = (
{
closed = 1;
nodes = (
"577 600 LINE",
"536 592 LINE {name = mh01;}",
"370 334 LINE {name = mh02;}",
"513 93 LINE",
"577 71 LINE",
"577 0 LINE",
"306 0 LINE",
"306 71 LINE",
"363 77 LINE",
"273 232 LINE",
"183 76 LINE",
"238 70 LINE",
"238 0 LINE",
"13 0 LINE",
"13 71 LINE",
"59 79 LINE",
"216 331 LINE",
"66 591 LINE {name = mh03;}",
"24 603 LINE",
"24 690 LINE {name = mh04;}",
"277 690 LINE",
"291 612 LINE {name = mh05;}",
"221 597 LINE {name = mh06;}",
"312 436 LINE {name = mv01;}",
"412 595 LINE {name = mh07;}",
"354 613 LINE",
"354 690 LINE",
"577 690 LINE {name = hr00;}"
);
}
);
width = 594;
}
);
unicode = 0058;
userData = {
com.typemytype.robofont.mark = (
0.713,
0.6,
1,
1
);
};
},
{
glyphname = Y;
lastChange = "2018-07-24 15:11:20 +0000";
layers = (
{
layerId = "1178ECA0-A987-4969-BD6E-681EE9C1B9C8";
paths = (
{
closed = 1;
nodes = (
"189 638 LINE",
"126 628 LINE",
"278 330 LINE",
"418 629 LINE",
"357 637 LINE",
"357 691 LINE",
"529 691 LINE",
"529 631 LINE",
"486 621 LINE",
"305 243 LINE",
"305 70 LINE",
"420 52 LINE",
"411 0 LINE",
"131 0 LINE",
"121 52 LINE",
"237 70 LINE",
"237 257 LINE",
"50 622 LINE",
"7 631 LINE",
"7 691 LINE {name = mh01;}",
"189 691 LINE {name = hr00;}"
);
}
);
width = 539;
},
{
layerId = "753CA70B-25C4-47AF-A15F-390B5E4CCE16";
paths = (
{
closed = 1;
nodes = (
"257 611 LINE",
"186 597 LINE",
"310 381 LINE",
"422 600 LINE",
"361 611 LINE",
"361 690 LINE",
"582 690 LINE",
"582 602 LINE",
"538 591 LINE",
"360 251 LINE",
"360 96 LINE",
"475 73 LINE",
"466 0 LINE",
"125 0 LINE",
"115 73 LINE",
"229 96 LINE",
"229 252 LINE",
"38 591 LINE",
"-2 601 LINE",
"-2 690 LINE {name = mh01;}",
"242 690 LINE {name = hr00;}"
);
}
);
width = 583;
}
);
leftKerningGroup = Y;
rightKerningGroup = Y;
unicode = 0059;
userData = {
com.typemytype.robofont.mark = (
0.713,
0.6,
1,
1
);
};
},
{
glyphname = Z;
lastChange = "2018-07-24 20:52:15 +0000";
layers = (
{
layerId = "1178ECA0-A987-4969-BD6E-681EE9C1B9C8";
paths = (
{
closed = 1;
nodes = (
"127 68 LINE",
"426 68 LINE",
"446 170 LINE",
"493 170 LINE",
"493 0 LINE",
"56 0 LINE",
"47 75 LINE",
"415 623 LINE",
"119 623 LINE",
"99 521 LINE",
"52 521 LINE",
"52 691 LINE {name = mh01;}",
"477 691 LINE",
"487 604 LINE {name = hr00;}"
);
}
);
width = 542;
},
{
layerId = "753CA70B-25C4-47AF-A15F-390B5E4CCE16";
paths = (
{
closed = 1;
nodes = (
"365 585 LINE",
"144 585 LINE {name = hr01;}",
"125 475 LINE",
"47 475 LINE",
"47 690 LINE {name = mh01;}",
"507 690 LINE",
"527 597 LINE",
"205 105 LINE",
"420 105 LINE",
"438 215 LINE",
"518 215 LINE",
"518 0 LINE",
"47 0 LINE",
"28 79 LINE {name = hr00;}"
);
}
);
width = 562;
}
);
unicode = 005A;
userData = {
com.typemytype.robofont.mark = (
0.713,
0.6,
1,
1
);
};
},
{
glyphname = a;
lastChange = "2018-07-24 17:12:36 +0000";
layers = (
{
anchors = (
{
name = bottom;
position = "{262, 0}";
},
{
name = ogonek;
position = "{421, 0}";
},
{
name = top;
position = "{222, 479}";
}
);
layerId = "1178ECA0-A987-4969-BD6E-681EE9C1B9C8";
paths = (
{
closed = 1;
nodes = (
"234.145 -4 OFFCURVE",
"275.164 10.018 OFFCURVE",
"308 40 CURVE",
"316.007 9.512 OFFCURVE",
"334.992 -4 OFFCURVE",
"366 -4 CURVE SMOOTH",
"386.144 -4 OFFCURVE",
"406.574 2.563 OFFCURVE",
"421 17 CURVE",
"410 55 LINE",
"403.366 52.349 OFFCURVE",
"396.217 50 OFFCURVE",
"389 50 CURVE SMOOTH {name = hr00;}",
"371.021 50 OFFCURVE",
"366 62.933 OFFCURVE",
"366 79 CURVE SMOOTH {name = hr00;}",
"366 337 LINE SMOOTH",
"366 437.625 OFFCURVE",
"304.308 479 OFFCURVE",
"209 479 CURVE SMOOTH {name = mh02;}",
"137.016 479 OFFCURVE",
"70.774 441.882 OFFCURVE",
"48 371 CURVE",
"130 356 LINE",
"146 409 LINE",
"164.01 420.067 OFFCURVE",
"194.169 422 OFFCURVE",
"215 422 CURVE SMOOTH",
"258.855 422 OFFCURVE",
"303 401.882 OFFCURVE",
"303 352 CURVE SMOOTH",
"303 288 LINE {name = mh01;}",
"200.428 285.147 OFFCURVE",
"41 261.139 OFFCURVE",
"41 128 CURVE SMOOTH",
"41 44.138 OFFCURVE",
"111.625 -4 OFFCURVE",
"190 -4 CURVE SMOOTH"
);
},
{
closed = 1;
nodes = (
"148.295 53 OFFCURVE",
"107 77.987 OFFCURVE",
"107 131 CURVE SMOOTH",
"107 219.973 OFFCURVE",
"237.564 231.994 OFFCURVE",
"303 232 CURVE {name = mh04;}",
"303 108 LINE",
"280.168 73.072 OFFCURVE",
"238.298 53 OFFCURVE",
"197 53 CURVE SMOOTH {name = mh03;}"
);
}
);
width = 448;
},
{
anchors = (
{
name = bottom;
position = "{233, 0}";
},
{
name = ogonek;
position = "{421, 0}";
},
{
name = top;
position = "{230, 491}";
}
);
layerId = "753CA70B-25C4-47AF-A15F-390B5E4CCE16";
paths = (
{
closed = 1;
nodes = (
"216.647 -4 OFFCURVE",
"255.98 13.982 OFFCURVE",
"286 44 CURVE",
"302.335 11.314 OFFCURVE",
"329.993 -4 OFFCURVE",
"366 -4 CURVE SMOOTH",
"397.666 -4 OFFCURVE",
"422.242 8.722 OFFCURVE",
"446 29 CURVE",
"428 85 LINE {name = hr00;}",
"421 82 OFFCURVE",
"414 80 OFFCURVE",
"410 80 CURVE SMOOTH",
"402 80 OFFCURVE",
"395 88 OFFCURVE",
"395 105 CURVE SMOOTH {name = hr00;}",
"395 330 LINE SMOOTH {name = mh06;}",
"395 436.642 OFFCURVE",
"326 491 OFFCURVE",
"223 491 CURVE SMOOTH {name = mh05;}",
"145 491 OFFCURVE",
"60.912 448.187 OFFCURVE",
"30 374 CURVE",
"154 320 LINE {name = mh02;}",
"180 394 LINE",
"188.683 397.418 OFFCURVE",
"199.791 397 OFFCURVE",
"209 397 CURVE SMOOTH",
"226.832 397 OFFCURVE",
"274 393.082 OFFCURVE",
"274 367 CURVE SMOOTH",
"274 288 LINE",
"176.44 285.62 OFFCURVE",
"29 251.805 OFFCURVE",
"29 129 CURVE SMOOTH",
"29 42.644 OFFCURVE",
"92.103 -4 OFFCURVE",
"174 -4 CURVE SMOOTH"
);
},
{
closed = 1;
nodes = (
"170.897 92 OFFCURVE",
"153 110.968 OFFCURVE",
"153 138 CURVE SMOOTH {name = mh08;}",
"153 192.779 OFFCURVE",
"233.58 201.872 OFFCURVE",
"274 204 CURVE",
"274 139 LINE {name = mh07;}",
"260.443 110.206 OFFCURVE",
"229.331 92 OFFCURVE",
"198 92 CURVE SMOOTH"
);
}
);
width = 463;
}
);
leftKerningGroup = a;
rightKerningGroup = a;
unicode = 0061;
userData = {
com.typemytype.robofont.mark = (
0.713,
0.6,
1,
1
);
};
},
{
glyphname = aacute;
lastChange = "2018-07-24 17:20:10 +0000";
layers = (
{
components = (
{
name = a;
},
{
name = acutecomb;
transform = "{1, 0, 0, 1, 222, -2}";
}
);
layerId = "1178ECA0-A987-4969-BD6E-681EE9C1B9C8";
width = 448;
},
{
components = (
{
name = a;
},
{
name = acutecomb;
transform = "{1, 0, 0, 1, 230, 0}";
}
);
layerId = "753CA70B-25C4-47AF-A15F-390B5E4CCE16";
width = 463;
},
{
associatedMasterId = "1178ECA0-A987-4969-BD6E-681EE9C1B9C8";
layerId = "8478D28C-9BCF-493B-8A58-873E56E9F805";
name = "Jul 24 18, 13:04";
paths = (
{
closed = 1;
nodes = (
"396.217 50 OFFCURVE",
"403.366 52.349 OFFCURVE",
"410 55 CURVE",
"421 17 LINE",
"406.574 2.563 OFFCURVE",
"386.144 -4 OFFCURVE",
"366 -4 CURVE SMOOTH",
"334.992 -4 OFFCURVE",
"316.007 9.512 OFFCURVE",
"308 40 CURVE",
"275.164 10.018 OFFCURVE",
"234.145 -4 OFFCURVE",
"190 -4 CURVE SMOOTH",
"111.625 -4 OFFCURVE",
"41 44.138 OFFCURVE",
"41 128 CURVE SMOOTH",
"41 261.139 OFFCURVE",
"200.428 285.147 OFFCURVE",
"303 288 CURVE",
"303 352 LINE SMOOTH",
"303 401.882 OFFCURVE",
"258.855 422 OFFCURVE",
"215 422 CURVE SMOOTH",
"194.169 422 OFFCURVE",
"164.01 420.067 OFFCURVE",
"146 409 CURVE",
"130 356 LINE",
"48 371 LINE",
"70.774 441.882 OFFCURVE",
"137.016 479 OFFCURVE",
"209 479 CURVE SMOOTH {name = mh01;}",
"304.308 479 OFFCURVE",
"366 437.625 OFFCURVE",
"366 337 CURVE SMOOTH",
"366 79 LINE SMOOTH {name = hr00;}",
"366 62.933 OFFCURVE",
"371.021 50 OFFCURVE",
"389 50 CURVE SMOOTH {name = hr00;}"
);
},
{
closed = 1;
nodes = (
"107 77.987 OFFCURVE",
"148.295 53 OFFCURVE",
"197 53 CURVE SMOOTH",
"238.298 53 OFFCURVE",
"280.168 73.072 OFFCURVE",
"303 108 CURVE",
"303 232 LINE",
"237.564 231.994 OFFCURVE",
"107 219.973 OFFCURVE",
"107 131 CURVE SMOOTH"
);
},
{
closed = 1;
nodes = (
"253 725 LINE {name = mh02;}",
"280 725 LINE",
"324 673 LINE",
"184 553 LINE",
"149 586 LINE"
);
}
);
visible = 1;
width = 448;
}
);
leftKerningGroup = a;
rightKerningGroup = a;
unicode = 00E1;
userData = {
com.typemytype.robofont.mark = (
0.713,
0.6,
1,
1
);
};
},
{
glyphname = acircumflex;
lastChange = "2018-07-24 17:34:55 +0000";
layers = (
{
components = (
{
name = a;
},
{
name = circumflexcomb;
transform = "{1, 0, 0, 1, 222, -2}";
}
);
layerId = "1178ECA0-A987-4969-BD6E-681EE9C1B9C8";
width = 448;
},
{
components = (
{
name = a;
},
{
name = circumflexcomb;
transform = "{1, 0, 0, 1, 230, 0}";
}
);
layerId = "753CA70B-25C4-47AF-A15F-390B5E4CCE16";
width = 463;
},
{
associatedMasterId = "1178ECA0-A987-4969-BD6E-681EE9C1B9C8";
layerId = "58958200-D278-454A-916C-52BE2CD1ABC2";
name = "Jul 24 18, 13:19";
paths = (
{
closed = 1;
nodes = (
"203 691 LINE {name = mh02;}",
"219 691 LINE",
"335 550 LINE",
"332 544 LINE",
"277 544 LINE",
"211 602 LINE {name = mh03;}",
"145 544 LINE",
"91 544 LINE",
"87 548 LINE {name = mh01;}"
);
},
{
closed = 1;
nodes = (
"396.217 50 OFFCURVE",
"403.366 52.349 OFFCURVE",
"410 55 CURVE",
"421 17 LINE",
"406.574 2.563 OFFCURVE",
"386.144 -4 OFFCURVE",
"366 -4 CURVE SMOOTH",
"334.992 -4 OFFCURVE",
"316.007 9.512 OFFCURVE",
"308 40 CURVE",
"275.164 10.018 OFFCURVE",
"234.145 -4 OFFCURVE",
"190 -4 CURVE SMOOTH",
"111.625 -4 OFFCURVE",
"41 44.138 OFFCURVE",
"41 128 CURVE SMOOTH {name = hr01;}",
"41 261.139 OFFCURVE",
"200.428 285.147 OFFCURVE",
"303 288 CURVE",
"303 352 LINE SMOOTH",
"303 401.882 OFFCURVE",
"258.855 422 OFFCURVE",
"215 422 CURVE SMOOTH",
"194.169 422 OFFCURVE",
"164.01 420.067 OFFCURVE",
"146 409 CURVE",
"130 356 LINE",
"48 371 LINE",
"70.774 441.882 OFFCURVE",
"137.016 479 OFFCURVE",
"209 479 CURVE SMOOTH {name = mh04;}",
"304.308 479 OFFCURVE",
"366 437.625 OFFCURVE",
"366 337 CURVE SMOOTH",
"366 79 LINE SMOOTH",
"366 62.933 OFFCURVE",
"371.021 50 OFFCURVE",
"389 50 CURVE SMOOTH"
);
},
{
closed = 1;
nodes = (
"107 77.987 OFFCURVE",
"148.295 53 OFFCURVE",
"197 53 CURVE SMOOTH",
"238.298 53 OFFCURVE",
"280.168 73.072 OFFCURVE",
"303 108 CURVE",
"303 232 LINE",
"237.564 231.994 OFFCURVE",
"107 219.973 OFFCURVE",
"107 131 CURVE SMOOTH"
);
}
);
width = 448;
},
{
associatedMasterId = "753CA70B-25C4-47AF-A15F-390B5E4CCE16";
layerId = "33FE73F3-1E15-4CC5-8AEC-D36BBE422DB0";
name = "Jul 24 18, 13:19";
paths = (
{
closed = 1;
nodes = (
"213 700 LINE {name = mh02;}",
"245 700 LINE {name = mv01;}",
"379 540 LINE {name = mh03;}",
"373 529 LINE",
"295 529 LINE {name = mv02;}",
"228 581 LINE",
"161 529 LINE",
"84 529 LINE",
"79 541 LINE {name = mh01;}"
);
},
{
closed = 1;
nodes = (
"446 29 LINE {name = hr01;}",
"422.242 8.722 OFFCURVE",
"397.666 -4 OFFCURVE",
"366 -4 CURVE SMOOTH",
"329.993 -4 OFFCURVE",
"302.335 11.314 OFFCURVE",
"286 44 CURVE",
"255.98 13.982 OFFCURVE",
"216.647 -4 OFFCURVE",
"174 -4 CURVE SMOOTH",
"92.103 -4 OFFCURVE",
"29 42.644 OFFCURVE",
"29 129 CURVE SMOOTH",
"29 251.805 OFFCURVE",
"176.44 285.62 OFFCURVE",
"274 288 CURVE",
"274 367 LINE SMOOTH",
"274 393.082 OFFCURVE",
"226.832 397 OFFCURVE",
"209 397 CURVE SMOOTH",
"199.791 397 OFFCURVE",
"188.683 397.418 OFFCURVE",
"180 394 CURVE",
"154 320 LINE",
"30 374 LINE",
"60.912 448.187 OFFCURVE",
"145.415 491 OFFCURVE",
"223 491 CURVE SMOOTH {name = mv03;}",
"325.935 491 OFFCURVE",
"395 436.642 OFFCURVE",
"395 330 CURVE SMOOTH",
"395 105 LINE SMOOTH",
"395 78.975 OFFCURVE",
"409.055 83.21 OFFCURVE",
"428 85 CURVE"
);
},
{
closed = 1;
nodes = (
"229.331 92 OFFCURVE",
"260.443 110.206 OFFCURVE",
"274 139 CURVE",
"274 204 LINE",
"233.58 201.872 OFFCURVE",
"153 192.779 OFFCURVE",
"153 138 CURVE SMOOTH",
"153 110.968 OFFCURVE",
"170.897 92 OFFCURVE",
"198 92 CURVE SMOOTH"
);
}
);
width = 463;
}
);
leftKerningGroup = a;
rightKerningGroup = a;
unicode = 00E2;
userData = {
com.typemytype.robofont.mark = (
0.713,
0.6,
1,
1
);
};
},
{
glyphname = adieresis;
lastChange = "2018-07-24 17:55:36 +0000";
layers = (
{
components = (
{
name = a;
},
{
name = dieresiscomb;
transform = "{1, 0, 0, 1, 222, -2}";
}
);
layerId = "1178ECA0-A987-4969-BD6E-681EE9C1B9C8";
width = 448;
},
{
components = (
{
name = a;
},
{
name = dieresiscomb;
transform = "{1, 0, 0, 1, 230, 0}";
}
);
layerId = "753CA70B-25C4-47AF-A15F-390B5E4CCE16";
width = 463;
},
{
associatedMasterId = "1178ECA0-A987-4969-BD6E-681EE9C1B9C8";
components = (
{
name = a;
}
);
layerId = "D0EBDBA6-5DF7-4342-B845-C2F9ED2443D3";
name = "Jul 24 18, 13:46";
paths = (
{
closed = 1;
nodes = (
"89 646.501 OFFCURVE",
"110.57 668 OFFCURVE",
"138 668 CURVE SMOOTH",
"164.301 668 OFFCURVE",
"186 644.965 OFFCURVE",
"186 619 CURVE SMOOTH",
"186 593.604 OFFCURVE",
"163.659 570 OFFCURVE",
"138 570 CURVE SMOOTH",
"111.145 570 OFFCURVE",
"89 592.089 OFFCURVE",
"89 619 CURVE SMOOTH {name = mh01;}"
);
},
{
closed = 1;
nodes = (
"229 646.316 OFFCURVE",
"249.412 668 OFFCURVE",
"277 668 CURVE SMOOTH",
"303.394 668 OFFCURVE",
"324 644.773 OFFCURVE",
"324 619 CURVE SMOOTH {name = mh02;}",
"324 593.819 OFFCURVE",
"302.71 570 OFFCURVE",
"277 570 CURVE SMOOTH",
"249.993 570 OFFCURVE",
"229 592.222 OFFCURVE",
"229 619 CURVE SMOOTH"
);
}
);
width = 448;
},
{
associatedMasterId = "753CA70B-25C4-47AF-A15F-390B5E4CCE16";
components = (
{
name = a;
}
);
layerId = "9F424BC6-E52A-4B09-9770-B7A90FC87D4D";
name = "Jul 24 18, 13:46";
paths = (
{
closed = 1;
nodes = (
"70 668.818 OFFCURVE",
"97.182 696 OFFCURVE",
"132 696 CURVE SMOOTH {name = fv01;}",
"166.818 696 OFFCURVE",
"194 668.818 OFFCURVE",
"194 634 CURVE SMOOTH {name = mh02;}",
"194 599.182 OFFCURVE",
"166.818 572 OFFCURVE",
"132 572 CURVE SMOOTH {name = mv01;}",
"97.182 572 OFFCURVE",
"70 599.182 OFFCURVE",
"70 634 CURVE SMOOTH {name = mh01;}"
);
},
{
closed = 1;
nodes = (
"231 668.818 OFFCURVE",
"258.182 696 OFFCURVE",
"293 696 CURVE SMOOTH",
"327.818 696 OFFCURVE",
"355 668.818 OFFCURVE",
"355 634 CURVE SMOOTH",
"355 599.182 OFFCURVE",
"327.818 572 OFFCURVE",
"293 572 CURVE SMOOTH {name = mv02;}",
"258.182 572 OFFCURVE",
"231 599.182 OFFCURVE",
"231 634 CURVE SMOOTH {name = mh03;}"
);
}
);
visible = 1;
width = 463;
}
);
leftKerningGroup = a;
rightKerningGroup = a;
unicode = 00E4;
userData = {
com.typemytype.robofont.mark = (
0.713,
0.6,
1,
1
);
};
},
{
glyphname = agrave;
lastChange = "2018-07-24 18:14:26 +0000";
layers = (
{
components = (
{
name = a;
},
{
name = gravecomb;
transform = "{1, 0, 0, 1, 222, -2}";
}
);
layerId = "1178ECA0-A987-4969-BD6E-681EE9C1B9C8";
width = 448;
},
{
components = (
{
name = a;
},
{
name = gravecomb;
transform = "{1, 0, 0, 1, 230, 0}";
}
);
layerId = "753CA70B-25C4-47AF-A15F-390B5E4CCE16";
width = 463;
},
{
associatedMasterId = "1178ECA0-A987-4969-BD6E-681EE9C1B9C8";
layerId = "9ECF96AC-E3E3-4E5F-AC83-C158284DD7A8";
name = "Jul 24 18, 14:07";
paths = (
{
closed = 1;
nodes = (
"396.217 50 OFFCURVE",
"403.366 52.349 OFFCURVE",
"410 55 CURVE",
"421 17 LINE",
"406.574 2.563 OFFCURVE",
"386.144 -4 OFFCURVE",
"366 -4 CURVE SMOOTH",
"334.992 -4 OFFCURVE",
"316.007 9.512 OFFCURVE",
"308 40 CURVE",
"275.164 10.018 OFFCURVE",
"234.145 -4 OFFCURVE",
"190 -4 CURVE SMOOTH",
"111.625 -4 OFFCURVE",
"41 44.138 OFFCURVE",
"41 128 CURVE SMOOTH",
"41 261.139 OFFCURVE",
"200.428 285.147 OFFCURVE",
"303 288 CURVE",
"303 352 LINE SMOOTH",
"303 401.882 OFFCURVE",
"258.855 422 OFFCURVE",
"215 422 CURVE SMOOTH",
"194.169 422 OFFCURVE",
"164.01 420.067 OFFCURVE",
"146 409 CURVE",
"130 356 LINE",
"48 371 LINE",
"70.774 441.882 OFFCURVE",
"137.016 479 OFFCURVE",
"209 479 CURVE SMOOTH {name = mh01;}",
"304.308 479 OFFCURVE",
"366 437.625 OFFCURVE",
"366 337 CURVE SMOOTH",
"366 79 LINE SMOOTH {name = hr00;}",
"366 62.933 OFFCURVE",
"371.021 50 OFFCURVE",
"389 50 CURVE SMOOTH {name = hr00;}"
);
},
{
closed = 1;
nodes = (
"107 77.987 OFFCURVE",
"148.295 53 OFFCURVE",
"197 53 CURVE SMOOTH",
"238.298 53 OFFCURVE",
"280.168 73.072 OFFCURVE",
"303 108 CURVE",
"303 232 LINE",
"237.564 231.994 OFFCURVE",
"107 219.973 OFFCURVE",
"107 131 CURVE SMOOTH"
);
},
{
closed = 1;
nodes = (
"130 674 LINE",
"174 727 LINE {name = mh02;}",
"200 727 LINE",
"304 587 LINE {name = mh03;}",
"270 554 LINE"
);
}
);
visible = 1;
width = 448;
},
{
associatedMasterId = "753CA70B-25C4-47AF-A15F-390B5E4CCE16";
layerId = "E0794888-3691-46E2-AC1A-29EA241E0AE4";
name = "Jul 24 18, 14:07";
paths = (
{
closed = 1;
nodes = (
"145.415 491 OFFCURVE",
"60.912 448.187 OFFCURVE",
"30 374 CURVE",
"154 320 LINE",
"180 394 LINE",
"188.683 397.418 OFFCURVE",
"199.791 397 OFFCURVE",
"209 397 CURVE SMOOTH",
"226.832 397 OFFCURVE",
"274 393.082 OFFCURVE",
"274 367 CURVE SMOOTH",
"274 288 LINE",
"176.44 285.62 OFFCURVE",
"29 251.805 OFFCURVE",
"29 129 CURVE SMOOTH",
"29 42.644 OFFCURVE",
"92.103 -4 OFFCURVE",
"174 -4 CURVE SMOOTH",
"216.647 -4 OFFCURVE",
"255.98 13.982 OFFCURVE",
"286 44 CURVE",
"302.335 11.314 OFFCURVE",
"329.993 -4 OFFCURVE",
"366 -4 CURVE SMOOTH",
"397.666 -4 OFFCURVE",
"422.242 8.722 OFFCURVE",
"446 29 CURVE",
"428 85 LINE",
"422.928 84.521 OFFCURVE",
"418.144 83 OFFCURVE",
"413 83 CURVE SMOOTH",
"398.422 83 OFFCURVE",
"395 92.264 OFFCURVE",
"395 105 CURVE SMOOTH",
"395 330 LINE SMOOTH {name = hr00;}",
"395 436.642 OFFCURVE",
"325.935 491 OFFCURVE",
"223 491 CURVE SMOOTH {name = av01;}"
);
},
{
closed = 1;
nodes = (
"170.897 92 OFFCURVE",
"153 110.968 OFFCURVE",
"153 138 CURVE SMOOTH",
"153 192.779 OFFCURVE",
"233.58 201.872 OFFCURVE",
"274 204 CURVE",
"274 139 LINE",
"260.443 110.206 OFFCURVE",
"229.331 92 OFFCURVE",
"198 92 CURVE SMOOTH"
);
},
{
closed = 1;
nodes = (
"89 630 LINE",
"166 736 LINE",
"202 722 LINE",
"328 561 LINE",
"282 509 LINE {name = mh01;}"
);
}
);
visible = 1;
width = 463;
}
);
leftKerningGroup = a;
rightKerningGroup = a;
unicode = 00E0;
userData = {
com.typemytype.robofont.mark = (
0.713,
0.6,
1,
1
);
};
},
{
glyphname = ae;
lastChange = "2018-07-24 20:48:32 +0000";
layers = (
{
layerId = "1178ECA0-A987-4969-BD6E-681EE9C1B9C8";
paths = (
{
closed = 1;
nodes = (
"256 -4 OFFCURVE",
"329 35 OFFCURVE",
"346 79 CURVE",
"382.234 26.515 OFFCURVE",
"440.468 -2 OFFCURVE",
"504 -2 CURVE SMOOTH",
"553.618 -2 OFFCURVE",
"594.881 4.603 OFFCURVE",
"635 36 CURVE",
"617 91 LINE",
"591.251 66.986 OFFCURVE",
"554.628 56 OFFCURVE",
"520 56 CURVE SMOOTH",
"427.312 56 OFFCURVE",
"374.744 120.746 OFFCURVE",
"369 209 CURVE",
"383 209 LINE",
"491 209 OFFCURVE",
"664 206 OFFCURVE",
"664 352 CURVE SMOOTH",
"664 443.405 OFFCURVE",
"593.965 481 OFFCURVE",
"511 481 CURVE SMOOTH {name = mh03;}",
"447.989 481 OFFCURVE",
"390.284 449.146 OFFCURVE",
"353 399 CURVE",
"326.981 458.879 OFFCURVE",
"268.59 479 OFFCURVE",
"207 479 CURVE SMOOTH {name = mh02;}",
"141.857 479 OFFCURVE",
"58.599 442.672 OFFCURVE",
"48 371 CURVE",
"130 356 LINE",
"146 409 LINE",
"158.784 420.099 OFFCURVE",
"189.448 422 OFFCURVE",
"206 422 CURVE SMOOTH {name = mh01;}",
"243.866 422 OFFCURVE",
"303 397.406 OFFCURVE",
"303 352 CURVE SMOOTH {name = hr00;}",
"303 267 LINE",
"197.555 267 OFFCURVE",
"41 267.192 OFFCURVE",
"41 123 CURVE SMOOTH",
"41 38.896 OFFCURVE",
"120.992 -4 OFFCURVE",
"196 -4 CURVE SMOOTH"
);
},
{
closed = 1;
nodes = (
"148.898 54 OFFCURVE",
"107 82.676 OFFCURVE",
"107 133 CURVE SMOOTH",
"107 212.155 OFFCURVE",
"214.008 211 OFFCURVE",
"270 211 CURVE SMOOTH",
"303 211 LINE",
"303 107 LINE",
"281.046 71.13 OFFCURVE",
"236.33 54 OFFCURVE",
"196 54 CURVE SMOOTH"
);
},
{
closed = 1;
nodes = (
"371 267 LINE",
"378.576 342.808 OFFCURVE",
"421.734 423 OFFCURVE",
"508 423 CURVE SMOOTH {name = mh04;}",
"554.931 423 OFFCURVE",
"598 396.942 OFFCURVE",
"598 346 CURVE SMOOTH",
"598 271.407 OFFCURVE",
"480.068 266 OFFCURVE",
"427 266 CURVE"
);
}
);
width = 698;
},
{
layerId = "753CA70B-25C4-47AF-A15F-390B5E4CCE16";
paths = (
{
closed = 1;
nodes = (
"232.851 -4 OFFCURVE",
"289.542 29.144 OFFCURVE",
"325 75 CURVE",
"368.141 21.099 OFFCURVE",
"435.208 -4 OFFCURVE",
"503 -4 CURVE SMOOTH",
"551.537 -4 OFFCURVE",
"633.388 16.321 OFFCURVE",
"666 56 CURVE",
"643 143 LINE",
"612.426 113.894 OFFCURVE",
"559.198 91 OFFCURVE",
"517 91 CURVE SMOOTH",
"449.472 91 OFFCURVE",
"410.529 133.303 OFFCURVE",
"402 198 CURVE",
"453 197 LINE",
"558.661 197 OFFCURVE",
"667 228.292 OFFCURVE",
"667 354 CURVE SMOOTH",
"667 441.328 OFFCURVE",
"577.286 491 OFFCURVE",
"499 491 CURVE SMOOTH {name = hr00;}",
"447.624 491 OFFCURVE",
"395.845 475.012 OFFCURVE",
"356 442 CURVE",
"322.06 477.925 OFFCURVE",
"271.018 491 OFFCURVE",
"223 491 CURVE SMOOTH",
"143.55 491 OFFCURVE",
"63.107 448.41 OFFCURVE",
"30 374 CURVE",
"154 320 LINE",
"180 394 LINE",
"189.269 397.352 OFFCURVE",
"199.314 397 OFFCURVE",
"209 397 CURVE SMOOTH",
"225.721 397 OFFCURVE",
"274 392.252 OFFCURVE",
"274 367 CURVE SMOOTH",
"274 288 LINE",
"176.885 285.344 OFFCURVE",
"29 251.557 OFFCURVE",
"29 129 CURVE SMOOTH",
"29 43.594 OFFCURVE",
"92.416 -4 OFFCURVE",
"174 -4 CURVE SMOOTH"
);
},
{
closed = 1;
nodes = (
"170.709 92 OFFCURVE",
"153 111.139 OFFCURVE",
"153 138 CURVE SMOOTH",
"153 189 OFFCURVE",
"222 204 OFFCURVE",
"264 204 CURVE SMOOTH",
"274 204 LINE",
"274 140 LINE",
"262.082 111.081 OFFCURVE",
"228.526 92 OFFCURVE",
"198 92 CURVE SMOOTH"
);
},
{
closed = 1;
nodes = (
"403 282 LINE",
"407.086 332.479 OFFCURVE",
"443.831 397 OFFCURVE",
"501 397 CURVE SMOOTH",
"529.633 397 OFFCURVE",
"546 377.983 OFFCURVE",
"546 350 CURVE SMOOTH",
"546 293.856 OFFCURVE",
"480.11 281 OFFCURVE",
"436 281 CURVE"
);
}
);
width = 698;
}
);
leftKerningGroup = a;
rightKerningGroup = e;
unicode = 00E6;
userData = {
com.typemytype.robofont.mark = (
0.713,
0.6,
1,
1
);
};
},
{
glyphname = b;
lastChange = "2018-07-24 20:46:43 +0000";
layers = (
{
layerId = "1178ECA0-A987-4969-BD6E-681EE9C1B9C8";
paths = (
{
closed = 1;
nodes = (
"127 22 LINE",
"159.578 2.995 OFFCURVE",
"197.617 -4 OFFCURVE",
"235 -4 CURVE SMOOTH",
"375.541 -4 OFFCURVE",
"442 114.305 OFFCURVE",
"442 242 CURVE SMOOTH",
"442 363.111 OFFCURVE",
"382.009 479 OFFCURVE",
"247 479 CURVE SMOOTH",
"208.065 479 OFFCURVE",
"168.339 466.823 OFFCURVE",
"138 442 CURVE",
"138 697 LINE {name = hr00;}",
"111 727 LINE {name = mh01;}",
"6 709 LINE",
"14 657 LINE",
"75 661 LINE",
"75 20 LINE",
"98 0 LINE"
);
},
{
closed = 1;
nodes = (
"198.886 53 OFFCURVE",
"164.775 63.577 OFFCURVE",
"138 85 CURVE",
"138 371 LINE",
"157.47 402.982 OFFCURVE",
"204.673 422 OFFCURVE",
"241 422 CURVE SMOOTH",
"342.136 422 OFFCURVE",
"376 322.357 OFFCURVE",
"376 237 CURVE SMOOTH",
"376 144.809 OFFCURVE",
"339.152 53 OFFCURVE",
"233 53 CURVE SMOOTH"
);
}
);
width = 484;
},
{
layerId = "753CA70B-25C4-47AF-A15F-390B5E4CCE16";
paths = (
{
closed = 1;
nodes = (
"149 17 LINE",
"178.29 1.234 OFFCURVE",
"212.07 -4 OFFCURVE",
"245 -4 CURVE SMOOTH",
"401.83 -4 OFFCURVE",
"468 106.757 OFFCURVE",
"468 251 CURVE SMOOTH",
"468 374.681 OFFCURVE",
"409.472 491 OFFCURVE",
"271 491 CURVE SMOOTH {name = mh01;}",
"240.686 491 OFFCURVE",
"211.292 485.63 OFFCURVE",
"184 472 CURVE",
"184 701 LINE",
"150 736 LINE",
"1 716 LINE",
"12 648 LINE {name = hr00;}",
"64 651 LINE",
"64 23 LINE",
"96 -4 LINE"
);
},
{
closed = 1;
nodes = (
"227.162 90 OFFCURVE",
"199.021 93.078 OFFCURVE",
"184 103 CURVE",
"184 379 LINE",
"201.87 391.973 OFFCURVE",
"225.249 397 OFFCURVE",
"247 397 CURVE SMOOTH",
"327.164 397 OFFCURVE",
"344 308.597 OFFCURVE",
"344 246 CURVE SMOOTH {name = mh03;}",
"344 183.106 OFFCURVE",
"326.15 90 OFFCURVE",
"245 90 CURVE SMOOTH"
);
}
);
width = 499;
}
);
rightKerningGroup = b;
unicode = 0062;
userData = {
com.typemytype.robofont.mark = (
0.713,
0.6,
1,
1
);
};
},
{
glyphname = c;
lastChange = "2018-07-24 20:41:42 +0000";
layers = (
{
layerId = "1178ECA0-A987-4969-BD6E-681EE9C1B9C8";
paths = (
{
closed = 1;
nodes = (
"292.516 -4 OFFCURVE",
"340.845 3.187 OFFCURVE",
"377 31 CURVE",
"360 80 LINE",
"328.11 61.393 OFFCURVE",
"294.889 53 OFFCURVE",
"258 53 CURVE SMOOTH",
"148.472 53 OFFCURVE",
"109 133.559 OFFCURVE",
"109 232 CURVE SMOOTH",
"109 321.879 OFFCURVE",
"135.591 422 OFFCURVE",
"244 422 CURVE SMOOTH",
"280 422 LINE",
"339 373 LINE {name = hr00;}",
"383 442 LINE",
"346.874 468.581 OFFCURVE",
"293.057 479 OFFCURVE",
"249 479 CURVE SMOOTH",
"104.383 479 OFFCURVE",
"43 363.651 OFFCURVE",
"43 233 CURVE SMOOTH",
"43 104.52 OFFCURVE",
"108.718 -4 OFFCURVE",
"248 -4 CURVE SMOOTH"
);
}
);
width = 405;
},
{
layerId = "753CA70B-25C4-47AF-A15F-390B5E4CCE16";
paths = (
{
closed = 1;
nodes = (
"305.064 -4 OFFCURVE",
"367.594 10.602 OFFCURVE",
"408 52 CURVE {name = hr00;}",
"382 139 LINE",
"350.542 110.926 OFFCURVE",
"313.18 91 OFFCURVE",
"270 91 CURVE SMOOTH",
"185.456 91 OFFCURVE",
"154 164.01 OFFCURVE",
"154 238 CURVE SMOOTH",
"154 297 OFFCURVE",
"171 397 OFFCURVE",
"249 397 CURVE",
"251 397 LINE",
"294 337 LINE",
"415 402 LINE",
"384.678 463.164 OFFCURVE",
"312.768 491 OFFCURVE",
"248 491 CURVE SMOOTH",
"95.647 491 OFFCURVE",
"30 373.16 OFFCURVE",
"30 233 CURVE SMOOTH",
"30 101.582 OFFCURVE",
"112.266 -4 OFFCURVE",
"249 -4 CURVE SMOOTH"
);
}
);
width = 431;
}
);
leftKerningGroup = o;
rightKerningGroup = c;
unicode = 0063;
userData = {
com.typemytype.robofont.mark = (
0.713,
0.6,
1,
1
);
};
},
{
glyphname = d;
lastChange = "2018-07-24 20:36:09 +0000";
layers = (
{
layerId = "1178ECA0-A987-4969-BD6E-681EE9C1B9C8";
paths = (
{
closed = 1;
nodes = (
"281.394 -4 OFFCURVE",
"321.158 8.836 OFFCURVE",
"352 37 CURVE",
"360.67 9.24 OFFCURVE",
"379.229 -4 OFFCURVE",
"408 -4 CURVE SMOOTH",
"426.009 -4 OFFCURVE",
"450.933 1.935 OFFCURVE",
"464 15 CURVE",
"453 55 LINE",
"446.366 52.349 OFFCURVE",
"439.217 50 OFFCURVE",
"432 50 CURVE SMOOTH",
"414.021 50 OFFCURVE",
"409 62.933 OFFCURVE",
"409 79 CURVE SMOOTH",
"409 697 LINE",
"382 727 LINE {name = mh01;}",
"277 709 LINE",
"285 657 LINE {name = hr00;}",
"346 661 LINE",
"346 459 LINE",
"315.306 472.636 OFFCURVE",
"283.517 479 OFFCURVE",
"250 479 CURVE SMOOTH {name = mh02;}",
"107.659 479 OFFCURVE",
"42 365.076 OFFCURVE",
"42 235 CURVE SMOOTH",
"42 115.22 OFFCURVE",
"107.216 -4 OFFCURVE",
"240 -4 CURVE SMOOTH"
);
},
{
closed = 1;
nodes = (
"144.175 53 OFFCURVE",
"108 152.487 OFFCURVE",
"108 239 CURVE SMOOTH",
"108 332.191 OFFCURVE",
"148.455 422 OFFCURVE",
"254 422 CURVE SMOOTH {name = mh03;}",
"287.692 422 OFFCURVE",
"322.865 412.866 OFFCURVE",
"346 387 CURVE",
"346 104 LINE",
"324.702 70.71 OFFCURVE",
"284.839 53 OFFCURVE",
"246 53 CURVE SMOOTH"
);
}
);
width = 495;
},
{
layerId = "753CA70B-25C4-47AF-A15F-390B5E4CCE16";
paths = (
{
closed = 1;
nodes = (
"260.344 -4 OFFCURVE",
"300.59 7.196 OFFCURVE",
"327 38 CURVE",
"343.284 7.572 OFFCURVE",
"372.712 -4 OFFCURVE",
"406 -4 CURVE SMOOTH",
"439.85 -4 OFFCURVE",
"472.592 11.869 OFFCURVE",
"495 37 CURVE",
"476 89 LINE",
"469.537 85.622 OFFCURVE",
"461.309 83 OFFCURVE",
"454 83 CURVE SMOOTH",
"440.517 83 OFFCURVE",
"435 92.253 OFFCURVE",
"435 105 CURVE SMOOTH",
"435 700 LINE",
"400 737 LINE",
"252 716 LINE",
"263 648 LINE",
"314 648 LINE {name = hr00;}",
"314 478 LINE",
"291.448 487.045 OFFCURVE",
"267.242 491 OFFCURVE",
"243 491 CURVE SMOOTH",
"95.657 491 OFFCURVE",
"31 367.579 OFFCURVE",
"31 234 CURVE SMOOTH",
"31 116.119 OFFCURVE",
"87.778 -4 OFFCURVE",
"221 -4 CURVE SMOOTH"
);
},
{
closed = 1;
nodes = (
"169.102 91 OFFCURVE",
"155 174.312 OFFCURVE",
"155 233 CURVE SMOOTH",
"155 299.598 OFFCURVE",
"168.929 398 OFFCURVE",
"255 398 CURVE SMOOTH",
"275.259 398 OFFCURVE",
"298.211 391.006 OFFCURVE",
"314 378 CURVE",
"314 140 LINE",
"314 114.105 OFFCURVE",
"266.224 91 OFFCURVE",
"244 91 CURVE SMOOTH"
);
}
);
width = 514;
}
);
leftKerningGroup = d;
unicode = 0064;
userData = {
com.typemytype.robofont.mark = (
0.713,
0.6,
1,
1
);
};
},
{
glyphname = eth;
lastChange = "2018-07-24 17:23:46 +0000";
layers = (
{
layerId = "1178ECA0-A987-4969-BD6E-681EE9C1B9C8";
paths = (
{
closed = 1;
nodes = (
"418.851 -4 OFFCURVE",
"459 162.834 OFFCURVE",
"459 298 CURVE SMOOTH {name = av02;}",
"459 399.088 OFFCURVE",
"429.264 491.94 OFFCURVE",
"370 574 CURVE",
"483 633 LINE",
"450 692 LINE",
"331 622 LINE",
"290.136 665.271 OFFCURVE",
"241.614 701.955 OFFCURVE",
"188 728 CURVE {name = av01;}",
"159 675 LINE",
"201.235 651.695 OFFCURVE",
"240.857 623.144 OFFCURVE",
"275 589 CURVE",
"169 528 LINE {name = hr00;}",
"197 482 LINE",
"314 544 LINE",
"344.042 504.4 OFFCURVE",
"365.369 459.007 OFFCURVE",
"378 411 CURVE",
"337.938 445.821 OFFCURVE",
"289.004 458 OFFCURVE",
"237 458 CURVE SMOOTH",
"109.672 458 OFFCURVE",
"43 347.651 OFFCURVE",
"43 231 CURVE SMOOTH",
"43 100.456 OFFCURVE",
"113.772 -4 OFFCURVE",
"253 -4 CURVE SMOOTH"
);
},
{
closed = 1;
nodes = (
"148.402 53 OFFCURVE",
"111 143.026 OFFCURVE",
"111 230 CURVE SMOOTH",
"111 311.387 OFFCURVE",
"146.375 401 OFFCURVE",
"241 401 CURVE SMOOTH",
"309.166 401 OFFCURVE",
"390 350.548 OFFCURVE",
"390 275 CURVE SMOOTH",
"390 182.87 OFFCURVE",
"364.712 53 OFFCURVE",
"249 53 CURVE SMOOTH"
);
}
);
width = 511;
},
{
layerId = "753CA70B-25C4-47AF-A15F-390B5E4CCE16";
paths = (
{
closed = 1;
nodes = (
"443.191 -4 OFFCURVE",
"510 161.762 OFFCURVE",
"510 326 CURVE SMOOTH",
"510 429.567 OFFCURVE",
"468.663 519.532 OFFCURVE",
"399 595 CURVE",
"462 633 LINE {name = mh02;}",
"396 735 LINE {name = mh01;}",
"313 669 LINE",
"273.768 697.2 OFFCURVE",
"230.109 718.886 OFFCURVE",
"185 736 CURVE {name = hr00;}",
"133 615 LINE",
"156.743 604.822 OFFCURVE",
"180.348 594.461 OFFCURVE",
"203 582 CURVE",
"133 526 LINE {name = mh04;}",
"170 459 LINE",
"283 526 LINE {name = mv01;}",
"321.113 494.693 OFFCURVE",
"352.174 454.602 OFFCURVE",
"369 408 CURVE",
"332.879 442.293 OFFCURVE",
"284.655 455 OFFCURVE",
"236 455 CURVE SMOOTH",
"100.736 455 OFFCURVE",
"29 343.088 OFFCURVE",
"29 218 CURVE SMOOTH {name = mh03;}",
"29 89.528 OFFCURVE",
"126.611 -4 OFFCURVE",
"254 -4 CURVE SMOOTH"
);
},
{
closed = 1;
nodes = (
"198.011 101 OFFCURVE",
"155 164.657 OFFCURVE",
"155 225 CURVE SMOOTH",
"155 297.468 OFFCURVE",
"187.931 356 OFFCURVE",
"267 356 CURVE SMOOTH",
"320.367 356 OFFCURVE",
"381 311.673 OFFCURVE",
"381 254 CURVE SMOOTH",
"381 182.186 OFFCURVE",
"343.766 101 OFFCURVE",
"263 101 CURVE SMOOTH"
);
}
);
width = 545;
}
);
unicode = 00F0;
userData = {
com.typemytype.robofont.mark = (
0.713,
0.6,
1,
1
);
};
},
{
glyphname = e;
lastChange = "2018-07-24 17:25:02 +0000";
layers = (
{
layerId = "1178ECA0-A987-4969-BD6E-681EE9C1B9C8";
paths = (
{
closed = 1;
nodes = (
"307.207 -4 OFFCURVE",
"358.271 5.229 OFFCURVE",
"398 34 CURVE",
"381 88 LINE",
"348.021 63.629 OFFCURVE",
"304.678 52 OFFCURVE",
"264 52 CURVE SMOOTH {name = hr00;}",
"177.097 52 OFFCURVE",
"125.572 100.407 OFFCURVE",
"111 185 CURVE",
"222.35 185.002 OFFCURVE",
"401 199.606 OFFCURVE",
"401 348 CURVE SMOOTH",
"401 432.374 OFFCURVE",
"330.632 479 OFFCURVE",
"252 479 CURVE SMOOTH {name = mh01;}",
"112.199 479 OFFCURVE",
"42 359.558 OFFCURVE",
"42 232 CURVE SMOOTH",
"42 97.04 OFFCURVE",
"117.318 -4 OFFCURVE",
"259 -4 CURVE SMOOTH"
);
},
{
closed = 1;
nodes = (
"110.363 329.162 OFFCURVE",
"153.803 422 OFFCURVE",
"251 422 CURVE SMOOTH {name = mh02;}",
"296.624 422 OFFCURVE",
"335 396.89 OFFCURVE",
"335 348 CURVE SMOOTH",
"335 247.205 OFFCURVE",
"197.044 244 OFFCURVE",
"125 244 CURVE SMOOTH",
"108 244 LINE"
);
}
);
width = 443;
},
{
layerId = "753CA70B-25C4-47AF-A15F-390B5E4CCE16";
paths = (
{
closed = 1;
nodes = (
"307.182 -4 OFFCURVE",
"387.551 14.521 OFFCURVE",
"420 56 CURVE",
"397 143 LINE",
"360.632 108.669 OFFCURVE",
"327.653 91 OFFCURVE",
"277 91 CURVE SMOOTH",
"205.942 91 OFFCURVE",
"165.152 127.758 OFFCURVE",
"156 198 CURVE",
"265.508 188.083 OFFCURVE",
"424 213.601 OFFCURVE",
"424 354 CURVE SMOOTH",
"424 448.064 OFFCURVE",
"336.404 491 OFFCURVE",
"253 491 CURVE SMOOTH {name = hr00;}",
"108.366 491 OFFCURVE",
"30 373.43 OFFCURVE",
"30 239 CURVE SMOOTH",
"30 103.592 OFFCURVE",
"115.743 -4 OFFCURVE",
"257 -4 CURVE SMOOTH"
);
},
{
closed = 1;
nodes = (
"161.43 332.955 OFFCURVE",
"197.28 396 OFFCURVE",
"255 396 CURVE SMOOTH",
"283.839 396 OFFCURVE",
"301 378.715 OFFCURVE",
"301 350 CURVE SMOOTH",
"301 294.08 OFFCURVE",
"233.987 281 OFFCURVE",
"190 281 CURVE SMOOTH",
"157 282 LINE"
);
}
);
width = 454;
}
);
leftKerningGroup = o;
rightKerningGroup = e;
unicode = 0065;
userData = {
com.typemytype.robofont.mark = (
0.713,
0.6,
1,
1
);
};
},
{
glyphname = f;
lastChange = "2018-07-24 20:25:14 +0000";
layers = (
{
layerId = "1178ECA0-A987-4969-BD6E-681EE9C1B9C8";
paths = (
{
closed = 1;
nodes = (
"274 0 LINE",
"274 45 LINE",
"164 61 LINE",
"164 422 LINE",
"279 422 LINE",
"274 479 LINE",
"164 479 LINE",
"164 608 LINE SMOOTH",
"164 663 OFFCURVE",
"179 670 OFFCURVE",
"230 670 CURVE",
"286 622 LINE",
"335 690 LINE",
"301.177 710.294 OFFCURVE",
"263.051 727 OFFCURVE",
"223 727 CURVE SMOOTH {name = mh01;}",
"75.908 727 OFFCURVE",
"101 583.366 OFFCURVE",
"101 479 CURVE",
"31 479 LINE",
"24 468 LINE",
"38 422 LINE {name = hr00;}",
"101 422 LINE",
"101 58 LINE",
"42 44 LINE",
"50 0 LINE"
);
}
);
width = 311;
},
{
layerId = "753CA70B-25C4-47AF-A15F-390B5E4CCE16";
paths = (
{
closed = 1;
nodes = (
"315 0 LINE",
"316 63 LINE",
"220 74 LINE",
"220 400 LINE {name = hr00;}",
"339 400 LINE",
"339 485 LINE",
"220 491 LINE",
"220 592 LINE SMOOTH",
"220 620.536 OFFCURVE",
"228.802 639.039 OFFCURVE",
"260 639 CURVE {name = mh03;}",
"300 584 LINE",
"414 653 LINE",
"378.83 701.855 OFFCURVE",
"321.851 734 OFFCURVE",
"261 734 CURVE SMOOTH {name = mh02;}",
"124 734 OFFCURVE",
"100 632 OFFCURVE",
"100 491 CURVE",
"19 491 LINE",
"12 481 LINE",
"27 400 LINE",
"99 400 LINE",
"99 76 LINE",
"45 63 LINE {name = mh01;}",
"59 0 LINE"
);
}
);
width = 359;
}
);
unicode = 0066;
userData = {
com.typemytype.robofont.mark = (
0.713,
0.6,
1,
1
);
};
},
{
glyphname = g;
lastChange = "2018-07-24 20:24:07 +0000";
layers = (
{
layerId = "1178ECA0-A987-4969-BD6E-681EE9C1B9C8";
paths = (
{
closed = 1;
nodes = (
"320.405 -265 OFFCURVE",
"421 -207.948 OFFCURVE",
"421 -94 CURVE SMOOTH",
"421 17.734 OFFCURVE",
"319.186 39.955 OFFCURVE",
"231 61 CURVE SMOOTH",
"205.965 66.975 OFFCURVE",
"180.786 74.918 OFFCURVE",
"156 82 CURVE",
"153 103 LINE",
"174 134 LINE",
"190.981 129.756 OFFCURVE",
"208.517 128 OFFCURVE",
"226 128 CURVE SMOOTH",
"329.176 128 OFFCURVE",
"406 199.569 OFFCURVE",
"406 304 CURVE SMOOTH",
"406 338.041 OFFCURVE",
"397.671 372.273 OFFCURVE",
"379 401 CURVE",
"466 412 LINE",
"456 480 LINE",
"437 483 LINE",
"346 438 LINE",
"312.939 466.75 OFFCURVE",
"269.223 479 OFFCURVE",
"226 479 CURVE SMOOTH {name = hr00;}",
"121.882 479 OFFCURVE",
"47 407.991 OFFCURVE",
"47 303 CURVE SMOOTH",
"47 244.924 OFFCURVE",
"69.576 192.746 OFFCURVE",
"118 159 CURVE",
"99.495 139.172 OFFCURVE",
"81 115.334 OFFCURVE",
"81 87 CURVE SMOOTH",
"81 61.356 OFFCURVE",
"93.163 44.878 OFFCURVE",
"114 31 CURVE",
"60.382 5.764 OFFCURVE",
"22 -44.592 OFFCURVE",
"22 -105 CURVE SMOOTH",
"22 -211.831 OFFCURVE",
"121.194 -265 OFFCURVE",
"217 -265 CURVE SMOOTH"
);
},
{
closed = 1;
nodes = (
"162.98 -202 OFFCURVE",
"85 -169.702 OFFCURVE",
"85 -103 CURVE SMOOTH",
"85 -47.527 OFFCURVE",
"129.245 -11.128 OFFCURVE",
"178 6 CURVE",
"237.086 -9.248 OFFCURVE",
"364 -20.994 OFFCURVE",
"364 -102 CURVE SMOOTH",
"364 -172.244 OFFCURVE",
"278.372 -202 OFFCURVE",
"220 -202 CURVE SMOOTH"
);
},
{
closed = 1;
nodes = (
"154.809 185 OFFCURVE",
"113 234.545 OFFCURVE",
"113 304 CURVE SMOOTH",
"113 373.601 OFFCURVE",
"154.992 422 OFFCURVE",
"226 422 CURVE SMOOTH",
"296.846 422 OFFCURVE",
"340 373.772 OFFCURVE",
"340 304 CURVE SMOOTH",
"340 234.372 OFFCURVE",
"297.03 185 OFFCURVE",
"226 185 CURVE SMOOTH"
);
}
);
width = 476;
},
{
layerId = "753CA70B-25C4-47AF-A15F-390B5E4CCE16";
paths = (
{
closed = 1;
nodes = (
"330.823 -272 OFFCURVE",
"449 -210.896 OFFCURVE",
"449 -81 CURVE SMOOTH",
"449 9 OFFCURVE",
"370 43 OFFCURVE",
"290 62 CURVE SMOOTH",
"255 71 OFFCURVE",
"219 76 OFFCURVE",
"190 82 CURVE",
"188 96 LINE",
"206 123 LINE",
"235.308 118.109 OFFCURVE",
"276.765 124.338 OFFCURVE",
"305 133 CURVE SMOOTH",
"382.639 156.818 OFFCURVE",
"432 220.345 OFFCURVE",
"432 302 CURVE SMOOTH",
"432 332.528 OFFCURVE",
"425.256 362.91 OFFCURVE",
"411 390 CURVE",
"504 401 LINE {name = hr01;}",
"493 500 LINE",
"470 503 LINE",
"361 448 LINE",
"324.487 476.401 OFFCURVE",
"278.091 491 OFFCURVE",
"232 491 CURVE SMOOTH {name = hr00;}",
"123.648 491 OFFCURVE",
"33 413.376 OFFCURVE",
"33 302 CURVE SMOOTH",
"33 240.115 OFFCURVE",
"59.013 188.302 OFFCURVE",
"112 155 CURVE",
"88.648 133.108 OFFCURVE",
"75 105.204 OFFCURVE",
"75 73 CURVE SMOOTH",
"75 48.467 OFFCURVE",
"82.122 24.276 OFFCURVE",
"99 6 CURVE",
"49.786 -23.218 OFFCURVE",
"22 -65.156 OFFCURVE",
"22 -123 CURVE SMOOTH",
"22 -227.396 OFFCURVE",
"124.624 -272 OFFCURVE",
"215 -272 CURVE SMOOTH"
);
},
{
closed = 1;
nodes = (
"204.439 -152 OFFCURVE",
"131 -143.887 OFFCURVE",
"131 -93 CURVE SMOOTH",
"131 -66.188 OFFCURVE",
"148.744 -47.519 OFFCURVE",
"170 -34 CURVE",
"238 -57 OFFCURVE",
"353 -57 OFFCURVE",
"353 -98 CURVE SMOOTH",
"353 -139.425 OFFCURVE",
"272.744 -152 OFFCURVE",
"242 -152 CURVE SMOOTH"
);
},
{
closed = 1;
nodes = (
"179.233 216 OFFCURVE",
"157 259.399 OFFCURVE",
"157 307 CURVE SMOOTH",
"157 353.93 OFFCURVE",
"180.093 397 OFFCURVE",
"232 397 CURVE SMOOTH",
"284.439 397 OFFCURVE",
"308 354.688 OFFCURVE",
"308 307 CURVE SMOOTH",
"308 258.479 OFFCURVE",
"285.424 216 OFFCURVE",
"232 216 CURVE SMOOTH {name = hr02;}"
);
}
);
width = 503;
}
);
unicode = 0067;
userData = {
com.typemytype.robofont.mark = (
0.713,
0.6,
1,
1
);
};
},
{
glyphname = h;
lastChange = "2018-07-24 20:22:17 +0000";
layers = (
{
layerId = "1178ECA0-A987-4969-BD6E-681EE9C1B9C8";
paths = (
{
closed = 1;
nodes = (
"207 0 LINE",
"207 45 LINE",
"151 58 LINE",
"151 379 LINE",
"182.339 406.251 OFFCURVE",
"224.477 422 OFFCURVE",
"266 422 CURVE SMOOTH",
"327.228 422 OFFCURVE",
"351 384.644 OFFCURVE",
"351 327 CURVE SMOOTH",
"351 58 LINE",
"291 44 LINE",
"295 0 LINE",
"475 0 LINE",
"475 44 LINE",
"414 58 LINE",
"414 334 LINE SMOOTH",
"414 427.617 OFFCURVE",
"365.323 479 OFFCURVE",
"271 479 CURVE SMOOTH",
"228.404 479 OFFCURVE",
"185.975 465.214 OFFCURVE",
"151 441 CURVE",
"151 697 LINE {name = hr00;}",
"122 727 LINE {name = mh01;}",
"24 710 LINE",
"33 661 LINE",
"88 661 LINE",
"88 58 LINE",
"30 44 LINE",
"35 0 LINE"
);
}
);
width = 498;
},
{
layerId = "753CA70B-25C4-47AF-A15F-390B5E4CCE16";
paths = (
{
closed = 1;
nodes = (
"257 0 LINE",
"258 64 LINE",
"201 75 LINE",
"201 356 LINE {name = mh01;}",
"217.441 377.499 OFFCURVE",
"261.666 393 OFFCURVE",
"288 393 CURVE SMOOTH {name = mv02;}",
"328.771 393 OFFCURVE",
"350 371.614 OFFCURVE",
"350 331 CURVE SMOOTH {name = hr00;}",
"350 75 LINE {name = mv03;}",
"300 64 LINE",
"300 0 LINE",
"525 0 LINE",
"526 64 LINE {name = mh08;}",
"471 76 LINE",
"471 359 LINE SMOOTH {name = mh07;}",
"471 449.225 OFFCURVE",
"399.732 491 OFFCURVE",
"317 491 CURVE SMOOTH {name = mh06;}",
"279.151 491 OFFCURVE",
"231.666 477.588 OFFCURVE",
"201 455 CURVE",
"201 700 LINE {name = mh05;}",
"166 737 LINE",
"18 716 LINE {name = mh04;}",
"28 648 LINE",
"80 648 LINE {name = mh03;}",
"80 77 LINE",
"23 64 LINE {name = mh02;}",
"35 0 LINE"
);
}
);
width = 547;
}
);
leftKerningGroup = h;
rightKerningGroup = n;
unicode = 0068;
userData = {
com.typemytype.robofont.mark = (
0.713,
0.6,
1,
1
);
};
},
{
glyphname = i;
lastChange = "2018-07-24 20:22:33 +0000";
layers = (
{
layerId = "1178ECA0-A987-4969-BD6E-681EE9C1B9C8";
paths = (
{
closed = 1;
nodes = (
"221 0 LINE",
"221 44 LINE",
"160 59 LINE",
"160 451 LINE {name = hr00;}",
"133 481 LINE {name = mh01;}",
"34 463 LINE",
"43 412 LINE",
"97 416 LINE",
"97 58 LINE",
"37 43 LINE",
"46 0 LINE"
);
},
{
closed = 1;
nodes = (
"140.169 619 OFFCURVE",
"164 641.498 OFFCURVE",
"164 671 CURVE SMOOTH",
"164 700.372 OFFCURVE",
"140.372 724 OFFCURVE",
"111 724 CURVE SMOOTH {name = mh02;}",
"81.498 724 OFFCURVE",
"59 700.169 OFFCURVE",
"59 671 CURVE SMOOTH",
"59 641.697 OFFCURVE",
"81.697 619 OFFCURVE",
"111 619 CURVE SMOOTH"
);
}
);
width = 249;
},
{
layerId = "753CA70B-25C4-47AF-A15F-390B5E4CCE16";
paths = (
{
closed = 1;
nodes = (
"264 0 LINE",
"264 64 LINE",
"209 75 LINE",
"209 456 LINE",
"175 492 LINE",
"26 466 LINE",
"37 398 LINE",
"88 398 LINE {name = hr01;}",
"88 77 LINE",
"32 64 LINE",
"43 0 LINE"
);
},
{
closed = 1;
nodes = (
"180.974 590 OFFCURVE",
"213 623.326 OFFCURVE",
"213 663 CURVE SMOOTH",
"213 702.353 OFFCURVE",
"180.344 735 OFFCURVE",
"141 735 CURVE SMOOTH",
"101.785 735 OFFCURVE",
"68 702.52 OFFCURVE",
"68 663 CURVE SMOOTH {name = hr00;}",
"68 623.15 OFFCURVE",
"101.15 590 OFFCURVE",
"141 590 CURVE SMOOTH"
);
}
);
width = 288;
}
);
leftKerningGroup = i;
rightKerningGroup = i;
unicode = 0069;
userData = {
com.typemytype.robofont.mark = (
0.713,
0.6,
1,
1
);
};
},
{
glyphname = j;
lastChange = "2018-07-24 20:19:15 +0000";
layers = (
{
layerId = "1178ECA0-A987-4969-BD6E-681EE9C1B9C8";
paths = (
{
closed = 1;
nodes = (
"127.181 -273 OFFCURVE",
"155 -229.83 OFFCURVE",
"155 -166 CURVE SMOOTH",
"155 451 LINE",
"128 481 LINE {name = mh02;}",
"15 462 LINE",
"23 411 LINE",
"92 416 LINE",
"92 -156 LINE SMOOTH",
"92 -180.337 OFFCURVE",
"92.689 -217 OFFCURVE",
"60 -217 CURVE SMOOTH",
"39.264 -217 OFFCURVE",
"21.173 -204.162 OFFCURVE",
"7 -190 CURVE",
"-26 -238 LINE",
"-4.389 -259.54 OFFCURVE",
"28.585 -273 OFFCURVE",
"59 -273 CURVE SMOOTH"
);
},
{
closed = 1;
nodes = (
"134.169 619 OFFCURVE",
"158 641.498 OFFCURVE",
"158 671 CURVE SMOOTH",
"158 700.372 OFFCURVE",
"134.372 724 OFFCURVE",
"105 724 CURVE SMOOTH {name = mh01;}",
"75.498 724 OFFCURVE",
"53 700.169 OFFCURVE",
"53 671 CURVE SMOOTH {name = hr00;}",
"53 641.697 OFFCURVE",
"75.697 619 OFFCURVE",
"105 619 CURVE SMOOTH"
);
}
);
width = 228;
},
{
layerId = "753CA70B-25C4-47AF-A15F-390B5E4CCE16";
paths = (
{
closed = 1;
nodes = (
"166.779 -268 OFFCURVE",
"200 -194.292 OFFCURVE",
"200 -103 CURVE SMOOTH",
"200 456 LINE {name = hr00;}",
"165 492 LINE",
"17 466 LINE",
"28 398 LINE",
"79 398 LINE",
"79 -105 LINE SMOOTH",
"79 -123.208 OFFCURVE",
"81.916 -161 OFFCURVE",
"55 -161 CURVE SMOOTH",
"44.453 -161 OFFCURVE",
"34.61 -154.749 OFFCURVE",
"27 -148 CURVE",
"-27 -233 LINE",
"-0.839 -255.424 OFFCURVE",
"32.513 -268 OFFCURVE",
"67 -268 CURVE SMOOTH"
);
},
{
closed = 1;
nodes = (
"163.85 590 OFFCURVE",
"197 623.15 OFFCURVE",
"197 663 CURVE SMOOTH",
"197 702.52 OFFCURVE",
"163.215 735 OFFCURVE",
"124 735 CURVE SMOOTH",
"85.105 735 OFFCURVE",
"52 701.895 OFFCURVE",
"52 663 CURVE SMOOTH {name = hr01;}",
"52 623.785 OFFCURVE",
"84.48 590 OFFCURVE",
"124 590 CURVE SMOOTH"
);
}
);
width = 264;
}
);
unicode = 006A;
userData = {
com.typemytype.robofont.mark = (
0.713,
0.6,
1,
1
);
};
},
{
glyphname = k;
lastChange = "2018-07-24 20:17:55 +0000";
layers = (
{
layerId = "1178ECA0-A987-4969-BD6E-681EE9C1B9C8";
paths = (
{
closed = 1;
nodes = (
"207 0 LINE",
"207 45 LINE",
"151 58 LINE",
"151 194 LINE",
"210 250 LINE {name = mh04;}",
"338 0 LINE {name = mh03;}",
"437 0 LINE",
"437 44 LINE",
"385 55 LINE",
"262 297 LINE",
"430 454 LINE",
"416 481 LINE",
"278 481 LINE {name = mh02;}",
"286 434 LINE",
"327 434 LINE",
"151 271 LINE {name = mh01;}",
"151 697 LINE {name = hr00;}",
"124 727 LINE {name = mh07;}",
"24 710 LINE",
"33 661 LINE {name = mh06;}",
"88 661 LINE {name = mh05;}",
"88 58 LINE",
"30 44 LINE",
"35 0 LINE"
);
}
);
width = 458;
},
{
layerId = "753CA70B-25C4-47AF-A15F-390B5E4CCE16";
paths = (
{
closed = 1;
nodes = (
"247 0 LINE",
"248 64 LINE",
"201 75 LINE",
"201 149 LINE",
"250 198 LINE",
"343 0 LINE",
"494 0 LINE",
"493 62 LINE",
"446 73 LINE",
"339 287 LINE",
"478 426 LINE",
"443 491 LINE",
"266 491 LINE",
"276 413 LINE",
"329 413 LINE",
"201 272 LINE",
"201 700 LINE",
"166 737 LINE {name = hr00;}",
"18 716 LINE",
"28 648 LINE",
"80 648 LINE",
"80 77 LINE",
"23 64 LINE",
"35 0 LINE"
);
}
);
width = 509;
}
);
leftKerningGroup = h;
unicode = 006B;
userData = {
com.typemytype.robofont.mark = (
0.713,
0.6,
1,
1
);
};
},
{
glyphname = l;
lastChange = "2018-07-24 15:11:20 +0000";
layers = (
{
layerId = "1178ECA0-A987-4969-BD6E-681EE9C1B9C8";
paths = (
{
closed = 1;
nodes = (
"152 57 LINE",
"213 44 LINE",
"213 0 LINE",
"30 0 LINE",
"25 44 LINE",
"89 58 LINE",
"89 661 LINE",
"34 661 LINE",
"25 710 LINE",
"123 727 LINE {name = mh01;}",
"152 697 LINE {name = hr00;}"
);
}
);
width = 241;
},
{
layerId = "753CA70B-25C4-47AF-A15F-390B5E4CCE16";
paths = (
{
closed = 1;
nodes = (
"16 716 LINE",
"27 648 LINE",
"79 648 LINE",
"79 77 LINE",
"23 63 LINE",
"34 0 LINE",
"265 0 LINE",
"265 63 LINE",
"200 79 LINE",
"200 700 LINE",
"165 737 LINE {name = hr00;}"
);
}
);
width = 284;
}
);
unicode = 006C;
userData = {
com.typemytype.robofont.mark = (
0.713,
0.6,
1,
1
);
};
},
{
glyphname = m;
lastChange = "2018-07-24 20:17:34 +0000";
layers = (
{
layerId = "1178ECA0-A987-4969-BD6E-681EE9C1B9C8";
paths = (
{
closed = 1;
nodes = (
"219 0 LINE",
"219 44 LINE {name = hr02;}",
"158 59 LINE",
"158 380 LINE",
"189.334 407.247 OFFCURVE",
"231.624 422 OFFCURVE",
"273 422 CURVE SMOOTH {name = mh02;}",
"334.228 422 OFFCURVE",
"358 384.645 OFFCURVE",
"358 327 CURVE SMOOTH",
"358 58 LINE",
"298 44 LINE",
"302 0 LINE",
"482 0 LINE",
"482 44 LINE",
"421 58 LINE",
"421 372 LINE",
"454 407 OFFCURVE",
"486.42 422 OFFCURVE",
"535 422 CURVE SMOOTH {name = mh01;}",
"596.228 422 OFFCURVE",
"620 384.645 OFFCURVE",
"620 327 CURVE SMOOTH",
"620 58 LINE {name = hr01;}",
"560 44 LINE",
"564 0 LINE",
"744 0 LINE",
"744 44 LINE",
"683 58 LINE {name = hr00;}",
"683 334 LINE SMOOTH",
"683 430.5 OFFCURVE",
"630.415 479 OFFCURVE",
"535 479 CURVE SMOOTH",
"480.604 479 OFFCURVE",
"437.509 462.276 OFFCURVE",
"395 429 CURVE",
"367.464 466.696 OFFCURVE",
"322.788 479 OFFCURVE",
"278 479 CURVE SMOOTH {name = mh05;}",
"237.02 479 OFFCURVE",
"188.85 462.97 OFFCURVE",
"155 440 CURVE",
"133 481 LINE {name = mh04;}",
"32 463 LINE",
"41 416 LINE {name = mh03;}",
"95 420 LINE",
"95 58 LINE",
"40 43 LINE",
"46 0 LINE"
);
}
);
width = 767;
},
{
layerId = "753CA70B-25C4-47AF-A15F-390B5E4CCE16";
paths = (
{
closed = 1;
nodes = (
"265 0 LINE",
"266 63 LINE",
"209 75 LINE",
"209 356 LINE",
"226.424 376.697 OFFCURVE",
"269.695 393 OFFCURVE",
"296 393 CURVE SMOOTH {name = hr02;}",
"336.826 393 OFFCURVE",
"358 371.982 OFFCURVE",
"358 331 CURVE SMOOTH",
"358 75 LINE {name = hr00;}",
"310 64 LINE",
"310 0 LINE",
"530 0 LINE",
"531 64 LINE",
"478 74 LINE",
"478 356 LINE",
"495.424 376.697 OFFCURVE",
"538.695 393 OFFCURVE",
"565 393 CURVE SMOOTH",
"605.826 393 OFFCURVE",
"627 371.982 OFFCURVE",
"627 331 CURVE SMOOTH",
"627 75 LINE",
"571 63 LINE",
"571 0 LINE",
"798 0 LINE",
"799 64 LINE",
"748 76 LINE",
"748 359 LINE SMOOTH",
"748 448.855 OFFCURVE",
"680.123 491 OFFCURVE",
"597 491 CURVE SMOOTH",
"541.831 491 OFFCURVE",
"492.813 476.683 OFFCURVE",
"448 444 CURVE",
"417.595 478.723 OFFCURVE",
"369.608 491 OFFCURVE",
"325 491 CURVE SMOOTH",
"287.207 491 OFFCURVE",
"239.91 477.19 OFFCURVE",
"209 455 CURVE",
"174 492 LINE {name = hr01;}",
"26 466 LINE",
"37 398 LINE",
"88 398 LINE",
"88 77 LINE",
"30 63 LINE",
"43 0 LINE"
);
}
);
width = 821;
}
);
leftKerningGroup = n;
rightKerningGroup = n;
unicode = 006D;
userData = {
com.typemytype.robofont.mark = (
0.713,
0.6,
1,
1
);
};
},
{
glyphname = n;
lastChange = "2018-07-24 20:15:23 +0000";
layers = (
{
layerId = "1178ECA0-A987-4969-BD6E-681EE9C1B9C8";
paths = (
{
closed = 1;
nodes = (
"219 0 LINE",
"219 44 LINE",
"158 59 LINE",
"158 380 LINE",
"189.332 407.245 OFFCURVE",
"231.622 422 OFFCURVE",
"273 422 CURVE SMOOTH",
"334.229 422 OFFCURVE",
"358 384.642 OFFCURVE",
"358 327 CURVE SMOOTH",
"358 58 LINE",
"298 44 LINE",
"302 0 LINE {name = hr01;}",
"482 0 LINE",
"482 44 LINE",
"421 58 LINE {name = hr00;}",
"421 334 LINE SMOOTH {name = mh04;}",
"421 427.617 OFFCURVE",
"372.323 479 OFFCURVE",
"278 479 CURVE SMOOTH {name = mh03;}",
"233.541 479 OFFCURVE",
"191.439 465.385 OFFCURVE",
"155 440 CURVE",
"133 481 LINE {name = mh02;}",
"32 463 LINE {name = hr02;}",
"41 416 LINE {name = mh01;}",
"95 420 LINE",
"95 58 LINE",
"40 43 LINE",
"46 0 LINE"
);
}
);
width = 505;
},
{
layerId = "753CA70B-25C4-47AF-A15F-390B5E4CCE16";
paths = (
{
closed = 1;
nodes = (
"265 0 LINE",
"266 63 LINE",
"209 75 LINE",
"209 356 LINE",
"226.424 376.697 OFFCURVE",
"269.695 393 OFFCURVE",
"296 393 CURVE SMOOTH {name = hr01;}",
"336.826 393 OFFCURVE",
"358 371.982 OFFCURVE",
"358 331 CURVE SMOOTH",
"358 75 LINE",
"308 64 LINE",
"308 0 LINE",
"533 0 LINE",
"534 64 LINE",
"479 73 LINE",
"479 359 LINE SMOOTH",
"479 449.721 OFFCURVE",
"408.049 491 OFFCURVE",
"325 491 CURVE SMOOTH {name = hr02;}",
"287.207 491 OFFCURVE",
"239.91 477.19 OFFCURVE",
"209 455 CURVE",
"174 492 LINE {name = hr00;}",
"26 466 LINE",
"37 398 LINE",
"88 398 LINE",
"88 77 LINE",
"32 64 LINE",
"43 0 LINE"
);
}
);
width = 555;
}
);
leftKerningGroup = n;
rightKerningGroup = n;
unicode = 006E;
userData = {
com.typemytype.robofont.mark = (
0.713,
0.6,
1,
1
);
};
},
{
glyphname = o;
lastChange = "2018-07-24 15:11:20 +0000";
layers = (
{
layerId = "1178ECA0-A987-4969-BD6E-681EE9C1B9C8";
paths = (
{
closed = 1;
nodes = (
"42 363.573 OFFCURVE",
"107.685 481 OFFCURVE",
"244 481 CURVE SMOOTH {name = mh01;}",
"383.247 481 OFFCURVE",
"447 366.749 OFFCURVE",
"447 240 CURVE SMOOTH",
"447 113.92 OFFCURVE",
"383.852 -4 OFFCURVE",
"244 -4 CURVE SMOOTH",
"106.388 -4 OFFCURVE",
"42 116.151 OFFCURVE",
"42 240 CURVE SMOOTH {name = hr00;}"
);
},
{
closed = 1;
nodes = (
"108 143.56 OFFCURVE",
"147.207 54 OFFCURVE",
"244 54 CURVE SMOOTH",
"346.029 54 OFFCURVE",
"381 147.545 OFFCURVE",
"381 235 CURVE SMOOTH",
"381 320.026 OFFCURVE",
"344.709 423 OFFCURVE",
"244 423 CURVE SMOOTH {name = mh02;}",
"144.98 423 OFFCURVE",
"108 310.397 OFFCURVE",
"108 228 CURVE SMOOTH"
);
}
);
width = 489;
},
{
layerId = "753CA70B-25C4-47AF-A15F-390B5E4CCE16";
paths = (
{
closed = 1;
nodes = (
"29 116.006 OFFCURVE",
"109.773 -4 OFFCURVE",
"249 -4 CURVE SMOOTH",
"388.18 -4 OFFCURVE",
"470 115.724 OFFCURVE",
"470 246 CURVE SMOOTH",
"470 377.067 OFFCURVE",
"387.429 491 OFFCURVE",
"249 491 CURVE SMOOTH",
"110.517 491 OFFCURVE",
"29 376.79 OFFCURVE",
"29 246 CURVE SMOOTH {name = hr00;}"
);
},
{
closed = 1;
nodes = (
"153 301.919 OFFCURVE",
"168.824 397 OFFCURVE",
"249 397 CURVE SMOOTH",
"329.958 397 OFFCURVE",
"346 302.875 OFFCURVE",
"346 240 CURVE SMOOTH",
"346 175.272 OFFCURVE",
"330.178 90 OFFCURVE",
"249 90 CURVE SMOOTH",
"168.568 90 OFFCURVE",
"153 176.235 OFFCURVE",
"153 240 CURVE SMOOTH"
);
}
);
width = 499;
}
);
leftKerningGroup = o;
rightKerningGroup = o;
unicode = 006F;
userData = {
com.typemytype.robofont.mark = (
0.713,
0.6,
1,
1
);
};
},
{
glyphname = oe;
lastChange = "2018-07-24 20:13:11 +0000";
layers = (
{
layerId = "1178ECA0-A987-4969-BD6E-681EE9C1B9C8";
paths = (
{
closed = 1;
nodes = (
"319.711 -4 OFFCURVE",
"378.013 28.507 OFFCURVE",
"414 96 CURVE",
"453.954 26.835 OFFCURVE",
"520.151 -3 OFFCURVE",
"598 -3 CURVE SMOOTH",
"646.207 -3 OFFCURVE",
"697.27 6.228 OFFCURVE",
"737 35 CURVE",
"720 89 LINE",
"687.02 64.629 OFFCURVE",
"643.679 53 OFFCURVE",
"603 53 CURVE SMOOTH",
"516.108 53 OFFCURVE",
"464.571 101.393 OFFCURVE",
"450 186 CURVE",
"563.672 186 OFFCURVE",
"740 196.879 OFFCURVE",
"740 349 CURVE SMOOTH",
"740 433.462 OFFCURVE",
"669.543 480 OFFCURVE",
"591 480 CURVE SMOOTH",
"516.643 480 OFFCURVE",
"454.851 438.186 OFFCURVE",
"418 375 CURVE",
"383.068 446.401 OFFCURVE",
"322.542 481 OFFCURVE",
"244 481 CURVE SMOOTH {name = ah01;}",
"107.685 481 OFFCURVE",
"42 363.573 OFFCURVE",
"42 240 CURVE SMOOTH {name = hr00;}",
"42 116.215 OFFCURVE",
"106.345 -4 OFFCURVE",
"244 -4 CURVE SMOOTH"
);
},
{
closed = 1;
nodes = (
"147.207 54 OFFCURVE",
"108 143.56 OFFCURVE",
"108 228 CURVE SMOOTH",
"108 310.397 OFFCURVE",
"144.98 423 OFFCURVE",
"244 423 CURVE SMOOTH {name = ah02;}",
"344.709 423 OFFCURVE",
"381 320.026 OFFCURVE",
"381 235 CURVE SMOOTH",
"381 148.197 OFFCURVE",
"345.203 54 OFFCURVE",
"244 54 CURVE SMOOTH"
);
},
{
closed = 1;
nodes = (
"449.363 330.162 OFFCURVE",
"492.803 423 OFFCURVE",
"590 423 CURVE SMOOTH {name = ah03;}",
"635.624 423 OFFCURVE",
"674 397.89 OFFCURVE",
"674 349 CURVE SMOOTH",
"674 248.205 OFFCURVE",
"536.044 245 OFFCURVE",
"464 245 CURVE SMOOTH",
"447 245 LINE"
);
}
);
width = 782;
},
{
layerId = "753CA70B-25C4-47AF-A15F-390B5E4CCE16";
paths = (
{
closed = 1;
nodes = (
"309.267 -4 OFFCURVE",
"365.483 21.678 OFFCURVE",
"406 66 CURVE",
"449.514 19.844 OFFCURVE",
"509.876 -4 OFFCURVE",
"573 -4 CURVE SMOOTH",
"623.208 -4 OFFCURVE",
"703.551 14.52 OFFCURVE",
"736 56 CURVE",
"713 143 LINE",
"676.68 108.716 OFFCURVE",
"643.648 91 OFFCURVE",
"593 91 CURVE SMOOTH",
"521.813 91 OFFCURVE",
"481.136 127.862 OFFCURVE",
"472 198 CURVE",
"581.524 188.082 OFFCURVE",
"740 213.601 OFFCURVE",
"740 354 CURVE SMOOTH",
"740 448.061 OFFCURVE",
"652.409 491 OFFCURVE",
"569 491 CURVE SMOOTH {name = hr00;}",
"507.047 491 OFFCURVE",
"449.914 466.732 OFFCURVE",
"408 421 CURVE",
"366.966 465.887 OFFCURVE",
"309.857 491 OFFCURVE",
"249 491 CURVE SMOOTH",
"110.765 491 OFFCURVE",
"29 375.735 OFFCURVE",
"29 246 CURVE SMOOTH",
"29 116.422 OFFCURVE",
"109.262 -4 OFFCURVE",
"249 -4 CURVE SMOOTH"
);
},
{
closed = 1;
nodes = (
"168.033 90 OFFCURVE",
"153 176.392 OFFCURVE",
"153 240 CURVE SMOOTH",
"153 302.219 OFFCURVE",
"168.448 397 OFFCURVE",
"249 397 CURVE SMOOTH",
"330.542 397 OFFCURVE",
"346 303.178 OFFCURVE",
"346 240 CURVE SMOOTH",
"346 175.404 OFFCURVE",
"330.867 90 OFFCURVE",
"249 90 CURVE SMOOTH"
);
},
{
closed = 1;
nodes = (
"477.43 332.955 OFFCURVE",
"513.28 396 OFFCURVE",
"571 396 CURVE SMOOTH",
"599.839 396 OFFCURVE",
"617 378.715 OFFCURVE",
"617 350 CURVE SMOOTH",
"617 294.08 OFFCURVE",
"549.987 281 OFFCURVE",
"506 281 CURVE SMOOTH",
"473 282 LINE"
);
}
);
width = 770;
}
);
leftKerningGroup = o;
rightKerningGroup = e;
unicode = 0153;
userData = {
com.typemytype.robofont.mark = (
0.713,
0.6,
1,
1
);
};
},
{
glyphname = p;
lastChange = "2018-07-24 20:11:02 +0000";
layers = (
{
layerId = "1178ECA0-A987-4969-BD6E-681EE9C1B9C8";
paths = (
{
closed = 1;
nodes = (
"275 -273 LINE",
"275 -229 LINE",
"154 -208 LINE",
"154 16 LINE",
"183.974 1.012 OFFCURVE",
"217.755 -4 OFFCURVE",
"251 -4 CURVE SMOOTH",
"391.54 -4 OFFCURVE",
"458 114.304 OFFCURVE",
"458 242 CURVE SMOOTH {name = hr01;}",
"458 363.105 OFFCURVE",
"398.014 479 OFFCURVE",
"263 479 CURVE SMOOTH {name = mh02;}",
"224.597 479 OFFCURVE",
"185.218 467.702 OFFCURVE",
"154 445 CURVE",
"127 481 LINE {name = mh01;}",
"22 463 LINE",
"30 412 LINE {name = hr00;}",
"91 416 LINE",
"91 -215 LINE",
"32 -229 LINE",
"41 -273 LINE"
);
},
{
closed = 1;
nodes = (
"214.886 53 OFFCURVE",
"180.775 63.577 OFFCURVE",
"154 85 CURVE",
"154 371 LINE",
"173.47 402.982 OFFCURVE",
"220.673 422 OFFCURVE",
"257 422 CURVE SMOOTH",
"358.136 422 OFFCURVE",
"392 322.357 OFFCURVE",
"392 237 CURVE SMOOTH",
"392 144.809 OFFCURVE",
"355.152 53 OFFCURVE",
"249 53 CURVE SMOOTH"
);
}
);
width = 500;
},
{
layerId = "753CA70B-25C4-47AF-A15F-390B5E4CCE16";
paths = (
{
closed = 1;
nodes = (
"318 -273 LINE",
"319 -208 LINE",
"201 -182 LINE",
"201 4 LINE",
"220.559 -1.17 OFFCURVE",
"240.758 -4 OFFCURVE",
"261 -4 CURVE SMOOTH",
"416.781 -4 OFFCURVE",
"484 104.714 OFFCURVE",
"484 251 CURVE SMOOTH",
"484 375.469 OFFCURVE",
"425.607 491 OFFCURVE",
"287 491 CURVE SMOOTH",
"252.951 491 OFFCURVE",
"219.237 483.883 OFFCURVE",
"189 468 CURVE",
"166 491 LINE {name = hr00;}",
"16 467 LINE",
"29 395 LINE",
"80 402 LINE",
"80 -195 LINE",
"29 -210 LINE",
"45 -273 LINE"
);
},
{
closed = 1;
nodes = (
"242.879 90 OFFCURVE",
"216.565 93.051 OFFCURVE",
"201 103 CURVE",
"201 379 LINE",
"218.873 392.024 OFFCURVE",
"242.224 397 OFFCURVE",
"264 397 CURVE SMOOTH",
"342.763 397 OFFCURVE",
"360 308.049 OFFCURVE",
"360 246 CURVE SMOOTH",
"360 183.219 OFFCURVE",
"340.883 90 OFFCURVE",
"261 90 CURVE SMOOTH"
);
}
);
width = 515;
}
);
rightKerningGroup = b;
unicode = 0070;
userData = {
com.typemytype.robofont.mark = (
0.713,
0.6,
1,
1
);
};
},
{
glyphname = thorn;
lastChange = "2018-07-24 20:10:43 +0000";
layers = (
{
layerId = "1178ECA0-A987-4969-BD6E-681EE9C1B9C8";
paths = (
{
closed = 1;
nodes = (
"259 -273 LINE",
"259 -229 LINE",
"138 -208 LINE",
"138 -18 OFFCURVE",
"135 2 OFFCURVE",
"135 24 CURVE",
"167.129 3.118 OFFCURVE",
"201.113 -4 OFFCURVE",
"239 -4 CURVE SMOOTH",
"379.844 -4 OFFCURVE",
"444 117.476 OFFCURVE",
"444 243 CURVE SMOOTH",
"444 360.637 OFFCURVE",
"379.517 481 OFFCURVE",
"248 481 CURVE SMOOTH",
"208.694 481 OFFCURVE",
"168.291 470.21 OFFCURVE",
"138 444 CURVE",
"138 706 LINE",
"111 735 LINE {name = mv01;}",
"6 717 LINE",
"14 666 LINE {name = hr00;}",
"75 670 LINE",
"75 -215 LINE",
"16 -229 LINE",
"25 -273 LINE"
);
},
{
closed = 1;
nodes = (
"201.831 54 OFFCURVE",
"161.519 63.555 OFFCURVE",
"138 87 CURVE",
"138 371 LINE",
"157.666 407.312 OFFCURVE",
"202.779 423 OFFCURVE",
"242 423 CURVE SMOOTH",
"344.839 423 OFFCURVE",
"377 322.421 OFFCURVE",
"377 237 CURVE SMOOTH",
"377 144.651 OFFCURVE",
"340.824 54 OFFCURVE",
"234 54 CURVE SMOOTH"
);
}
);
width = 486;
},
{
layerId = "753CA70B-25C4-47AF-A15F-390B5E4CCE16";
paths = (
{
closed = 1;
nodes = (
"305 -273 LINE",
"305 -208 LINE",
"186 -182 LINE",
"186 -159.974 OFFCURVE",
"188.434 -7.641 OFFCURVE",
"184 3 CURVE",
"204.686 -1.424 OFFCURVE",
"225.83 -4 OFFCURVE",
"247 -4 CURVE SMOOTH",
"402.781 -4 OFFCURVE",
"470 104.714 OFFCURVE",
"470 251 CURVE SMOOTH",
"470 375.466 OFFCURVE",
"411.61 491 OFFCURVE",
"273 491 CURVE SMOOTH",
"242.997 491 OFFCURVE",
"213.104 485.036 OFFCURVE",
"186 472 CURVE",
"186 701 LINE",
"152 736 LINE",
"3 716 LINE",
"14 648 LINE",
"66 648 LINE {name = hr00;}",
"66 -195 LINE",
"15 -210 LINE",
"21 -273 LINE"
);
},
{
closed = 1;
nodes = (
"229.018 90 OFFCURVE",
"201.436 93.182 OFFCURVE",
"186 103 CURVE",
"186 379 LINE",
"203.873 392.024 OFFCURVE",
"227.224 397 OFFCURVE",
"249 397 CURVE SMOOTH",
"328.529 397 OFFCURVE",
"346 308.994 OFFCURVE",
"346 246 CURVE SMOOTH",
"346 183.219 OFFCURVE",
"326.883 90 OFFCURVE",
"247 90 CURVE SMOOTH"
);
}
);
width = 501;
}
);
rightKerningGroup = b;
unicode = 00FE;
userData = {
com.typemytype.robofont.mark = (
0.713,
0.6,
1,
1
);
};
},
{
glyphname = q;
lastChange = "2018-07-24 20:05:46 +0000";
layers = (
{
layerId = "1178ECA0-A987-4969-BD6E-681EE9C1B9C8";
paths = (
{
closed = 1;
nodes = (
"468 -273 LINE",
"468 -229 LINE",
"409 -215 LINE",
"409 470 LINE {name = hr00;}",
"374 480 LINE",
"351 451 LINE",
"318.169 472.335 OFFCURVE",
"284.934 481 OFFCURVE",
"246 481 CURVE SMOOTH {name = mh01;}",
"106.797 481 OFFCURVE",
"42 358.007 OFFCURVE",
"42 234 CURVE SMOOTH",
"42 115.214 OFFCURVE",
"103.992 -4 OFFCURVE",
"237 -4 CURVE SMOOTH",
"275.869 -4 OFFCURVE",
"315.974 6.024 OFFCURVE",
"346 32 CURVE",
"346 -202 LINE",
"225 -229 LINE",
"232 -273 LINE"
);
},
{
closed = 1;
nodes = (
"140.606 54 OFFCURVE",
"108 153.757 OFFCURVE",
"108 239 CURVE SMOOTH",
"108 331.347 OFFCURVE",
"145.246 423 OFFCURVE",
"252 423 CURVE SMOOTH",
"283.309 423 OFFCURVE",
"325.104 411.984 OFFCURVE",
"346 387 CURVE",
"346 104 LINE",
"325.61 70.688 OFFCURVE",
"280.438 54 OFFCURVE",
"243 54 CURVE SMOOTH"
);
}
);
width = 483;
},
{
layerId = "753CA70B-25C4-47AF-A15F-390B5E4CCE16";
paths = (
{
closed = 1;
nodes = (
"490 -273 LINE",
"490 -200 LINE",
"435 -181 LINE",
"435 469 LINE {name = hr00;}",
"401 493 LINE",
"343 470 LINE",
"309.85 484.845 OFFCURVE",
"273.172 491 OFFCURVE",
"237 491 CURVE SMOOTH {name = hr01;}",
"94.562 491 OFFCURVE",
"31 359.415 OFFCURVE",
"31 233 CURVE SMOOTH",
"31 111.311 OFFCURVE",
"89.091 -4 OFFCURVE",
"225 -4 CURVE SMOOTH",
"256.855 -4 OFFCURVE",
"289.025 3.221 OFFCURVE",
"314 24 CURVE",
"314 -186 LINE",
"191 -210 LINE",
"202 -273 LINE"
);
},
{
closed = 1;
nodes = (
"167.226 91 OFFCURVE",
"155 183.692 OFFCURVE",
"155 245 CURVE SMOOTH",
"155 310.346 OFFCURVE",
"169.643 398 OFFCURVE",
"252 398 CURVE SMOOTH",
"273.04 398 OFFCURVE",
"298.497 392.322 OFFCURVE",
"314 377 CURVE",
"314 149 LINE",
"314 119.049 OFFCURVE",
"274.918 91 OFFCURVE",
"247 91 CURVE SMOOTH"
);
}
);
width = 499;
}
);
leftKerningGroup = d;
unicode = 0071;
userData = {
com.typemytype.robofont.mark = (
0.713,
0.6,
1,
1
);
};
},
{
glyphname = r;
lastChange = "2018-07-24 20:02:22 +0000";
layers = (
{
layerId = "1178ECA0-A987-4969-BD6E-681EE9C1B9C8";
paths = (
{
closed = 1;
nodes = (
"299 0 LINE",
"299 44 LINE",
"159 64 LINE",
"159 312 LINE SMOOTH",
"159 371.593 OFFCURVE",
"205.539 423.971 OFFCURVE",
"267 424 CURVE",
"301 378 LINE",
"377 415 LINE",
"348.298 454.457 OFFCURVE",
"310.128 481 OFFCURVE",
"260 481 CURVE SMOOTH {name = mh01;}",
"222.96 481 OFFCURVE",
"186.172 464.703 OFFCURVE",
"159 440 CURVE {name = hr00;}",
"132 480 LINE {name = mh02;}",
"34 463 LINE",
"42 415 LINE",
"96 415 LINE",
"96 58 LINE",
"37 44 LINE",
"46 0 LINE"
);
}
);
width = 386;
},
{
layerId = "753CA70B-25C4-47AF-A15F-390B5E4CCE16";
paths = (
{
closed = 1;
nodes = (
"332 0 LINE",
"331 64 LINE",
"210 99 LINE",
"210 286 LINE SMOOTH",
"210 326.193 OFFCURVE",
"229.598 390.862 OFFCURVE",
"280 391 CURVE",
"310 341 LINE",
"431 404 LINE",
"412.6 463.153 OFFCURVE",
"361.629 491 OFFCURVE",
"302 491 CURVE SMOOTH",
"262.651 491 OFFCURVE",
"224.494 468.908 OFFCURVE",
"200 439 CURVE",
"166 491 LINE {name = hr00;}",
"27 465 LINE",
"38 397 LINE",
"89 401 LINE",
"89 80 LINE",
"29 64 LINE",
"44 0 LINE"
);
}
);
width = 428;
}
);
leftKerningGroup = n;
unicode = 0072;
userData = {
com.typemytype.robofont.mark = (
0.713,
0.6,
1,
1
);
};
},
{
glyphname = s;
lastChange = "2018-07-24 20:01:52 +0000";
layers = (
{
layerId = "1178ECA0-A987-4969-BD6E-681EE9C1B9C8";
paths = (
{
closed = 1;
nodes = (
"273.209 -4 OFFCURVE",
"351 43.611 OFFCURVE",
"351 130 CURVE SMOOTH {name = mh01;}",
"351 302.872 OFFCURVE",
"118 247.56 OFFCURVE",
"118 356 CURVE SMOOTH",
"118 398.882 OFFCURVE",
"159.999 423 OFFCURVE",
"199 423 CURVE SMOOTH",
"220.18 423 OFFCURVE",
"243.033 420.018 OFFCURVE",
"260 406 CURVE",
"283 355 LINE",
"361 384 LINE",
"333.929 445.845 OFFCURVE",
"264.337 481 OFFCURVE",
"199 481 CURVE SMOOTH {name = hr00;}",
"121.58 481 OFFCURVE",
"52 432.519 OFFCURVE",
"52 350 CURVE SMOOTH {name = mh05;}",
"52 194.003 OFFCURVE",
"285 243.917 OFFCURVE",
"285 124 CURVE SMOOTH",
"285 80.242 OFFCURVE",
"239.599 54 OFFCURVE",
"200 54 CURVE SMOOTH",
"176.083 54 OFFCURVE",
"153.908 57.631 OFFCURVE",
"133 70 CURVE",
"110 122 LINE",
"32 92 LINE {name = mh03;}",
"64.668 30.773 OFFCURVE",
"124.903 -4 OFFCURVE",
"194 -4 CURVE SMOOTH"
);
}
);
width = 397;
},
{
layerId = "753CA70B-25C4-47AF-A15F-390B5E4CCE16";
paths = (
{
closed = 1;
nodes = (
"294.593 -3 OFFCURVE",
"381 50.389 OFFCURVE",
"381 150 CURVE SMOOTH",
"381 296.604 OFFCURVE",
"164 299.269 OFFCURVE",
"164 359 CURVE SMOOTH",
"164 386.488 OFFCURVE",
"182.582 397 OFFCURVE",
"208 397 CURVE SMOOTH",
"215.363 397 OFFCURVE",
"225.282 395.863 OFFCURVE",
"232 392 CURVE",
"256 341 LINE",
"383 392 LINE",
"350.42 457.22 OFFCURVE",
"284.636 491 OFFCURVE",
"213 491 CURVE SMOOTH",
"129.763 491 OFFCURVE",
"40 437.626 OFFCURVE",
"40 346 CURVE SMOOTH",
"40 193.758 OFFCURVE",
"259 205.605 OFFCURVE",
"259 137 CURVE SMOOTH",
"259 108.63 OFFCURVE",
"235.95 91 OFFCURVE",
"209 91 CURVE SMOOTH",
"196.367 91 OFFCURVE",
"183.401 91.308 OFFCURVE",
"171 94 CURVE",
"145 159 LINE",
"17 110 LINE {name = hr00;}",
"45.258 38.916 OFFCURVE",
"129.726 -3 OFFCURVE",
"203 -3 CURVE SMOOTH"
);
}
);
width = 412;
}
);
unicode = 0073;
userData = {
com.typemytype.robofont.mark = (
0.713,
0.6,
1,
1
);
};
},
{
glyphname = germandbls;
lastChange = "2018-07-24 20:01:26 +0000";
layers = (
{
layerId = "1178ECA0-A987-4969-BD6E-681EE9C1B9C8";
paths = (
{
closed = 1;
nodes = (
"395.375 -4 OFFCURVE",
"483 70 OFFCURVE",
"483 166 CURVE SMOOTH",
"483 352.444 OFFCURVE",
"281 319.932 OFFCURVE",
"281 405 CURVE SMOOTH",
"281 432.762 OFFCURVE",
"380 487.402 OFFCURVE",
"380 585 CURVE SMOOTH",
"380 675.019 OFFCURVE",
"319.986 727 OFFCURVE",
"232 727 CURVE SMOOTH {name = mh01;}",
"130.059 727 OFFCURVE",
"87 651.136 OFFCURVE",
"87 558 CURVE SMOOTH",
"87 55 LINE",
"35 44 LINE",
"35 0 LINE",
"150 0 LINE",
"150 559 LINE SMOOTH",
"150 615.553 OFFCURVE",
"164.792 670 OFFCURVE",
"232 670 CURVE SMOOTH",
"279.797 670 OFFCURVE",
"314 633.385 OFFCURVE",
"314 586 CURVE SMOOTH",
"314 495.61 OFFCURVE",
"223 474.555 OFFCURVE",
"223 397 CURVE SMOOTH",
"223 282.381 OFFCURVE",
"417 301.812 OFFCURVE",
"417 166 CURVE SMOOTH",
"417 97.197 OFFCURVE",
"369.851 52.986 OFFCURVE",
"302 53 CURVE",
"214 87 LINE {name = hr00;}",
"190 20 LINE",
"225.966 6.924 OFFCURVE",
"263.454 -4 OFFCURVE",
"302 -4 CURVE SMOOTH"
);
}
);
width = 511;
},
{
layerId = "753CA70B-25C4-47AF-A15F-390B5E4CCE16";
paths = (
{
closed = 1;
nodes = (
"462.27 -4 OFFCURVE",
"547 55.498 OFFCURVE",
"547 162 CURVE SMOOTH",
"547 303.34 OFFCURVE",
"382 334.369 OFFCURVE",
"382 384 CURVE SMOOTH",
"382 415.211 OFFCURVE",
"480 440.311 OFFCURVE",
"480 560 CURVE SMOOTH {name = hr02;}",
"480 685.763 OFFCURVE",
"395.919 735 OFFCURVE",
"280 735 CURVE SMOOTH",
"154.234 735 OFFCURVE",
"79 655.722 OFFCURVE",
"79 531 CURVE SMOOTH",
"79 83 LINE {name = hr00;}",
"29 72 LINE",
"36 0 LINE",
"200 0 LINE",
"200 532 LINE SMOOTH",
"200 586.805 OFFCURVE",
"217.789 640 OFFCURVE",
"282 640 CURVE SMOOTH",
"327.93 640 OFFCURVE",
"357 601.682 OFFCURVE",
"357 558 CURVE SMOOTH",
"357 471.145 OFFCURVE",
"266 464.836 OFFCURVE",
"266 377 CURVE SMOOTH {name = hr01;}",
"266 271.928 OFFCURVE",
"421 259.417 OFFCURVE",
"421 159 CURVE SMOOTH",
"421 117.545 OFFCURVE",
"385.238 90.533 OFFCURVE",
"346 90 CURVE",
"290 141 LINE",
"239 20 LINE",
"280.88 5.496 OFFCURVE",
"316.831 -4 OFFCURVE",
"362 -4 CURVE SMOOTH"
);
}
);
width = 562;
}
);
unicode = 00DF;
userData = {
com.typemytype.robofont.mark = (
0.713,
0.6,
1,
1
);
};
},
{
glyphname = t;
lastChange = "2018-07-24 20:00:15 +0000";
layers = (
{
layerId = "1178ECA0-A987-4969-BD6E-681EE9C1B9C8";
paths = (
{
closed = 1;
nodes = (
"7 468 LINE",
"14 479 LINE",
"102 479 LINE",
"103 647 LINE",
"159 661 LINE",
"165 650 LINE",
"164 479 LINE",
"270 479 LINE",
"275 424 LINE",
"163 424 LINE",
"163 101 LINE SMOOTH",
"163 68.952 OFFCURVE",
"174.975 54 OFFCURVE",
"208 54 CURVE SMOOTH",
"232.152 54 OFFCURVE",
"252.856 66.382 OFFCURVE",
"272 80 CURVE",
"289 29 LINE",
"256.891 4.951 OFFCURVE",
"231.145 -4 OFFCURVE",
"191 -4 CURVE SMOOTH",
"127 -4 OFFCURVE",
"99 42 OFFCURVE",
"99 106 CURVE",
"101 424 LINE",
"21 424 LINE {name = hr00;}"
);
}
);
width = 303;
},
{
layerId = "753CA70B-25C4-47AF-A15F-390B5E4CCE16";
paths = (
{
closed = 1;
nodes = (
"318 485 LINE",
"212 491 LINE",
"212 666 LINE",
"203 682 LINE",
"96 659 LINE",
"94 491 LINE",
"9 491 LINE",
"2 481 LINE",
"17 400 LINE",
"93 400 LINE",
"91 138 LINE",
"91 51.705 OFFCURVE",
"126.363 -4 OFFCURVE",
"217 -4 CURVE SMOOTH",
"253.909 -4 OFFCURVE",
"308.459 12.84 OFFCURVE",
"334 41 CURVE",
"309 122 LINE",
"292.835 108.652 OFFCURVE",
"264.223 93 OFFCURVE",
"243 93 CURVE SMOOTH",
"213.109 93 OFFCURVE",
"212 113.399 OFFCURVE",
"212 139 CURVE SMOOTH",
"212 400 LINE",
"318 400 LINE {name = hr00;}"
);
}
);
width = 345;
}
);
unicode = 0074;
userData = {
com.typemytype.robofont.mark = (
0.713,
0.6,
1,
1
);
};
},
{
glyphname = u;
lastChange = "2018-07-24 19:57:45 +0000";
layers = (
{
layerId = "1178ECA0-A987-4969-BD6E-681EE9C1B9C8";
paths = (
{
closed = 1;
nodes = (
"272.744 -4 OFFCURVE",
"315.69 10.31 OFFCURVE",
"348 37 CURVE",
"354.966 10.977 OFFCURVE",
"371.518 -4 OFFCURVE",
"399 -4 CURVE SMOOTH",
"418.919 -4 OFFCURVE",
"442.607 3.46 OFFCURVE",
"456 19 CURVE",
"448 54 LINE",
"441.815 53.193 OFFCURVE",
"436.391 51 OFFCURVE",
"430 51 CURVE SMOOTH",
"415.17 51 OFFCURVE",
"407 57.955 OFFCURVE",
"407 73 CURVE SMOOTH",
"407 453 LINE",
"383 482 LINE",
"283 463 LINE",
"290 415 LINE {name = hr00;}",
"344 415 LINE",
"344 101 LINE",
"325.849 72.277 OFFCURVE",
"277.971 54 OFFCURVE",
"245 54 CURVE SMOOTH",
"173.169 54 OFFCURVE",
"145 89.24 OFFCURVE",
"145 159 CURVE SMOOTH",
"145 453 LINE",
"120 481 LINE {name = mh01;}",
"19 463 LINE",
"28 415 LINE",
"82 415 LINE",
"82 156 LINE SMOOTH",
"82 59.548 OFFCURVE",
"130.045 -4 OFFCURVE",
"231 -4 CURVE SMOOTH"
);
}
);
width = 490;
},
{
layerId = "753CA70B-25C4-47AF-A15F-390B5E4CCE16";
paths = (
{
closed = 1;
nodes = (
"274.668 -4 OFFCURVE",
"324.699 10.73 OFFCURVE",
"356 44 CURVE",
"371.408 10.218 OFFCURVE",
"401.022 -4 OFFCURVE",
"437 -4 CURVE SMOOTH",
"464.041 -4 OFFCURVE",
"496.636 8.458 OFFCURVE",
"515 29 CURVE",
"496 85 LINE",
"491.512 83.834 OFFCURVE",
"486.637 83 OFFCURVE",
"482 83 CURVE SMOOTH",
"469.177 83 OFFCURVE",
"466 94.024 OFFCURVE",
"466 105 CURVE SMOOTH",
"466 454 LINE",
"431 492 LINE",
"288 465 LINE",
"300 398 LINE",
"345 401 LINE {name = hr00;}",
"345 144 LINE",
"332.45 113.402 OFFCURVE",
"296.495 92 OFFCURVE",
"264 92 CURVE SMOOTH",
"216.604 92 OFFCURVE",
"196 124.605 OFFCURVE",
"196 169 CURVE SMOOTH",
"196 454 LINE",
"161 492 LINE",
"13 465 LINE",
"24 398 LINE",
"75 398 LINE",
"75 146 LINE SMOOTH",
"75 47.09 OFFCURVE",
"133.182 -4 OFFCURVE",
"230 -4 CURVE SMOOTH"
);
}
);
width = 539;
}
);
leftKerningGroup = u;
rightKerningGroup = u;
unicode = 0075;
userData = {
com.typemytype.robofont.mark = (
0.713,
0.6,
1,
1
);
};
},
{
glyphname = v;
lastChange = "2018-07-24 15:11:20 +0000";
layers = (
{
layerId = "1178ECA0-A987-4969-BD6E-681EE9C1B9C8";
paths = (
{
closed = 1;
nodes = (
"48 426 LINE",
"10 426 LINE",
"2 474 LINE",
"102 481 LINE {name = hr01;}",
"232 92 LINE",
"359 426 LINE",
"314 426 LINE {name = hr02;}",
"309 474 LINE",
"409 481 LINE {name = hr03;}",
"428 444 LINE",
"256 0 LINE",
"192 0 LINE {name = hr00;}"
);
}
);
width = 439;
},
{
layerId = "753CA70B-25C4-47AF-A15F-390B5E4CCE16";
paths = (
{
closed = 1;
nodes = (
"57 407 LINE",
"7 407 LINE {name = hr03;}",
"-1 479 LINE",
"167 491 LINE {name = hr02;}",
"275 127 LINE {name = mh02;}",
"379 407 LINE",
"337 407 LINE {name = hr01;}",
"328 479 LINE",
"476 491 LINE",
"495 455 LINE",
"328 0 LINE {name = mh03;}",
"189 0 LINE {name = mh01;}"
);
}
);
width = 497;
}
);
unicode = 0076;
userData = {
com.typemytype.robofont.mark = (
0.713,
0.6,
1,
1
);
};
},
{
glyphname = w;
lastChange = "2018-07-24 15:11:20 +0000";
layers = (
{
layerId = "1178ECA0-A987-4969-BD6E-681EE9C1B9C8";
paths = (
{
closed = 1;
nodes = (
"485 76 LINE",
"566 426 LINE",
"521 426 LINE",
"512 475 LINE {name = hr01;}",
"620 480 LINE",
"634 454 LINE",
"523 0 LINE",
"437 0 LINE",
"337 328 LINE",
"238 0 LINE",
"142 0 LINE",
"57 426 LINE {name = hr02;}",
"15 426 LINE",
"7 475 LINE {name = hr03;}",
"117 480 LINE {name = mh02;}",
"195 71 LINE",
"313 445 LINE {name = mh03;}",
"366 445 LINE {name = mh01;}"
);
}
);
width = 665;
},
{
layerId = "753CA70B-25C4-47AF-A15F-390B5E4CCE16";
paths = (
{
closed = 1;
nodes = (
"48 407 LINE",
"12 407 LINE {name = hr03;}",
"5 479 LINE",
"157 491 LINE {name = hr02;}",
"226 131 LINE",
"314 474 LINE {name = mh01;}",
"457 474 LINE",
"542 127 LINE",
"612 407 LINE",
"577 407 LINE {name = hr01;}",
"569 479 LINE",
"699 491 LINE",
"721 455 LINE {name = mh02;}",
"606 0 LINE",
"449 0 LINE",
"370 322 LINE",
"290 0 LINE",
"132 0 LINE {name = hr00;}"
);
}
);
width = 741;
}
);
unicode = 0077;
userData = {
com.typemytype.robofont.mark = (
0.713,
0.6,
1,
1
);
};
},
{
glyphname = x;
lastChange = "2018-07-24 15:11:20 +0000";
layers = (
{
layerId = "1178ECA0-A987-4969-BD6E-681EE9C1B9C8";
paths = (
{
closed = 1;
nodes = (
"30 52 LINE",
"72 52 LINE",
"186 243 LINE",
"72 421 LINE {name = mh01;}",
"30 421 LINE",
"30 479 LINE",
"113 479 LINE {name = mh02;}",
"236 289 LINE {name = mh03;}",
"350 479 LINE {name = mh04;}",
"420 479 LINE",
"420 426 LINE",
"387 426 LINE {name = mh05;}",
"271 235 LINE {name = mh06;}",
"386 58 LINE",
"428 58 LINE",
"428 0 LINE",
"343 0 LINE",
"221 188 LINE",
"109 0 LINE",
"40 0 LINE {name = hr00;}"
);
}
);
width = 456;
},
{
layerId = "753CA70B-25C4-47AF-A15F-390B5E4CCE16";
paths = (
{
closed = 1;
nodes = (
"218 145 LINE",
"298 0 LINE",
"444 0 LINE",
"444 73 LINE",
"402 73 LINE",
"305 247 LINE",
"403 418 LINE",
"445 418 LINE",
"445 491 LINE",
"335 491 LINE",
"256 335 LINE",
"169 491 LINE",
"27 491 LINE",
"27 418 LINE",
"69 418 LINE",
"165 243 LINE",
"68 73 LINE",
"26 73 LINE",
"26 0 LINE",
"138 0 LINE {name = hr00;}"
);
}
);
width = 471;
}
);
unicode = 0078;
userData = {
com.typemytype.robofont.mark = (
0.713,
0.6,
1,
1
);
};
},
{
glyphname = y;
lastChange = "2018-07-24 19:50:52 +0000";
layers = (
{
layerId = "1178ECA0-A987-4969-BD6E-681EE9C1B9C8";
paths = (
{
closed = 1;
nodes = (
"164 -273 OFFCURVE",
"192 -215 OFFCURVE",
"220 -140 CURVE SMOOTH",
"436 445 LINE {name = hr00;}",
"419 480 LINE",
"323 474 LINE",
"331 425 LINE {name = mh06;}",
"367 425 LINE {name = mh05;}",
"235 54 LINE {name = mh04;}",
"98 480 LINE {name = mh03;}",
"3 474 LINE",
"11 425 LINE",
"45 425 LINE {name = hr01;}",
"199 -47 LINE",
"187.319 -79.797 OFFCURVE",
"154.557 -215 OFFCURVE",
"100 -215 CURVE SMOOTH {name = mh02;}",
"76.877 -215 OFFCURVE",
"57.699 -200.622 OFFCURVE",
"42 -185 CURVE",
"11 -237 LINE",
"37.061 -257.575 OFFCURVE",
"64.998 -273 OFFCURVE",
"99 -273 CURVE SMOOTH {name = mh01;}"
);
}
);
width = 449;
},
{
layerId = "753CA70B-25C4-47AF-A15F-390B5E4CCE16";
paths = (
{
closed = 1;
nodes = (
"212 -274 OFFCURVE",
"250 -237 OFFCURVE",
"276 -167 CURVE SMOOTH",
"496 455 LINE {name = hr00;}",
"476 491 LINE",
"330 480 LINE",
"338 407 LINE",
"384 407 LINE",
"280 119 LINE",
"150 491 LINE",
"0 479 LINE",
"8 407 LINE",
"46 407 LINE",
"215 -61 LINE",
"205.782 -86.165 OFFCURVE",
"184.342 -180 OFFCURVE",
"142 -180 CURVE SMOOTH",
"125.272 -180 OFFCURVE",
"94.971 -154.574 OFFCURVE",
"83 -144 CURVE",
"29 -228 LINE",
"59.364 -256.345 OFFCURVE",
"108.618 -274 OFFCURVE",
"150 -274 CURVE SMOOTH"
);
}
);
width = 498;
}
);
leftKerningGroup = y;
rightKerningGroup = y;
unicode = 0079;
userData = {
com.typemytype.robofont.mark = (
0.713,
0.6,
1,
1
);
};
},
{
glyphname = z;
lastChange = "2018-07-24 15:11:20 +0000";
layers = (
{
layerId = "1178ECA0-A987-4969-BD6E-681EE9C1B9C8";
paths = (
{
closed = 1;
nodes = (
"126 58 LINE",
"316 58 LINE",
"332 152 LINE",
"379 152 LINE",
"379 0 LINE",
"47 0 LINE",
"47 58 LINE",
"293 420 LINE {name = mh01;}",
"110 420 LINE",
"94 337 LINE",
"47 337 LINE",
"47 479 LINE {name = mh02;}",
"379 479 LINE",
"379 420 LINE {name = hr00;}"
);
}
);
width = 428;
},
{
layerId = "753CA70B-25C4-47AF-A15F-390B5E4CCE16";
paths = (
{
closed = 1;
nodes = (
"246 397 LINE",
"118 397 LINE {name = hr02;}",
"106 329 LINE",
"38 329 LINE",
"38 491 LINE",
"382 491 LINE",
"382 395 LINE",
"180 97 LINE",
"301 97 LINE {name = hr01;}",
"313 163 LINE",
"382 163 LINE",
"382 0 LINE",
"39 0 LINE",
"38 96 LINE {name = hr00;}"
);
}
);
width = 421;
}
);
unicode = 007A;
userData = {
com.typemytype.robofont.mark = (
0.713,
0.6,
1,
1
);
};
},
{
glyphname = ordfeminine;
lastChange = "2018-07-24 19:48:14 +0000";
layers = (
{
layerId = "1178ECA0-A987-4969-BD6E-681EE9C1B9C8";
paths = (
{
closed = 1;
nodes = (
"146.69 433 OFFCURVE",
"167.488 438.077 OFFCURVE",
"184 451 CURVE",
"192.19 437.884 OFFCURVE",
"203.107 434 OFFCURVE",
"218 434 CURVE SMOOTH",
"234.007 434 OFFCURVE",
"247.755 439.808 OFFCURVE",
"260 450 CURVE",
"250 481 LINE",
"245.957 480.4 OFFCURVE",
"242.135 478 OFFCURVE",
"238 478 CURVE SMOOTH {name = hr00;}",
"231.155 478 OFFCURVE",
"230 485.649 OFFCURVE",
"230 491 CURVE SMOOTH",
"230 610 LINE SMOOTH",
"230 665.318 OFFCURVE",
"184.486 691 OFFCURVE",
"134 691 CURVE SMOOTH {name = mh01;}",
"91.38 691 OFFCURVE",
"50.001 666.379 OFFCURVE",
"43 622 CURVE",
"105 613 LINE",
"112 642 LINE",
"119.024 646.918 OFFCURVE",
"127.498 649 OFFCURVE",
"136 649 CURVE SMOOTH",
"160.771 649 OFFCURVE",
"177 637.043 OFFCURVE",
"177 611 CURVE SMOOTH",
"177 589 LINE",
"121.973 586.498 OFFCURVE",
"43 575.254 OFFCURVE",
"43 504 CURVE SMOOTH",
"43 459.13 OFFCURVE",
"84.714 433 OFFCURVE",
"126 433 CURVE SMOOTH"
);
},
{
closed = 1;
nodes = (
"113.961 475 OFFCURVE",
"99 483.833 OFFCURVE",
"99 505 CURVE SMOOTH",
"99 543.08 OFFCURVE",
"148.605 547 OFFCURVE",
"177 547 CURVE",
"177 506 LINE SMOOTH",
"177 486.749 OFFCURVE",
"148.938 475 OFFCURVE",
"133 475 CURVE SMOOTH"
);
}
);
width = 297;
},
{
layerId = "753CA70B-25C4-47AF-A15F-390B5E4CCE16";
paths = (
{
closed = 1;
nodes = (
"170.64 401 OFFCURVE",
"205.455 409.95 OFFCURVE",
"228 435 CURVE",
"243.126 415.8 OFFCURVE",
"265.377 404 OFFCURVE",
"290 404 CURVE SMOOTH",
"316.006 404 OFFCURVE",
"340.872 415.881 OFFCURVE",
"360 433 CURVE",
"342 493 LINE",
"339 490 OFFCURVE",
"333 487 OFFCURVE",
"327 487 CURVE SMOOTH",
"323 487 OFFCURVE",
"320 491 OFFCURVE",
"320 501 CURVE SMOOTH",
"320 591 LINE {name = hr00;}",
"320.055 683.386 OFFCURVE",
"265.482 724 OFFCURVE",
"176 724 CURVE SMOOTH",
"115.74 724 OFFCURVE",
"55.877 704.036 OFFCURVE",
"33 643 CURVE",
"146 617 LINE",
"155 640 LINE",
"162.108 643.855 OFFCURVE",
"169.063 645 OFFCURVE",
"177 645 CURVE SMOOTH {name = hr01;}",
"202 645 OFFCURVE",
"209 628 OFFCURVE",
"209 610 CURVE SMOOTH",
"209 598 LINE",
"139.351 597.121 OFFCURVE",
"32 587.363 OFFCURVE",
"32 495 CURVE SMOOTH",
"32 437.914 OFFCURVE",
"84.493 401 OFFCURVE",
"138 401 CURVE SMOOTH"
);
},
{
closed = 1;
nodes = (
"147.705 482 OFFCURVE",
"136 493.763 OFFCURVE",
"136 510 CURVE SMOOTH",
"136 545.543 OFFCURVE",
"183.981 545.026 OFFCURVE",
"209 545 CURVE",
"209 501 LINE",
"198.533 486.548 OFFCURVE",
"181.096 482 OFFCURVE",
"164 482 CURVE SMOOTH"
);
}
);
width = 385;
}
);
unicode = 00AA;
userData = {
com.typemytype.robofont.mark = (
0.713,
0.6,
1,
1
);
};
},
{
glyphname = ordmasculine;
lastChange = "2018-07-24 15:11:20 +0000";
layers = (
{
layerId = "1178ECA0-A987-4969-BD6E-681EE9C1B9C8";
paths = (
{
closed = 1;
nodes = (
"39 630.577 OFFCURVE",
"71.525 692 OFFCURVE",
"147 692 CURVE SMOOTH {name = mh01;}",
"224.085 692 OFFCURVE",
"257 632.93 OFFCURVE",
"257 563 CURVE SMOOTH",
"257 493.394 OFFCURVE",
"224.226 433 OFFCURVE",
"147 433 CURVE SMOOTH",
"70.368 433 OFFCURVE",
"39 494.834 OFFCURVE",
"39 563 CURVE SMOOTH {name = hr00;}"
);
},
{
closed = 1;
nodes = (
"95 527.744 OFFCURVE",
"106.01 484 OFFCURVE",
"147 484 CURVE SMOOTH",
"189.825 484 OFFCURVE",
"201 525.692 OFFCURVE",
"201 561 CURVE SMOOTH",
"201 595.631 OFFCURVE",
"189.385 640 OFFCURVE",
"147 640 CURVE SMOOTH {name = mh02;}",
"106.468 640 OFFCURVE",
"95 593.62 OFFCURVE",
"95 561 CURVE SMOOTH"
);
}
);
width = 296;
},
{
layerId = "753CA70B-25C4-47AF-A15F-390B5E4CCE16";
paths = (
{
closed = 1;
nodes = (
"30 468.019 OFFCURVE",
"74.952 399 OFFCURVE",
"176 399 CURVE SMOOTH",
"276.843 399 OFFCURVE",
"324 467.483 OFFCURVE",
"324 563 CURVE SMOOTH",
"324 659.755 OFFCURVE",
"277.688 726 OFFCURVE",
"176 726 CURVE SMOOTH",
"74.111 726 OFFCURVE",
"30 659.21 OFFCURVE",
"30 563 CURVE SMOOTH {name = hr00;}"
);
},
{
closed = 1;
nodes = (
"135 591.97 OFFCURVE",
"134.864 632 OFFCURVE",
"176 632 CURVE SMOOTH",
"217.182 632 OFFCURVE",
"219 592.636 OFFCURVE",
"219 561 CURVE SMOOTH",
"219 528.663 OFFCURVE",
"217.499 492 OFFCURVE",
"176 492 CURVE SMOOTH",
"134.515 492 OFFCURVE",
"135 529.307 OFFCURVE",
"135 561 CURVE SMOOTH"
);
}
);
width = 354;
}
);
unicode = 00BA;
userData = {
com.typemytype.robofont.mark = (
0.713,
0.6,
1,
1
);
};
},
{
glyphname = zero;
lastChange = "2018-07-24 15:11:20 +0000";
layers = (
{
layerId = "1178ECA0-A987-4969-BD6E-681EE9C1B9C8";
paths = (
{
closed = 1;
nodes = (
"53 488.821 OFFCURVE",
"104.663 692 OFFCURVE",
"284 692 CURVE SMOOTH {name = mh01;}",
"462.398 692 OFFCURVE",
"514 487.757 OFFCURVE",
"514 344 CURVE SMOOTH",
"514 200.243 OFFCURVE",
"462.398 -4 OFFCURVE",
"284 -4 CURVE SMOOTH",
"104.663 -4 OFFCURVE",
"53 199.179 OFFCURVE",
"53 344 CURVE SMOOTH {name = hr00;}"
);
},
{
closed = 1;
nodes = (
"122 241.382 OFFCURVE",
"149.112 63 OFFCURVE",
"284 63 CURVE SMOOTH",
"417.986 63 OFFCURVE",
"445 242.201 OFFCURVE",
"445 344 CURVE SMOOTH",
"445 446.065 OFFCURVE",
"418.299 625 OFFCURVE",
"284 625 CURVE SMOOTH {name = mh02;}",
"148.796 625 OFFCURVE",
"122 446.88 OFFCURVE",
"122 344 CURVE SMOOTH"
);
}
);
width = 567;
},
{
layerId = "753CA70B-25C4-47AF-A15F-390B5E4CCE16";
paths = (
{
closed = 1;
nodes = (
"37 507.539 OFFCURVE",
"99.55 690 OFFCURVE",
"294 690 CURVE SMOOTH {name = mh01;}",
"488.126 690 OFFCURVE",
"553 508.06 OFFCURVE",
"553 343 CURVE SMOOTH {name = mh02;}",
"553 178.227 OFFCURVE",
"487.685 -4 OFFCURVE",
"294 -4 CURVE SMOOTH",
"99.989 -4 OFFCURVE",
"37 178.741 OFFCURVE",
"37 343 CURVE SMOOTH {name = hr00;}"
);
},
{
closed = 1;
nodes = (
"175 264.457 OFFCURVE",
"184.801 101 OFFCURVE",
"294 101 CURVE SMOOTH",
"403.377 101 OFFCURVE",
"415 263.49 OFFCURVE",
"415 343 CURVE SMOOTH {name = mh04;}",
"415 422.51 OFFCURVE",
"403.377 585 OFFCURVE",
"294 585 CURVE SMOOTH",
"184.801 585 OFFCURVE",
"175 421.543 OFFCURVE",
"175 343 CURVE SMOOTH {name = mh03;}"
);
}
);
width = 590;
}
);
unicode = 0030;
userData = {
com.typemytype.robofont.mark = (
0.713,
0.6,
1,
1
);
};
},
{
glyphname = one;
lastChange = "2018-07-24 19:45:16 +0000";
layers = (
{
layerId = "1178ECA0-A987-4969-BD6E-681EE9C1B9C8";
paths = (
{
closed = 1;
nodes = (
"146 68 LINE",
"146 601 LINE {name = mh01;}",
"43 581 LINE",
"34 638 LINE",
"192 692 LINE {name = mh02;}",
"214 682 LINE",
"214 68 LINE",
"308 55 LINE",
"308 0 LINE",
"48 0 LINE",
"41 49 LINE {name = hr00;}"
);
}
);
width = 327;
},
{
layerId = "753CA70B-25C4-47AF-A15F-390B5E4CCE16";
paths = (
{
closed = 1;
nodes = (
"133 98 LINE",
"133 555 LINE",
"40 538 LINE",
"20 625 LINE",
"249 694 LINE",
"264 685 LINE",
"264 93 LINE",
"349 80 LINE",
"346 1 LINE",
"37 1 LINE",
"34 83 LINE {name = hr00;}"
);
}
);
width = 365;
}
);
unicode = 0031;
userData = {
com.typemytype.robofont.mark = (
0.713,
0.6,
1,
1
);
};
},
{
glyphname = two;
lastChange = "2018-07-24 19:45:08 +0000";
layers = (
{
layerId = "1178ECA0-A987-4969-BD6E-681EE9C1B9C8";
paths = (
{
closed = 1;
nodes = (
"38 58 LINE",
"145.873 180.559 OFFCURVE",
"368 332.788 OFFCURVE",
"368 513 CURVE SMOOTH",
"368 588.116 OFFCURVE",
"312.343 628 OFFCURVE",
"241 628 CURVE SMOOTH",
"211.669 628 OFFCURVE",
"181.054 623.34 OFFCURVE",
"155 609 CURVE",
"107 521 LINE",
"34 566 LINE",
"83.6 648.245 OFFCURVE",
"149.588 692 OFFCURVE",
"247 692 CURVE SMOOTH",
"358.715 692 OFFCURVE",
"438 622.315 OFFCURVE",
"438 508 CURVE SMOOTH",
"438 350.249 OFFCURVE",
"234.883 167.983 OFFCURVE",
"131 63 CURVE",
"374 63 LINE",
"408 171 LINE",
"457 171 LINE",
"437 0 LINE",
"48 0 LINE {name = hr00;}"
);
}
);
width = 504;
},
{
layerId = "753CA70B-25C4-47AF-A15F-390B5E4CCE16";
paths = (
{
closed = 1;
nodes = (
"38 81 LINE",
"117.062 176.935 OFFCURVE",
"332 368.732 OFFCURVE",
"332 496 CURVE SMOOTH",
"332 552.257 OFFCURVE",
"303.559 584 OFFCURVE",
"246 584 CURVE SMOOTH",
"225.79 584 OFFCURVE",
"204.651 582.453 OFFCURVE",
"186 574 CURVE",
"142 470 LINE",
"14 535 LINE",
"65.998 627.441 OFFCURVE",
"158.53 689 OFFCURVE",
"266 689 CURVE SMOOTH {name = mh01;}",
"379.633 689 OFFCURVE",
"470 618.079 OFFCURVE",
"470 500 CURVE SMOOTH",
"470 352.975 OFFCURVE",
"300.443 201.43 OFFCURVE",
"204 105 CURVE",
"391 105 LINE",
"432 215 LINE",
"510 215 LINE",
"488 0 LINE",
"53 0 LINE {name = hr00;}"
);
}
);
width = 538;
}
);
unicode = 0032;
userData = {
com.typemytype.robofont.mark = (
0.713,
0.6,
1,
1
);
};
},
{
glyphname = three;
lastChange = "2018-07-24 15:11:20 +0000";
layers = (
{
layerId = "1178ECA0-A987-4969-BD6E-681EE9C1B9C8";
paths = (
{
closed = 1;
nodes = (
"118.167 76.961 OFFCURVE",
"176.403 59 OFFCURVE",
"235 59 CURVE SMOOTH",
"313.4 59 OFFCURVE",
"389 101.767 OFFCURVE",
"389 188 CURVE SMOOTH",
"389 313.825 OFFCURVE",
"239.128 319 OFFCURVE",
"147 319 CURVE",
"147 382 LINE",
"243.997 382.003 OFFCURVE",
"372 390.809 OFFCURVE",
"372 518 CURVE SMOOTH",
"372 587.065 OFFCURVE",
"305.171 628 OFFCURVE",
"242 628 CURVE SMOOTH {name = mh01;}",
"212.833 628 OFFCURVE",
"181.411 624.232 OFFCURVE",
"157 607 CURVE",
"111 521 LINE",
"37 566 LINE",
"84.47 651.46 OFFCURVE",
"152.062 692 OFFCURVE",
"250 692 CURVE SMOOTH {name = mh02;}",
"347.885 692 OFFCURVE",
"445 624.499 OFFCURVE",
"445 520 CURVE SMOOTH",
"445 445.468 OFFCURVE",
"399.431 376.802 OFFCURVE",
"328 353 CURVE",
"407.949 337.625 OFFCURVE",
"464 272.889 OFFCURVE",
"464 191 CURVE SMOOTH {name = hr01;}",
"464 54.887 OFFCURVE",
"355.125 -4 OFFCURVE",
"232 -4 CURVE SMOOTH",
"162.78 -4 OFFCURVE",
"93.475 16.237 OFFCURVE",
"36 55 CURVE",
"71 112 LINE {name = hr00;}"
);
}
);
width = 515;
},
{
layerId = "753CA70B-25C4-47AF-A15F-390B5E4CCE16";
paths = (
{
closed = 1;
nodes = (
"140.079 134.676 OFFCURVE",
"187.117 100 OFFCURVE",
"250 100 CURVE SMOOTH",
"304.271 100 OFFCURVE",
"346 134.287 OFFCURVE",
"346 191 CURVE SMOOTH",
"346 301.193 OFFCURVE",
"207.72 290 OFFCURVE",
"135 290 CURVE",
"135 395 LINE",
"213.271 395 OFFCURVE",
"331 389.718 OFFCURVE",
"331 500 CURVE SMOOTH",
"331 547.996 OFFCURVE",
"295.783 585 OFFCURVE",
"247 585 CURVE SMOOTH",
"228.477 585 OFFCURVE",
"201.098 584.8 OFFCURVE",
"184 578 CURVE",
"138 470 LINE",
"17 535 LINE",
"70.561 633.196 OFFCURVE",
"149.879 690 OFFCURVE",
"264 690 CURVE SMOOTH",
"372.929 690 OFFCURVE",
"470 620.322 OFFCURVE",
"470 505 CURVE SMOOTH",
"470 436.888 OFFCURVE",
"428.942 363.182 OFFCURVE",
"358 349 CURVE",
"435.101 332.756 OFFCURVE",
"484 281.612 OFFCURVE",
"484 201 CURVE SMOOTH",
"484 72.946 OFFCURVE",
"373.165 -4 OFFCURVE",
"253 -4 CURVE SMOOTH",
"174.723 -4 OFFCURVE",
"82.182 15.874 OFFCURVE",
"25 73 CURVE {name = hr01;}",
"96 176 LINE {name = hr00;}"
);
}
);
width = 522;
}
);
unicode = 0033;
userData = {
com.typemytype.robofont.mark = (
0.713,
0.6,
1,
1
);
};
},
{
glyphname = four;
lastChange = "2018-07-24 19:43:47 +0000";
layers = (
{
layerId = "1178ECA0-A987-4969-BD6E-681EE9C1B9C8";
paths = (
{
closed = 1;
nodes = (
"462 2 LINE",
"462 59 LINE",
"382 73 LINE",
"382 200 LINE",
"467 200 LINE",
"467 268 LINE",
"382 268 LINE",
"382 691 LINE {name = mh04;}",
"314 691 LINE {name = mh03;}",
"8 264 LINE {name = mh02;}",
"39 200 LINE {name = mh01;}",
"314 200 LINE",
"314 72 LINE",
"162 56 LINE {name = hr00;}",
"162 2 LINE"
);
},
{
closed = 1;
nodes = (
"314 592 LINE {name = mh06;}",
"314 268 LINE {name = mh05;}",
"85 268 LINE {name = mh07;}"
);
}
);
width = 508;
},
{
layerId = "753CA70B-25C4-47AF-A15F-390B5E4CCE16";
paths = (
{
closed = 1;
nodes = (
"503 0 LINE",
"500 81 LINE",
"425 94 LINE",
"425 187 LINE",
"503 187 LINE",
"503 292 LINE",
"425 292 LINE",
"425 691 LINE",
"278 691 LINE",
"-5 275 LINE",
"33 187 LINE",
"295 187 LINE",
"295 98 LINE",
"152 83 LINE {name = hr00;}",
"152 0 LINE"
);
},
{
closed = 1;
nodes = (
"295 549 LINE",
"295 292 LINE",
"117 292 LINE"
);
}
);
width = 539;
}
);
unicode = 0034;
userData = {
com.typemytype.robofont.mark = (
0.713,
0.6,
1,
1
);
};
},
{
glyphname = five;
lastChange = "2018-07-24 15:11:20 +0000";
layers = (
{
layerId = "1178ECA0-A987-4969-BD6E-681EE9C1B9C8";
paths = (
{
closed = 1;
nodes = (
"442 690 LINE",
"442 623 LINE",
"143 623 LINE",
"143 451 LINE",
"162.938 453.495 OFFCURVE",
"182.947 453 OFFCURVE",
"203 453 CURVE SMOOTH",
"339.751 453 OFFCURVE",
"456 378.442 OFFCURVE",
"456 231 CURVE SMOOTH",
"456 90.175 OFFCURVE",
"352.527 -4 OFFCURVE",
"214 -4 CURVE SMOOTH",
"146.381 -4 OFFCURVE",
"82.442 12.242 OFFCURVE",
"29 55 CURVE",
"65 112 LINE",
"104.723 76.387 OFFCURVE",
"162.235 59 OFFCURVE",
"215 59 CURVE SMOOTH",
"310.56 59 OFFCURVE",
"384 129.765 OFFCURVE",
"384 226 CURVE SMOOTH",
"384 354.032 OFFCURVE",
"283.956 390 OFFCURVE",
"173 390 CURVE SMOOTH",
"141.811 390 OFFCURVE",
"110.815 386.62 OFFCURVE",
"80 382 CURVE",
"80 657 LINE",
"111 690 LINE {name = hr00;}"
);
}
);
width = 502;
},
{
layerId = "753CA70B-25C4-47AF-A15F-390B5E4CCE16";
paths = (
{
closed = 1;
nodes = (
"467 691 LINE {name = mv01;}",
"467 585 LINE {name = mv02;}",
"205 585 LINE {name = mh01;}",
"205 470 LINE {name = mh02;}",
"216.951 471.328 OFFCURVE",
"228.975 472 OFFCURVE",
"241 472 CURVE SMOOTH",
"383.162 472 OFFCURVE",
"483 385.562 OFFCURVE",
"483 240 CURVE SMOOTH {name = mh04;}",
"483 84.318 OFFCURVE",
"369.206 -4 OFFCURVE",
"220 -4 CURVE SMOOTH {name = mh06;}",
"145.231 -4 OFFCURVE",
"65.054 18.988 OFFCURVE",
"11 73 CURVE {name = mh07;}",
"71 171 LINE",
"104.763 130.501 OFFCURVE",
"155.191 100 OFFCURVE",
"209 100 CURVE SMOOTH {name = mv03;}",
"287.148 100 OFFCURVE",
"345 159.258 OFFCURVE",
"345 237 CURVE SMOOTH",
"345 324.961 OFFCURVE",
"267.806 372 OFFCURVE",
"187 372 CURVE SMOOTH {name = mh08;}",
"148.375 372 OFFCURVE",
"110.899 366.355 OFFCURVE",
"74 355 CURVE {name = mh09;}",
"74 658 LINE",
"104 691 LINE {name = hr00;}"
);
}
);
width = 517;
}
);
unicode = 0035;
userData = {
com.typemytype.robofont.mark = (
0.713,
0.6,
1,
1
);
};
},
{
glyphname = six;
lastChange = "2018-07-24 19:43:30 +0000";
layers = (
{
layerId = "1178ECA0-A987-4969-BD6E-681EE9C1B9C8";
paths = (
{
closed = 1;
nodes = (
"427.523 -4 OFFCURVE",
"515 91.333 OFFCURVE",
"515 219 CURVE SMOOTH",
"515 343.054 OFFCURVE",
"426.762 430 OFFCURVE",
"303 430 CURVE SMOOTH {name = mh01;}",
"230.824 430 OFFCURVE",
"165.055 395.464 OFFCURVE",
"124 336 CURVE",
"124.01 449.733 OFFCURVE",
"174.415 629 OFFCURVE",
"315 629 CURVE SMOOTH {name = mh03;}",
"339.07 629 OFFCURVE",
"364.351 623.72 OFFCURVE",
"386 613 CURVE",
"438 541 LINE",
"511 612 LINE",
"467.128 663.644 OFFCURVE",
"379.917 692 OFFCURVE",
"314 692 CURVE SMOOTH {name = mh02;}",
"124.762 692 OFFCURVE",
"51 488.614 OFFCURVE",
"51 329 CURVE SMOOTH",
"51 178.71 OFFCURVE",
"122.041 -4 OFFCURVE",
"298 -4 CURVE SMOOTH"
);
},
{
closed = 1;
nodes = (
"234.638 59 OFFCURVE",
"185.115 95.296 OFFCURVE",
"158 152.5 CURVE SMOOTH",
"151.844 165.488 OFFCURVE",
"140 197.153 OFFCURVE",
"140 211 CURVE SMOOTH",
"140 295.595 OFFCURVE",
"211.379 367 OFFCURVE",
"296 367 CURVE SMOOTH",
"386.001 367 OFFCURVE",
"443 307.355 OFFCURVE",
"443 218 CURVE SMOOTH",
"443 132.163 OFFCURVE",
"389.596 59 OFFCURVE",
"299 59 CURVE SMOOTH"
);
}
);
width = 563;
},
{
layerId = "753CA70B-25C4-47AF-A15F-390B5E4CCE16";
paths = (
{
closed = 1;
nodes = (
"431.683 -4 OFFCURVE",
"522 83.577 OFFCURVE",
"522 222 CURVE SMOOTH",
"522 342.577 OFFCURVE",
"439.09 434 OFFCURVE",
"316 434 CURVE SMOOTH",
"265.311 434 OFFCURVE",
"206.527 417.022 OFFCURVE",
"172 378 CURVE",
"176.153 452.886 OFFCURVE",
"214.472 587 OFFCURVE",
"309 587 CURVE SMOOTH {name = mv01;}",
"322.523 587 OFFCURVE",
"335.951 585.694 OFFCURVE",
"349 582 CURVE {name = mh03;}",
"398 514 LINE {name = mh02;}",
"513 588 LINE {name = mh01;}",
"466.247 658.002 OFFCURVE",
"401.018 692 OFFCURVE",
"317 692 CURVE SMOOTH {name = ah01;}",
"132.355 692 OFFCURVE",
"36 515.248 OFFCURVE",
"36 350 CURVE SMOOTH",
"36 182.171 OFFCURVE",
"93.941 -4 OFFCURVE",
"294 -4 CURVE SMOOTH"
);
},
{
closed = 1;
nodes = (
"265.97 101 OFFCURVE",
"243.806 111.109 OFFCURVE",
"227 131 CURVE SMOOTH",
"215.81 144.244 OFFCURVE",
"189 190.755 OFFCURVE",
"189 207 CURVE SMOOTH {name = mh06;}",
"189 269.397 OFFCURVE",
"217.601 327 OFFCURVE",
"288 327 CURVE SMOOTH",
"347.29 327 OFFCURVE",
"385 270.788 OFFCURVE",
"385 216 CURVE SMOOTH {name = mh07;}",
"385 154.218 OFFCURVE",
"361.455 101 OFFCURVE",
"292 101 CURVE SMOOTH"
);
}
);
width = 554;
}
);
unicode = 0036;
userData = {
com.typemytype.robofont.mark = (
0.713,
0.6,
1,
1
);
};
},
{
glyphname = seven;
lastChange = "2018-07-24 15:11:20 +0000";
layers = (
{
layerId = "1178ECA0-A987-4969-BD6E-681EE9C1B9C8";
paths = (
{
closed = 1;
nodes = (
"72 513 LINE",
"30 513 LINE",
"30 690 LINE {name = mh01;}",
"399 690 LINE",
"417 665 LINE",
"196 0 LINE",
"126 0 LINE",
"121 14 LINE {name = mh02;}",
"345 625 LINE {name = mh03;}",
"102 625 LINE {name = hr00;}"
);
}
);
width = 427;
},
{
layerId = "753CA70B-25C4-47AF-A15F-390B5E4CCE16";
paths = (
{
closed = 1;
nodes = (
"108 454 LINE",
"24 454 LINE",
"24 691 LINE {name = mv01;}",
"440 691 LINE",
"458 665 LINE",
"251 0 LINE",
"115 0 LINE",
"104 20 LINE",
"324 567 LINE {name = mh01;}",
"129 567 LINE {name = hr01;}"
);
}
);
width = 455;
}
);
unicode = 0037;
userData = {
com.typemytype.robofont.mark = (
0.713,
0.6,
1,
1
);
};
},
{
glyphname = eight;
lastChange = "2018-07-24 15:11:20 +0000";
layers = (
{
layerId = "1178ECA0-A987-4969-BD6E-681EE9C1B9C8";
paths = (
{
closed = 1;
nodes = (
"80 634.496 OFFCURVE",
"157.903 692 OFFCURVE",
"254 692 CURVE SMOOTH {name = mh01;}",
"355.931 692 OFFCURVE",
"430 641.039 OFFCURVE",
"430 533 CURVE SMOOTH",
"430 462.227 OFFCURVE",
"372.356 413.275 OFFCURVE",
"321 373 CURVE",
"400.413 325.737 OFFCURVE",
"466 272.075 OFFCURVE",
"466 172 CURVE SMOOTH",
"466 55.598 OFFCURVE",
"358.365 -4 OFFCURVE",
"254 -4 CURVE SMOOTH",
"147.797 -4 OFFCURVE",
"47 54.927 OFFCURVE",
"47 172 CURVE SMOOTH",
"47 265.925 OFFCURVE",
"115.407 322.539 OFFCURVE",
"188 369 CURVE",
"129.378 409.38 OFFCURVE",
"80 457.273 OFFCURVE",
"80 533 CURVE SMOOTH {name = hr00;}"
);
},
{
closed = 1;
nodes = (
"115 96.27 OFFCURVE",
"185.202 59 OFFCURVE",
"254 59 CURVE SMOOTH",
"322.547 59 OFFCURVE",
"397 95.45 OFFCURVE",
"397 173 CURVE SMOOTH",
"397 263.156 OFFCURVE",
"304.954 292.816 OFFCURVE",
"243 335 CURVE",
"185.775 294.125 OFFCURVE",
"115 252.632 OFFCURVE",
"115 173 CURVE SMOOTH"
);
},
{
closed = 1;
nodes = (
"362 599.52 OFFCURVE",
"309.04 629 OFFCURVE",
"254 629 CURVE SMOOTH {name = mh02;}",
"203.413 629 OFFCURVE",
"148 597.728 OFFCURVE",
"148 542 CURVE SMOOTH",
"148 468.797 OFFCURVE",
"210.101 437.532 OFFCURVE",
"265 405 CURVE {name = mh03;}",
"304.137 437.958 OFFCURVE",
"362 482.882 OFFCURVE",
"362 539 CURVE SMOOTH"
);
}
);
width = 513;
},
{
layerId = "753CA70B-25C4-47AF-A15F-390B5E4CCE16";
paths = (
{
closed = 1;
nodes = (
"69 640.257 OFFCURVE",
"173.237 696 OFFCURVE",
"276 696 CURVE SMOOTH {name = mh03;}",
"379.132 696 OFFCURVE",
"480 642.734 OFFCURVE",
"480 528 CURVE SMOOTH",
"480 460.336 OFFCURVE",
"436.032 411.72 OFFCURVE",
"384 374 CURVE",
"459.107 331.94 OFFCURVE",
"512 286.793 OFFCURVE",
"512 194 CURVE SMOOTH {name = mh04;}",
"512 60.574 OFFCURVE",
"389.942 -5 OFFCURVE",
"270 -5 CURVE SMOOTH",
"153.91 -5 OFFCURVE",
"33 52.399 OFFCURVE",
"33 184 CURVE SMOOTH {name = mh06;}",
"33 267.421 OFFCURVE",
"75.231 337.112 OFFCURVE",
"149 376 CURVE",
"95.513 414.2 OFFCURVE",
"69 459.824 OFFCURVE",
"69 526 CURVE SMOOTH {name = mh01;}"
);
},
{
closed = 1;
nodes = (
"171 136.961 OFFCURVE",
"213.935 100 OFFCURVE",
"273 100 CURVE SMOOTH",
"330.138 100 OFFCURVE",
"374 140.263 OFFCURVE",
"374 198 CURVE SMOOTH",
"374 265.656 OFFCURVE",
"302 294.5 OFFCURVE",
"251 320 CURVE",
"209.801 292.536 OFFCURVE",
"171 249.232 OFFCURVE",
"171 197 CURVE SMOOTH"
);
},
{
closed = 1;
nodes = (
"355 580.322 OFFCURVE",
"322.144 610 OFFCURVE",
"275 610 CURVE SMOOTH",
"228.147 610 OFFCURVE",
"195 581.157 OFFCURVE",
"195 533 CURVE SMOOTH",
"195 478.07 OFFCURVE",
"238.037 447.761 OFFCURVE",
"282 424 CURVE",
"316.251 450.348 OFFCURVE",
"355 485.104 OFFCURVE",
"355 532 CURVE SMOOTH"
);
}
);
width = 545;
}
);
unicode = 0038;
userData = {
com.typemytype.robofont.mark = (
0.713,
0.6,
1,
1
);
};
},
{
glyphname = nine;
lastChange = "2018-07-24 19:43:09 +0000";
layers = (
{
layerId = "1178ECA0-A987-4969-BD6E-681EE9C1B9C8";
paths = (
{
closed = 1;
nodes = (
"418.26 -4 OFFCURVE",
"480 179.11 OFFCURVE",
"480 328 CURVE SMOOTH",
"480 483.581 OFFCURVE",
"457.803 691 OFFCURVE",
"256 691 CURVE SMOOTH {name = mh01;}",
"129.76 691 OFFCURVE",
"51 595.397 OFFCURVE",
"51 473 CURVE SMOOTH",
"51 355.032 OFFCURVE",
"129.34 257 OFFCURVE",
"252 257 CURVE SMOOTH {name = hr00;}",
"310.941 257 OFFCURVE",
"370.553 281.747 OFFCURVE",
"407 329 CURVE",
"404.191 217.847 OFFCURVE",
"375.158 59 OFFCURVE",
"233 59 CURVE SMOOTH",
"183.177 59 OFFCURVE",
"123.834 89.19 OFFCURVE",
"89 124 CURVE",
"46 64 LINE",
"99.914 18.413 OFFCURVE",
"169.842 -4 OFFCURVE",
"240 -4 CURVE SMOOTH"
);
},
{
closed = 1;
nodes = (
"167.908 321 OFFCURVE",
"124 394.378 OFFCURVE",
"124 478 CURVE SMOOTH",
"124 558.071 OFFCURVE",
"173.835 628 OFFCURVE",
"259 628 CURVE SMOOTH {name = mh02;}",
"344 628 OFFCURVE",
"401 530 OFFCURVE",
"401 444 CURVE",
"401 387 OFFCURVE",
"323 321 OFFCURVE",
"259 321 CURVE SMOOTH {name = mh03;}"
);
}
);
width = 535;
},
{
layerId = "753CA70B-25C4-47AF-A15F-390B5E4CCE16";
paths = (
{
closed = 1;
nodes = (
"423.612 -4 OFFCURVE",
"506 171.009 OFFCURVE",
"506 338 CURVE SMOOTH",
"506 489.766 OFFCURVE",
"459.931 691 OFFCURVE",
"271 691 CURVE SMOOTH {name = mh01;}",
"127.961 691 OFFCURVE",
"39 600.976 OFFCURVE",
"39 458 CURVE SMOOTH",
"39 325.489 OFFCURVE",
"122.342 249 OFFCURVE",
"253 249 CURVE SMOOTH",
"293.623 249 OFFCURVE",
"336.329 261.857 OFFCURVE",
"367 289 CURVE",
"363.258 210.298 OFFCURVE",
"343.779 101 OFFCURVE",
"243 101 CURVE SMOOTH",
"188.123 101 OFFCURVE",
"137.043 130.556 OFFCURVE",
"98 167 CURVE",
"27 73 LINE",
"76.966 23.149 OFFCURVE",
"164.709 -4 OFFCURVE",
"234 -4 CURVE SMOOTH {name = hr00;}"
);
},
{
closed = 1;
nodes = (
"196.751 354 OFFCURVE",
"175 410.333 OFFCURVE",
"175 467 CURVE SMOOTH",
"175 520.849 OFFCURVE",
"198.225 586 OFFCURVE",
"262 586 CURVE SMOOTH",
"346.582 586 OFFCURVE",
"361.996 493.089 OFFCURVE",
"366 427 CURVE",
"349.529 385.802 OFFCURVE",
"307.173 354 OFFCURVE",
"262 354 CURVE SMOOTH"
);
}
);
width = 543;
}
);
unicode = 0039;
userData = {
com.typemytype.robofont.mark = (
0.713,
0.6,
1,
1
);
};
},
{
glyphname = onesuperior;
lastChange = "2018-07-24 19:41:41 +0000";
layers = (
{
layerId = "1178ECA0-A987-4969-BD6E-681EE9C1B9C8";
paths = (
{
closed = 1;
nodes = (
"178 434 LINE",
"178 470 LINE",
"143 479 LINE",
"143 688 LINE",
"134 693 LINE {name = mv01;}",
"41 664 LINE",
"50 629 LINE",
"89 635 LINE",
"89 476 LINE",
"51 468 LINE {name = hr00;}",
"54 434 LINE"
);
}
);
width = 220;
},
{
layerId = "753CA70B-25C4-47AF-A15F-390B5E4CCE16";
paths = (
{
closed = 1;
nodes = (
"226 402 LINE",
"226 449 LINE",
"189 458 LINE",
"192 715 LINE",
"175 727 LINE",
"26 689 LINE",
"35 644 LINE",
"84 652 LINE",
"84 455 LINE",
"46 447 LINE {name = hr00;}",
"49 402 LINE"
);
}
);
width = 260;
}
);
unicode = 00B9;
userData = {
com.typemytype.robofont.mark = (
0.713,
0.6,
1,
1
);
};
},
{
glyphname = twosuperior;
lastChange = "2018-07-24 19:41:20 +0000";
layers = (
{
layerId = "1178ECA0-A987-4969-BD6E-681EE9C1B9C8";
paths = (
{
closed = 1;
nodes = (
"209 434 LINE",
"220 508 LINE",
"189 508 LINE",
"175 476 LINE",
"129 476 LINE",
"166.574 513.551 OFFCURVE",
"211 557.896 OFFCURVE",
"211 615 CURVE SMOOTH",
"211 659.873 OFFCURVE",
"180 691 OFFCURVE",
"135 691 CURVE SMOOTH {name = mh01;}",
"89 691 OFFCURVE",
"53.81 666.913 OFFCURVE",
"42 622 CURVE",
"89 608 LINE",
"100 639 LINE",
"108.039 642.21 OFFCURVE",
"116.334 644 OFFCURVE",
"125 644 CURVE SMOOTH",
"147.323 644 OFFCURVE",
"158 631.966 OFFCURVE",
"158 610 CURVE SMOOTH",
"158 560.047 OFFCURVE",
"85.962 492.847 OFFCURVE",
"50 462 CURVE",
"53 434 LINE {name = hr00;}"
);
}
);
width = 265;
},
{
layerId = "753CA70B-25C4-47AF-A15F-390B5E4CCE16";
paths = (
{
closed = 1;
nodes = (
"285 402 LINE",
"296 513 LINE",
"243 513 LINE",
"225 477 LINE",
"168 477 LINE",
"223.977 514.31 OFFCURVE",
"290 549.624 OFFCURVE",
"290 627 CURVE SMOOTH",
"290 692.213 OFFCURVE",
"229.625 728 OFFCURVE",
"170 728 CURVE SMOOTH",
"108.957 728 OFFCURVE",
"49.605 692.778 OFFCURVE",
"27 635 CURVE",
"116 607 LINE",
"136 648 LINE",
"141.603 649.474 OFFCURVE",
"147.162 651 OFFCURVE",
"153 651 CURVE SMOOTH",
"174.478 651 OFFCURVE",
"185 640.174 OFFCURVE",
"185 619 CURVE SMOOTH",
"185 565.807 OFFCURVE",
"74.626 498.292 OFFCURVE",
"41 461 CURVE",
"58 402 LINE {name = hr00;}"
);
}
);
width = 336;
}
);
unicode = 00B2;
userData = {
com.typemytype.robofont.mark = (
0.713,
0.6,
1,
1
);
};
},
{
glyphname = threesuperior;
lastChange = "2018-07-24 15:11:20 +0000";
layers = (
{
layerId = "1178ECA0-A987-4969-BD6E-681EE9C1B9C8";
paths = (
{
closed = 1;
nodes = (
"87.294 489.461 OFFCURVE",
"102.454 481 OFFCURVE",
"129 481 CURVE SMOOTH",
"147.92 481 OFFCURVE",
"172 488.709 OFFCURVE",
"172 512 CURVE SMOOTH",
"172 541.542 OFFCURVE",
"124.624 542 OFFCURVE",
"104 542 CURVE",
"104 586 LINE {name = mv01;}",
"125.621 585.992 OFFCURVE",
"159 589.539 OFFCURVE",
"159 618 CURVE SMOOTH",
"159 636.764 OFFCURVE",
"144.642 644 OFFCURVE",
"128 644 CURVE SMOOTH",
"120.049 644 OFFCURVE",
"110.366 643.428 OFFCURVE",
"104 638 CURVE",
"92 607 LINE",
"43 622 LINE {name = mv02;}",
"55.914 665.06 OFFCURVE",
"88.789 691 OFFCURVE",
"134 691 CURVE SMOOTH {name = mv03;}",
"170.529 691 OFFCURVE",
"210 664.414 OFFCURVE",
"210 625 CURVE SMOOTH {name = mh01;}",
"210 596.154 OFFCURVE",
"195.52 572.904 OFFCURVE",
"166 568 CURVE {name = hr01;}",
"199.221 561.854 OFFCURVE",
"225 544.737 OFFCURVE",
"225 508 CURVE SMOOTH {name = mh02;}",
"225 452.725 OFFCURVE",
"174.427 434 OFFCURVE",
"127 434 CURVE SMOOTH {name = mv04;}",
"93.348 434 OFFCURVE",
"63.81 444.967 OFFCURVE",
"39 468 CURVE",
"68 507 LINE {name = hr00;}"
);
}
);
width = 264;
},
{
layerId = "753CA70B-25C4-47AF-A15F-390B5E4CCE16";
paths = (
{
closed = 1;
nodes = (
"84.313 488.691 OFFCURVE",
"113.42 476 OFFCURVE",
"145 476 CURVE SMOOTH",
"164.5 476 OFFCURVE",
"185 485.909 OFFCURVE",
"185 508 CURVE SMOOTH",
"185 543.329 OFFCURVE",
"136.199 540.003 OFFCURVE",
"112 540 CURVE",
"112 592 LINE",
"138.575 591.995 OFFCURVE",
"178 594.894 OFFCURVE",
"178 630 CURVE SMOOTH",
"178 643.679 OFFCURVE",
"164.454 652 OFFCURVE",
"152 652 CURVE SMOOTH",
"143.265 652 OFFCURVE",
"137.272 650.074 OFFCURVE",
"129 648 CURVE",
"114 621 LINE",
"31 650 LINE",
"54.141 705.826 OFFCURVE",
"109.659 728 OFFCURVE",
"167 728 CURVE SMOOTH",
"217.301 728 OFFCURVE",
"283 698.282 OFFCURVE",
"283 640 CURVE SMOOTH",
"283 603.478 OFFCURVE",
"264.761 579.413 OFFCURVE",
"229 570 CURVE",
"267.134 560.449 OFFCURVE",
"290 538.097 OFFCURVE",
"290 497 CURVE SMOOTH",
"290 418.463 OFFCURVE",
"209.925 402 OFFCURVE",
"147 402 CURVE SMOOTH",
"108.579 402 OFFCURVE",
"56.726 416.516 OFFCURVE",
"28 443 CURVE",
"62 511 LINE {name = hr00;}"
);
}
);
width = 323;
}
);
unicode = 00B3;
userData = {
com.typemytype.robofont.mark = (
0.713,
0.6,
1,
1
);
};
},
{
glyphname = period;
lastChange = "2018-07-24 15:11:20 +0000";
layers = (
{
layerId = "1178ECA0-A987-4969-BD6E-681EE9C1B9C8";
paths = (
{
closed = 1;
nodes = (
"51 77.86 OFFCURVE",
"74.206 101 OFFCURVE",
"103 101 CURVE SMOOTH",
"131.133 101 OFFCURVE",
"155 77.133 OFFCURVE",
"155 49 CURVE SMOOTH",
"155 20.206 OFFCURVE",
"131.86 -3 OFFCURVE",
"103 -3 CURVE SMOOTH",
"73.697 -3 OFFCURVE",
"51 19.697 OFFCURVE",
"51 49 CURVE SMOOTH {name = hr00;}"
);
}
);
width = 206;
},
{
layerId = "753CA70B-25C4-47AF-A15F-390B5E4CCE16";
paths = (
{
closed = 1;
nodes = (
"38 100.035 OFFCURVE",
"68.193 129 OFFCURVE",
"105 129 CURVE SMOOTH",
"142.337 129 OFFCURVE",
"172 100.633 OFFCURVE",
"172 63 CURVE SMOOTH",
"172 25.495 OFFCURVE",
"142.505 -4 OFFCURVE",
"105 -4 CURVE SMOOTH",
"68.046 -4 OFFCURVE",
"38 26.103 OFFCURVE",
"38 63 CURVE SMOOTH {name = hr00;}"
);
}
);
width = 211;
}
);
unicode = 002E;
userData = {
com.typemytype.robofont.mark = (
0.713,
0.6,
1,
1
);
};
},
{
glyphname = comma;
lastChange = "2018-07-24 19:35:21 +0000";
layers = (
{
layerId = "1178ECA0-A987-4969-BD6E-681EE9C1B9C8";
paths = (
{
closed = 1;
nodes = (
"110.497 -74.263 OFFCURVE",
"140 4.734 OFFCURVE",
"140 61 CURVE SMOOTH",
"140 83.654 OFFCURVE",
"136.469 106.044 OFFCURVE",
"131 128 CURVE",
"53 115 LINE",
"76 -1 LINE",
"33 -81 LINE {name = hr00;}",
"33 -95 LINE",
"69 -113 LINE"
);
}
);
width = 199;
},
{
layerId = "753CA70B-25C4-47AF-A15F-390B5E4CCE16";
paths = (
{
closed = 1;
nodes = (
"150.125 -113.125 OFFCURVE",
"186 -29.807 OFFCURVE",
"186 47 CURVE SMOOTH",
"186 75.688 OFFCURVE",
"183.629 104.832 OFFCURVE",
"178 133 CURVE",
"41 114 LINE",
"67 -11 LINE",
"16 -123 LINE",
"19 -134 LINE {name = hr00;}",
"103 -173 LINE"
);
}
);
width = 234;
}
);
unicode = 002C;
userData = {
com.typemytype.robofont.mark = (
0.713,
0.6,
1,
1
);
};
},
{
glyphname = colon;
lastChange = "2018-07-24 15:11:20 +0000";
layers = (
{
layerId = "1178ECA0-A987-4969-BD6E-681EE9C1B9C8";
paths = (
{
closed = 1;
nodes = (
"63 258.005 OFFCURVE",
"87.34 281 OFFCURVE",
"116 281 CURVE SMOOTH {name = mh01;}",
"144.238 281 OFFCURVE",
"167 256.958 OFFCURVE",
"167 229 CURVE SMOOTH",
"167 200.387 OFFCURVE",
"144.978 177 OFFCURVE",
"116 177 CURVE SMOOTH",
"86.808 177 OFFCURVE",
"63 199.52 OFFCURVE",
"63 229 CURVE SMOOTH {name = hr00;}"
);
},
{
closed = 1;
nodes = (
"63 468.005 OFFCURVE",
"87.34 491 OFFCURVE",
"116 491 CURVE SMOOTH {name = mh02;}",
"144.238 491 OFFCURVE",
"167 466.958 OFFCURVE",
"167 439 CURVE SMOOTH",
"167 410.387 OFFCURVE",
"144.978 387 OFFCURVE",
"116 387 CURVE SMOOTH",
"86.808 387 OFFCURVE",
"63 409.52 OFFCURVE",
"63 439 CURVE SMOOTH"
);
}
);
width = 230;
},
{
layerId = "753CA70B-25C4-47AF-A15F-390B5E4CCE16";
paths = (
{
closed = 1;
nodes = (
"54 230.793 OFFCURVE",
"84.794 259 OFFCURVE",
"122 259 CURVE SMOOTH {name = mv01;}",
"158.903 259 OFFCURVE",
"188 229.889 OFFCURVE",
"188 193 CURVE SMOOTH {name = mh03;}",
"188 156.325 OFFCURVE",
"159.041 126 OFFCURVE",
"122 126 CURVE SMOOTH {name = mv02;}",
"84.623 126 OFFCURVE",
"54 155.332 OFFCURVE",
"54 193 CURVE SMOOTH {name = hr00;}"
);
},
{
closed = 1;
nodes = (
"54 492.668 OFFCURVE",
"84.623 522 OFFCURVE",
"122 522 CURVE SMOOTH {name = ah01;}",
"159.041 522 OFFCURVE",
"188 491.675 OFFCURVE",
"188 455 CURVE SMOOTH {name = mh06;}",
"188 418.993 OFFCURVE",
"158.285 388 OFFCURVE",
"122 388 CURVE SMOOTH {name = mv04;}",
"85.28 388 OFFCURVE",
"54 417.931 OFFCURVE",
"54 455 CURVE SMOOTH {name = mh05;}"
);
}
);
width = 241;
}
);
unicode = 003A;
userData = {
com.typemytype.robofont.mark = (
0.713,
0.6,
1,
1
);
};
},
{
glyphname = semicolon;
lastChange = "2018-07-24 19:35:14 +0000";
layers = (
{
layerId = "1178ECA0-A987-4969-BD6E-681EE9C1B9C8";
paths = (
{
closed = 1;
nodes = (
"133.497 -74.263 OFFCURVE",
"163 4.734 OFFCURVE",
"163 61 CURVE SMOOTH",
"163 83.654 OFFCURVE",
"159.469 106.044 OFFCURVE",
"154 128 CURVE",
"76 115 LINE",
"99 -1 LINE",
"56 -81 LINE",
"56 -95 LINE {name = hr00;}",
"92 -113 LINE"
);
},
{
closed = 1;
nodes = (
"137.978 207 OFFCURVE",
"160 230.387 OFFCURVE",
"160 259 CURVE SMOOTH",
"160 286.958 OFFCURVE",
"137.238 311 OFFCURVE",
"109 311 CURVE SMOOTH",
"80.34 311 OFFCURVE",
"56 288.005 OFFCURVE",
"56 259 CURVE SMOOTH",
"56 229.52 OFFCURVE",
"79.808 207 OFFCURVE",
"109 207 CURVE SMOOTH"
);
}
);
width = 228;
},
{
layerId = "753CA70B-25C4-47AF-A15F-390B5E4CCE16";
paths = (
{
closed = 1;
nodes = (
"157.389 -113.348 OFFCURVE",
"194 -29.349 OFFCURVE",
"194 47 CURVE SMOOTH",
"194 75.067 OFFCURVE",
"192.747 105.674 OFFCURVE",
"186 133 CURVE",
"49 114 LINE",
"75 -11 LINE",
"24 -123 LINE {name = hr00;}",
"27 -134 LINE",
"111 -173 LINE"
);
},
{
closed = 1;
nodes = (
"162.285 228 OFFCURVE",
"192 258.993 OFFCURVE",
"192 295 CURVE SMOOTH",
"192 331.675 OFFCURVE",
"163.041 362 OFFCURVE",
"126 362 CURVE SMOOTH",
"88.623 362 OFFCURVE",
"58 332.668 OFFCURVE",
"58 295 CURVE SMOOTH",
"58 257.931 OFFCURVE",
"89.28 228 OFFCURVE",
"126 228 CURVE SMOOTH"
);
}
);
width = 248;
}
);
unicode = 003B;
userData = {
com.typemytype.robofont.mark = (
0.713,
0.6,
1,
1
);
};
},
{
glyphname = exclam;
lastChange = "2018-07-24 15:11:20 +0000";
layers = (
{
layerId = "1178ECA0-A987-4969-BD6E-681EE9C1B9C8";
paths = (
{
closed = 1;
nodes = (
"77 679 LINE {name = mh01;}",
"159 691 LINE",
"180 653 LINE",
"153 228 LINE",
"95 228 LINE {name = hr00;}"
);
},
{
closed = 1;
nodes = (
"72 77.86 OFFCURVE",
"95.206 101 OFFCURVE",
"124 101 CURVE SMOOTH",
"152.133 101 OFFCURVE",
"176 77.133 OFFCURVE",
"176 49 CURVE SMOOTH",
"176 20.206 OFFCURVE",
"152.86 -3 OFFCURVE",
"124 -3 CURVE SMOOTH",
"94.697 -3 OFFCURVE",
"72 19.697 OFFCURVE",
"72 49 CURVE SMOOTH {name = hr01;}"
);
}
);
width = 253;
},
{
layerId = "753CA70B-25C4-47AF-A15F-390B5E4CCE16";
paths = (
{
closed = 1;
nodes = (
"58 675 LINE {name = ah01;}",
"202 689 LINE {name = mv01;}",
"223 651 LINE {name = mh01;}",
"175 247 LINE {name = mv02;}",
"97 247 LINE {name = hr00;}"
);
},
{
closed = 1;
nodes = (
"70 100.793 OFFCURVE",
"100.794 129 OFFCURVE",
"138 129 CURVE SMOOTH",
"174.903 129 OFFCURVE",
"204 99.889 OFFCURVE",
"204 63 CURVE SMOOTH",
"204 26.325 OFFCURVE",
"175.041 -4 OFFCURVE",
"138 -4 CURVE SMOOTH",
"100.623 -4 OFFCURVE",
"70 25.332 OFFCURVE",
"70 63 CURVE SMOOTH"
);
}
);
width = 276;
}
);
unicode = 0021;
userData = {
com.typemytype.robofont.mark = (
0.713,
0.6,
1,
1
);
};
},
{
glyphname = exclamdown;
lastChange = "2018-07-24 15:11:20 +0000";
layers = (
{
layerId = "1178ECA0-A987-4969-BD6E-681EE9C1B9C8";
paths = (
{
closed = 1;
nodes = (
"173 -165 LINE",
"152 -203 LINE",
"70 -191 LINE",
"88 260 LINE {name = mh01;}",
"146 260 LINE {name = hr00;}"
);
},
{
closed = 1;
nodes = (
"65 468.303 OFFCURVE",
"87.697 491 OFFCURVE",
"117 491 CURVE SMOOTH {name = mh02;}",
"145.86 491 OFFCURVE",
"169 467.794 OFFCURVE",
"169 439 CURVE SMOOTH",
"169 410.867 OFFCURVE",
"145.133 387 OFFCURVE",
"117 387 CURVE SMOOTH",
"88.206 387 OFFCURVE",
"65 410.14 OFFCURVE",
"65 439 CURVE SMOOTH {name = hr01;}"
);
}
);
width = 239;
},
{
layerId = "753CA70B-25C4-47AF-A15F-390B5E4CCE16";
paths = (
{
closed = 1;
nodes = (
"216 -163 LINE",
"195 -201 LINE",
"51 -187 LINE",
"90 241 LINE",
"168 241 LINE {name = hr00;}"
);
},
{
closed = 1;
nodes = (
"63 462.007 OFFCURVE",
"94.29 492 OFFCURVE",
"131 492 CURVE SMOOTH",
"167.506 492 OFFCURVE",
"197 461.199 OFFCURVE",
"197 425 CURVE SMOOTH",
"197 388.67 OFFCURVE",
"167.337 359 OFFCURVE",
"131 359 CURVE SMOOTH",
"94.471 359 OFFCURVE",
"63 387.87 OFFCURVE",
"63 425 CURVE SMOOTH {name = hr01;}"
);
}
);
width = 264;
}
);
unicode = 00A1;
userData = {
com.typemytype.robofont.mark = (
0.713,
0.6,
1,
1
);
};
},
{
glyphname = question;
lastChange = "2018-07-24 15:11:20 +0000";
layers = (
{
layerId = "1178ECA0-A987-4969-BD6E-681EE9C1B9C8";
paths = (
{
closed = 1;
nodes = (
"102.143 246.485 OFFCURVE",
"102 256.365 OFFCURVE",
"102 266 CURVE SMOOTH",
"102 410.819 OFFCURVE",
"291 399.586 OFFCURVE",
"291 543 CURVE SMOOTH",
"291 601.878 OFFCURVE",
"245.237 627 OFFCURVE",
"192 627 CURVE SMOOTH {name = mh01;}",
"169.894 627 OFFCURVE",
"146.287 624.076 OFFCURVE",
"125 618 CURVE",
"98 522 LINE",
"47 522 LINE",
"66 665 LINE",
"109.258 678.954 OFFCURVE",
"153.285 690 OFFCURVE",
"199 690 CURVE SMOOTH {name = mh02;}",
"291.672 690 OFFCURVE",
"365 648.234 OFFCURVE",
"365 547 CURVE SMOOTH",
"365 364.199 OFFCURVE",
"147.062 380.361 OFFCURVE",
"162 238 CURVE",
"104 237 LINE {name = hr00;}"
);
},
{
closed = 1;
nodes = (
"87 78.005 OFFCURVE",
"111.34 101 OFFCURVE",
"140 101 CURVE SMOOTH",
"168.238 101 OFFCURVE",
"191 76.958 OFFCURVE",
"191 49 CURVE SMOOTH",
"191 20.387 OFFCURVE",
"168.978 -3 OFFCURVE",
"140 -3 CURVE SMOOTH",
"110.808 -3 OFFCURVE",
"87 19.52 OFFCURVE",
"87 49 CURVE SMOOTH"
);
}
);
width = 397;
},
{
layerId = "753CA70B-25C4-47AF-A15F-390B5E4CCE16";
paths = (
{
closed = 1;
nodes = (
"121.083 252.934 OFFCURVE",
"118 282.622 OFFCURVE",
"118 302 CURVE SMOOTH",
"118 420.755 OFFCURVE",
"264 445.144 OFFCURVE",
"264 534 CURVE SMOOTH",
"264 574.511 OFFCURVE",
"238.371 599 OFFCURVE",
"198 599 CURVE SMOOTH",
"181.559 599 OFFCURVE",
"153.196 596.626 OFFCURVE",
"138 591 CURVE",
"113 495 LINE",
"32 495 LINE",
"48 670 LINE {name = mh01;}",
"102.711 688.805 OFFCURVE",
"156.853 702 OFFCURVE",
"215 702 CURVE SMOOTH {name = mh02;}",
"310.87 702 OFFCURVE",
"401 658.457 OFFCURVE",
"401 551 CURVE SMOOTH",
"401 365.857 OFFCURVE",
"217.593 360.16 OFFCURVE",
"227 236 CURVE",
"128 235 LINE {name = hr00;}"
);
},
{
closed = 1;
nodes = (
"111 100.665 OFFCURVE",
"140.697 129 OFFCURVE",
"178 129 CURVE SMOOTH {name = hr01;}",
"215.467 129 OFFCURVE",
"244 100.467 OFFCURVE",
"244 63 CURVE SMOOTH",
"244 25.697 OFFCURVE",
"215.665 -4 OFFCURVE",
"178 -4 CURVE SMOOTH",
"140.495 -4 OFFCURVE",
"111 25.495 OFFCURVE",
"111 63 CURVE SMOOTH"
);
}
);
width = 429;
}
);
unicode = 003F;
userData = {
com.typemytype.robofont.mark = (
0.713,
0.6,
1,
1
);
};
},
{
glyphname = questiondown;
lastChange = "2018-07-24 19:34:55 +0000";
layers = (
{
layerId = "1178ECA0-A987-4969-BD6E-681EE9C1B9C8";
paths = (
{
closed = 1;
nodes = (
"232.509 -208 OFFCURVE",
"288.529 -200.814 OFFCURVE",
"324 -189 CURVE",
"343 -42 LINE",
"293 -42 LINE",
"265 -139 LINE",
"243.351 -143.99 OFFCURVE",
"220.22 -147 OFFCURVE",
"198 -147 CURVE SMOOTH",
"144.932 -147 OFFCURVE",
"100 -121.241 OFFCURVE",
"100 -63 CURVE SMOOTH",
"100 80.562 OFFCURVE",
"289 68.042 OFFCURVE",
"289 214 CURVE SMOOTH",
"289 223.677 OFFCURVE",
"288.547 233.613 OFFCURVE",
"286 243 CURVE {name = hr00;}",
"229 241 LINE",
"244.99 104.008 OFFCURVE",
"26 110.287 OFFCURVE",
"26 -67 CURVE SMOOTH",
"26 -169.007 OFFCURVE",
"102.695 -208 OFFCURVE",
"195 -208 CURVE SMOOTH"
);
},
{
closed = 1;
nodes = (
"279.613 379 OFFCURVE",
"303 401.022 OFFCURVE",
"303 430 CURVE SMOOTH",
"303 459.915 OFFCURVE",
"281.243 483 OFFCURVE",
"251 483 CURVE SMOOTH {name = mh02;}",
"221.304 483 OFFCURVE",
"199 459.319 OFFCURVE",
"199 430 CURVE SMOOTH",
"199 401.762 OFFCURVE",
"223.042 379 OFFCURVE",
"251 379 CURVE SMOOTH"
);
}
);
width = 383;
},
{
layerId = "753CA70B-25C4-47AF-A15F-390B5E4CCE16";
paths = (
{
closed = 1;
nodes = (
"259.608 -202 OFFCURVE",
"302.85 -189.467 OFFCURVE",
"357 -170 CURVE",
"373 5 LINE",
"302 5 LINE",
"276 -90 LINE",
"261.861 -97.751 OFFCURVE",
"238.671 -99 OFFCURVE",
"223 -99 CURVE SMOOTH {name = hr01;}",
"183.56 -99 OFFCURVE",
"159 -73.179 OFFCURVE",
"159 -34 CURVE SMOOTH",
"159 55.583 OFFCURVE",
"304 64.655 OFFCURVE",
"304 185 CURVE SMOOTH {name = hr02;}",
"304 207.339 OFFCURVE",
"300.883 231.388 OFFCURVE",
"295 253 CURVE",
"195 252 LINE {name = hr00;}",
"195 129.483 OFFCURVE",
"22 127.144 OFFCURVE",
"22 -50 CURVE SMOOTH",
"22 -151.198 OFFCURVE",
"108.319 -202 OFFCURVE",
"201 -202 CURVE SMOOTH"
);
},
{
closed = 1;
nodes = (
"281.657 359 OFFCURVE",
"312 388.04 OFFCURVE",
"312 425 CURVE SMOOTH",
"312 461.835 OFFCURVE",
"281.835 492 OFFCURVE",
"245 492 CURVE SMOOTH",
"208.04 492 OFFCURVE",
"179 461.657 OFFCURVE",
"179 425 CURVE SMOOTH {name = hr03;}",
"179 388.216 OFFCURVE",
"208.216 359 OFFCURVE",
"245 359 CURVE SMOOTH"
);
}
);
width = 407;
}
);
unicode = 00BF;
userData = {
com.typemytype.robofont.mark = (
0.713,
0.6,
1,
1
);
};
},
{
glyphname = periodcentered;
lastChange = "2018-07-24 15:11:20 +0000";
layers = (
{
layerId = "1178ECA0-A987-4969-BD6E-681EE9C1B9C8";
paths = (
{
closed = 1;
nodes = (
"158 399 LINE",
"167 390 LINE",
"167 255 LINE",
"63 255 LINE",
"63 399 LINE {name = hr00;}"
);
}
);
width = 230;
},
{
layerId = "753CA70B-25C4-47AF-A15F-390B5E4CCE16";
paths = (
{
closed = 1;
nodes = (
"190 224 LINE",
"190 379 LINE",
"172 399 LINE",
"54 399 LINE",
"54 224 LINE {name = hr00;}"
);
}
);
width = 243;
}
);
unicode = 00B7;
userData = {
com.typemytype.robofont.mark = (
0.713,
0.6,
1,
1
);
};
},
{
glyphname = bullet;
lastChange = "2018-07-24 15:11:20 +0000";
layers = (
{
layerId = "1178ECA0-A987-4969-BD6E-681EE9C1B9C8";
paths = (
{
closed = 1;
nodes = (
"49 425.723 OFFCURVE",
"82.932 461 OFFCURVE",
"126 461 CURVE SMOOTH {name = mh01;}",
"168.915 461 OFFCURVE",
"204 425.915 OFFCURVE",
"204 383 CURVE SMOOTH",
"204 339.932 OFFCURVE",
"168.723 306 OFFCURVE",
"126 306 CURVE SMOOTH",
"83.121 306 OFFCURVE",
"49 340.121 OFFCURVE",
"49 383 CURVE SMOOTH {name = hr00;}"
);
}
);
width = 252;
},
{
layerId = "753CA70B-25C4-47AF-A15F-390B5E4CCE16";
paths = (
{
closed = 1;
nodes = (
"35 327.27 OFFCURVE",
"80.27 282 OFFCURVE",
"136 282 CURVE SMOOTH",
"191.604 282 OFFCURVE",
"238 327.096 OFFCURVE",
"238 383 CURVE SMOOTH",
"238 438.78 OFFCURVE",
"191.78 485 OFFCURVE",
"136 485 CURVE SMOOTH",
"80.096 485 OFFCURVE",
"35 438.604 OFFCURVE",
"35 383 CURVE SMOOTH {name = hr00;}"
);
}
);
width = 273;
}
);
unicode = 2022;
userData = {
com.typemytype.robofont.mark = (
0.713,
0.6,
1,
1
);
};
},
{
glyphname = asterisk;
lastChange = "2018-07-24 15:11:20 +0000";
layers = (
{
layerId = "1178ECA0-A987-4969-BD6E-681EE9C1B9C8";
paths = (
{
closed = 1;
nodes = (
"196 681 LINE",
"176 576 LINE",
"260 649 LINE",
"290 611 LINE",
"286 600 LINE",
"187 558 LINE",
"291 519 LINE",
"272 476 LINE",
"259 472 LINE",
"175 541 LINE",
"192 429 LINE",
"145 425 LINE",
"136 435 LINE",
"155 539 LINE",
"72 467 LINE",
"44 505 LINE",
"46 517 LINE",
"146 558 LINE",
"41 597 LINE",
"61 640 LINE",
"72 644 LINE",
"156 575 LINE",
"140 687 LINE {name = mh01;}",
"188 691 LINE {name = hr00;}"
);
},
{
closed = 1;
nodes = (
"163 552 LINE",
"170 552 LINE",
"173 558 LINE",
"169 564 LINE",
"163 564 LINE",
"159 558 LINE"
);
}
);
width = 332;
},
{
layerId = "753CA70B-25C4-47AF-A15F-390B5E4CCE16";
paths = (
{
closed = 1;
nodes = (
"204 736 LINE",
"140 715 LINE",
"161 607 LINE",
"81 677 LINE",
"48 669 LINE",
"35 602 LINE",
"137 566 LINE",
"38 533 LINE",
"27 501 LINE",
"80 456 LINE",
"161 527 LINE",
"141 424 LINE",
"164 400 LINE",
"227 421 LINE",
"206 528 LINE",
"287 459 LINE",
"319 468 LINE",
"334 532 LINE",
"225 568 LINE",
"329 602 LINE",
"339 635 LINE",
"289 679 LINE",
"206 608 LINE",
"227 712 LINE {name = hr00;}"
);
},
{
closed = 1;
nodes = (
"179 575 LINE",
"188 576 LINE",
"193 567 LINE",
"189 560 LINE",
"178 559 LINE",
"174 566 LINE"
);
}
);
width = 367;
}
);
unicode = 002A;
userData = {
com.typemytype.robofont.mark = (
0.713,
0.6,
1,
1
);
};
},
{
glyphname = numbersign;
lastChange = "2018-07-24 19:34:00 +0000";
layers = (
{
layerId = "1178ECA0-A987-4969-BD6E-681EE9C1B9C8";
paths = (
{
closed = 1;
nodes = (
"155 48 LINE",
"219 251 LINE {name = hr04;}",
"309 251 LINE {name = ah14;}",
"250 61 LINE {name = hr03;}",
"259 48 LINE",
"308 48 LINE {name = ah15;}",
"371 251 LINE {name = hr02;}",
"515 251 LINE",
"515 296 LINE SMOOTH",
"514 300 OFFCURVE",
"512 303 OFFCURVE",
"509 303 CURVE SMOOTH",
"387 303 LINE",
"424 423 LINE",
"560 423 LINE",
"560 470 LINE SMOOTH",
"559 474 OFFCURVE",
"557 476 OFFCURVE",
"554 476 CURVE SMOOTH",
"441 476 LINE",
"497 656 LINE {name = ah09;}",
"489 670 LINE {name = ah08;}",
"440 670 LINE {name = ah07;}",
"379 476 LINE {name = ah06;}",
"290 476 LINE {name = ah02;}",
"347 656 LINE {name = mh02;}",
"339 670 LINE {name = ah01;}",
"288 670 LINE {name = mh01;}",
"227 476 LINE {name = ah03;}",
"92 476 LINE {name = ah05;}",
"85 463 LINE",
"92 423 LINE {name = ah04;}",
"210 423 LINE",
"173 303 LINE",
"37 303 LINE",
"30 291 LINE",
"37 251 LINE {name = hr00;}",
"156 251 LINE",
"97 61 LINE {name = mh03;}",
"106 48 LINE"
);
},
{
closed = 1;
nodes = (
"273 423 LINE {name = ah12;}",
"363 423 LINE {name = ah11;}",
"325 303 LINE {name = ah10;}",
"235 303 LINE {name = ah13;}"
);
}
);
width = 593;
},
{
layerId = "753CA70B-25C4-47AF-A15F-390B5E4CCE16";
paths = (
{
closed = 1;
nodes = (
"199 48 LINE",
"244 183 LINE",
"326 183 LINE {name = hr04;}",
"286 61 LINE",
"302 48 LINE {name = hr05;}",
"409 48 LINE",
"453 183 LINE",
"600 183 LINE",
"600 279 LINE SMOOTH",
"600 283.007 OFFCURVE",
"598.909 288 OFFCURVE",
"594 288 CURVE SMOOTH",
"487 288 LINE",
"526 407 LINE",
"642 407 LINE",
"642 504 LINE SMOOTH",
"642 507.966 OFFCURVE",
"640.578 512 OFFCURVE",
"636 512 CURVE SMOOTH",
"561 512 LINE",
"608 656 LINE {name = mh03;}",
"595 670 LINE",
"485 670 LINE",
"433 512 LINE {name = mh02;}",
"355 512 LINE {name = mh01;}",
"404 656 LINE",
"390 670 LINE {name = mh06;}",
"281 670 LINE {name = mh05;}",
"228 512 LINE",
"78 512 LINE",
"60 479 LINE",
"78 407 LINE",
"192 407 LINE {name = mh04;}",
"152 288 LINE",
"47 288 LINE {name = hr01;}",
"29 254 LINE",
"47 183 LINE",
"117 183 LINE {name = hr02;}",
"76 61 LINE",
"92 48 LINE {name = hr03;}"
);
},
{
closed = 1;
nodes = (
"320 407 LINE",
"399 407 LINE",
"360 288 LINE",
"280 288 LINE"
);
}
);
width = 675;
}
);
unicode = 0023;
userData = {
com.typemytype.robofont.mark = (
0.713,
0.6,
1,
1
);
};
},
{
glyphname = slash;
lastChange = "2018-07-24 15:11:20 +0000";
layers = (
{
layerId = "1178ECA0-A987-4969-BD6E-681EE9C1B9C8";
paths = (
{
closed = 1;
nodes = (
"27 0 LINE",
"24 13 LINE",
"363 692 LINE {name = mh01;}",
"414 692 LINE {name = mh02;}",
"413 677 LINE",
"75 0 LINE {name = hr00;}"
);
}
);
width = 437;
},
{
layerId = "753CA70B-25C4-47AF-A15F-390B5E4CCE16";
paths = (
{
closed = 1;
nodes = (
"23 0 LINE",
"20 13 LINE",
"338 691 LINE {name = mh01;}",
"466 691 LINE",
"465 677 LINE",
"148 0 LINE {name = hr00;}"
);
}
);
width = 486;
}
);
unicode = 002F;
userData = {
com.typemytype.robofont.mark = (
0.713,
0.6,
1,
1
);
};
},
{
glyphname = backslash;
lastChange = "2018-07-24 15:11:20 +0000";
layers = (
{
layerId = "1178ECA0-A987-4969-BD6E-681EE9C1B9C8";
paths = (
{
closed = 1;
nodes = (
"24 691 LINE {name = mh01;}",
"90 691 LINE {name = mh02;}",
"429 13 LINE",
"426 0 LINE",
"365 0 LINE",
"23 681 LINE {name = hr00;}"
);
}
);
width = 453;
},
{
layerId = "753CA70B-25C4-47AF-A15F-390B5E4CCE16";
paths = (
{
closed = 1;
nodes = (
"20 690 LINE {name = mh01;}",
"148 690 LINE {name = mh02;}",
"466 13 LINE",
"463 0 LINE",
"338 0 LINE",
"21 676 LINE {name = hr00;}"
);
}
);
width = 486;
}
);
unicode = 005C;
userData = {
com.typemytype.robofont.mark = (
0.713,
0.6,
1,
1
);
};
},
{
glyphname = parenleft;
lastChange = "2018-07-24 15:11:20 +0000";
layers = (
{
layerId = "1178ECA0-A987-4969-BD6E-681EE9C1B9C8";
paths = (
{
closed = 1;
nodes = (
"96.061 -19.86 OFFCURVE",
"54 131.653 OFFCURVE",
"54 290 CURVE SMOOTH {name = mh01;}",
"54 440.836 OFFCURVE",
"86.429 611.006 OFFCURVE",
"164 742 CURVE",
"224 742 LINE",
"155.111 612.75 OFFCURVE",
"125 436.374 OFFCURVE",
"125 291 CURVE SMOOTH",
"125 131.199 OFFCURVE",
"165.146 -14.846 OFFCURVE",
"224 -162 CURVE",
"164 -162 LINE {name = hr00;}"
);
}
);
width = 258;
},
{
layerId = "753CA70B-25C4-47AF-A15F-390B5E4CCE16";
paths = (
{
closed = 1;
nodes = (
"221.509 -15.47 OFFCURVE",
"183 131.13 OFFCURVE",
"183 291 CURVE SMOOTH",
"183 437.687 OFFCURVE",
"212.456 610.883 OFFCURVE",
"282 742 CURVE",
"156 742 LINE",
"80.857 611.858 OFFCURVE",
"47 438.436 OFFCURVE",
"47 290 CURVE SMOOTH",
"47 132.168 OFFCURVE",
"87.22 -20.669 OFFCURVE",
"156 -162 CURVE",
"282 -162 LINE {name = hr00;}"
);
}
);
width = 310;
}
);
unicode = 0028;
userData = {
com.typemytype.robofont.mark = (
0.713,
0.6,
1,
1
);
};
},
{
glyphname = parenright;
lastChange = "2018-07-24 15:11:20 +0000";
layers = (
{
layerId = "1178ECA0-A987-4969-BD6E-681EE9C1B9C8";
paths = (
{
closed = 1;
nodes = (
"93.854 -14.846 OFFCURVE",
"134 131.199 OFFCURVE",
"134 291 CURVE SMOOTH",
"134 436.374 OFFCURVE",
"103.889 612.75 OFFCURVE",
"35 742 CURVE",
"95 742 LINE",
"172.571 611.006 OFFCURVE",
"205 440.836 OFFCURVE",
"205 290 CURVE SMOOTH {name = mh01;}",
"205 131.653 OFFCURVE",
"162.939 -19.86 OFFCURVE",
"95 -162 CURVE",
"35 -162 LINE {name = hr00;}"
);
}
);
width = 259;
},
{
layerId = "753CA70B-25C4-47AF-A15F-390B5E4CCE16";
paths = (
{
closed = 1;
nodes = (
"223.111 -20.051 OFFCURVE",
"264 131.257 OFFCURVE",
"264 290 CURVE SMOOTH",
"264 439.201 OFFCURVE",
"229.479 611.309 OFFCURVE",
"154 742 CURVE",
"28 742 LINE",
"98.16 612.664 OFFCURVE",
"127 436.173 OFFCURVE",
"127 291 CURVE SMOOTH",
"127 131.13 OFFCURVE",
"88.491 -15.47 OFFCURVE",
"28 -162 CURVE",
"154 -162 LINE {name = hr00;}"
);
}
);
width = 311;
}
);
unicode = 0029;
userData = {
com.typemytype.robofont.mark = (
0.713,
0.6,
1,
1
);
};
},
{
glyphname = braceleft;
lastChange = "2018-07-24 19:33:03 +0000";
layers = (
{
layerId = "1178ECA0-A987-4969-BD6E-681EE9C1B9C8";
paths = (
{
closed = 1;
nodes = (
"41.774 315.997 OFFCURVE",
"69.799 324.935 OFFCURVE",
"91.5 342.5 CURVE SMOOTH",
"142.265 383.59 OFFCURVE",
"125 479.189 OFFCURVE",
"125 540 CURVE SMOOTH",
"125 624.323 OFFCURVE",
"150.105 699 OFFCURVE",
"248 699 CURVE SMOOTH",
"268.461 699 OFFCURVE",
"288.714 696.387 OFFCURVE",
"309 694 CURVE",
"288 617 LINE",
"231 634 LINE",
"174.09 624.533 OFFCURVE",
"193 469.89 OFFCURVE",
"193 426 CURVE SMOOTH",
"193 341.36 OFFCURVE",
"167.959 287.098 OFFCURVE",
"78 276 CURVE",
"181 260 OFFCURVE",
"191 226 OFFCURVE",
"191 21 CURVE SMOOTH",
"191 -15.674 OFFCURVE",
"188.611 -83.141 OFFCURVE",
"231 -96 CURVE",
"288 -79 LINE",
"309 -155 LINE",
"288.803 -158.566 OFFCURVE",
"268.535 -161 OFFCURVE",
"248 -161 CURVE SMOOTH",
"93.678 -161 OFFCURVE",
"126 28.333 OFFCURVE",
"126 131 CURVE SMOOTH",
"126 200.954 OFFCURVE",
"79.915 232.01 OFFCURVE",
"14 232 CURVE",
"14 316 LINE {name = hr00;}"
);
}
);
width = 309;
},
{
layerId = "753CA70B-25C4-47AF-A15F-390B5E4CCE16";
paths = (
{
closed = 1;
nodes = (
"55.725 315.996 OFFCURVE",
"113 348.571 OFFCURVE",
"113 408 CURVE SMOOTH",
"113 439.739 OFFCURVE",
"109 471.264 OFFCURVE",
"109 503 CURVE SMOOTH",
"109 627.265 OFFCURVE",
"146.927 713 OFFCURVE",
"285 713 CURVE SMOOTH",
"313.365 713 OFFCURVE",
"349.778 708.885 OFFCURVE",
"376 698 CURVE {name = hr01;}",
"340 582 LINE",
"262 615 LINE",
"220.229 598.32 OFFCURVE",
"233 465 OFFCURVE",
"233 426 CURVE SMOOTH",
"233 328 OFFCURVE",
"183 299 OFFCURVE",
"129 274 CURVE",
"256.9 258.189 OFFCURVE",
"232 141.365 OFFCURVE",
"232 44 CURVE SMOOTH",
"232 16.089 OFFCURVE",
"230.717 -51.515 OFFCURVE",
"262 -64 CURVE",
"340 -30 LINE",
"376 -147 LINE",
"349.778 -157.885 OFFCURVE",
"313.365 -162 OFFCURVE",
"285 -162 CURVE SMOOTH",
"146.291 -162 OFFCURVE",
"109 -75.07 OFFCURVE",
"109 49 CURVE SMOOTH",
"109 167 OFFCURVE",
"121 234 OFFCURVE",
"2 234 CURVE",
"2 316 LINE {name = hr00;}"
);
}
);
width = 367;
}
);
unicode = 007B;
userData = {
com.typemytype.robofont.mark = (
0.713,
0.6,
1,
1
);
};
},
{
glyphname = braceright;
lastChange = "2018-07-24 19:31:07 +0000";
layers = (
{
layerId = "1178ECA0-A987-4969-BD6E-681EE9C1B9C8";
paths = (
{
closed = 1;
nodes = (
"159.048 -161 OFFCURVE",
"184 -84.938 OFFCURVE",
"184 -1 CURVE SMOOTH",
"184 34.681 OFFCURVE",
"183 70.333 OFFCURVE",
"183 106 CURVE SMOOTH",
"183 188.22 OFFCURVE",
"206.076 232.013 OFFCURVE",
"296 232 CURVE {name = hr00;}",
"296 316 LINE",
"236.583 315.996 OFFCURVE",
"183 353.924 OFFCURVE",
"183 417 CURVE SMOOTH",
"183 518.758 OFFCURVE",
"213.168 699 OFFCURVE",
"61 699 CURVE SMOOTH",
"40.562 699 OFFCURVE",
"20.266 696.384 OFFCURVE",
"0 694 CURVE",
"21 617 LINE",
"78 634 LINE",
"119.997 627.96 OFFCURVE",
"118 559.597 OFFCURVE",
"118 527 CURVE SMOOTH",
"118 421.509 OFFCURVE",
"89 293.523 OFFCURVE",
"231 276 CURVE",
"148 251 OFFCURVE",
"116 203 OFFCURVE",
"116 118 CURVE SMOOTH",
"116 -51 OFFCURVE",
"103 -91 OFFCURVE",
"78 -96 CURVE",
"21 -79 LINE",
"0 -155 LINE",
"20.166 -158.56 OFFCURVE",
"40.498 -161 OFFCURVE",
"61 -161 CURVE SMOOTH"
);
}
);
width = 310;
},
{
layerId = "753CA70B-25C4-47AF-A15F-390B5E4CCE16";
paths = (
{
closed = 1;
nodes = (
"221.592 -162 OFFCURVE",
"259 -74.852 OFFCURVE",
"259 49 CURVE SMOOTH",
"259 79.41 OFFCURVE",
"255 109.59 OFFCURVE",
"255 140 CURVE SMOOTH {name = hr01;}",
"255 200.764 OFFCURVE",
"310.402 234.004 OFFCURVE",
"366 234 CURVE {name = hr00;}",
"366 316 LINE {name = hr02;}",
"245 316 OFFCURVE",
"259 385 OFFCURVE",
"259 503 CURVE SMOOTH {name = mh03;}",
"259 627.295 OFFCURVE",
"221.051 713 OFFCURVE",
"83 713 CURVE SMOOTH {name = mv03;}",
"52.7 713 OFFCURVE",
"19.42 708.9 OFFCURVE",
"-9 698 CURVE",
"28 582 LINE {name = mv02;}",
"106 615 LINE",
"137.635 602.37 OFFCURVE",
"136 535.761 OFFCURVE",
"136 507 CURVE SMOOTH {name = mh01;}",
"136 393 OFFCURVE",
"116 291 OFFCURVE",
"239 276 CURVE",
"146 241 OFFCURVE",
"135 233 OFFCURVE",
"135 124 CURVE SMOOTH",
"135 84.799 OFFCURVE",
"146.976 -46.765 OFFCURVE",
"106 -64 CURVE",
"28 -30 LINE",
"-9 -147 LINE",
"19.42 -157.9 OFFCURVE",
"52.7 -162 OFFCURVE",
"83 -162 CURVE SMOOTH"
);
}
);
width = 368;
}
);
unicode = 007D;
userData = {
com.typemytype.robofont.mark = (
0.713,
0.6,
1,
1
);
};
},
{
glyphname = bracketleft;
lastChange = "2018-07-24 19:26:52 +0000";
layers = (
{
layerId = "1178ECA0-A987-4969-BD6E-681EE9C1B9C8";
paths = (
{
closed = 1;
nodes = (
"294 -179 LINE SMOOTH",
"298.578 -179 OFFCURVE",
"300 -174.966 OFFCURVE",
"300 -171 CURVE SMOOTH {name = hr01;}",
"300 -117 LINE",
"149 -117 LINE",
"149 607 LINE",
"300 607 LINE",
"299 666 LINE SMOOTH",
"299 668 OFFCURVE",
"296 669 OFFCURVE",
"294 669 CURVE SMOOTH",
"88 669 LINE {name = mh01;}",
"81 655 LINE",
"81 -163 LINE {name = hr02;}",
"94 -179 LINE"
);
}
);
width = 306;
},
{
layerId = "753CA70B-25C4-47AF-A15F-390B5E4CCE16";
paths = (
{
closed = 1;
nodes = (
"339 -189 LINE SMOOTH",
"344.025 -189 OFFCURVE",
"346 -185.683 OFFCURVE",
"346 -181 CURVE SMOOTH",
"346 -102 LINE",
"194 -102 LINE",
"194 640 LINE {name = hr00;}",
"346 640 LINE",
"346 719 LINE SMOOTH",
"346 723.39 OFFCURVE",
"343.39 726 OFFCURVE",
"339 726 CURVE SMOOTH",
"81 726 LINE",
"74 714 LINE",
"74 -177 LINE",
"81 -189 LINE"
);
}
);
width = 336;
}
);
unicode = 005B;
userData = {
com.typemytype.robofont.mark = (
0.713,
0.6,
1,
1
);
};
},
{
glyphname = bracketright;
lastChange = "2018-07-24 19:24:06 +0000";
layers = (
{
layerId = "1178ECA0-A987-4969-BD6E-681EE9C1B9C8";
paths = (
{
closed = 1;
nodes = (
"212 -179 LINE",
"225 -163 LINE",
"225 655 LINE {name = hr00;}",
"218 669 LINE",
"12 669 LINE SMOOTH",
"7.422 669 OFFCURVE",
"6 664.966 OFFCURVE",
"6 661 CURVE SMOOTH {name = mh01;}",
"6 607 LINE",
"157 607 LINE {name = hr02;}",
"157 -117 LINE",
"6 -117 LINE {name = hr01;}",
"6 -173 LINE SMOOTH",
"6 -177 OFFCURVE",
"9 -179 OFFCURVE",
"12 -179 CURVE SMOOTH"
);
}
);
width = 306;
},
{
layerId = "753CA70B-25C4-47AF-A15F-390B5E4CCE16";
paths = (
{
closed = 1;
nodes = (
"254 -179 LINE",
"262 -167 LINE",
"262 714 LINE",
"254 726 LINE",
"-4 726 LINE SMOOTH",
"-8.2 726 OFFCURVE",
"-10 722.89 OFFCURVE",
"-10 719 CURVE SMOOTH",
"-10 640 LINE {name = hr00;}",
"141 640 LINE",
"141 -92 LINE",
"-10 -92 LINE",
"-10 -171 LINE SMOOTH",
"-10 -174.966 OFFCURVE",
"-8.578 -179 OFFCURVE",
"-4 -179 CURVE SMOOTH"
);
}
);
width = 336;
}
);
unicode = 005D;
userData = {
com.typemytype.robofont.mark = (
0.713,
0.6,
1,
1
);
};
},
{
glyphname = hyphen;
lastChange = "2018-07-24 19:23:19 +0000";
layers = (
{
layerId = "1178ECA0-A987-4969-BD6E-681EE9C1B9C8";
paths = (
{
closed = 1;
nodes = (
"314 251 LINE",
"314 307 LINE SMOOTH",
"314 310.89 OFFCURVE",
"312.2 314 OFFCURVE",
"308 314 CURVE SMOOTH",
"71 314 LINE",
"63 306 LINE",
"63 251 LINE {name = hr00;}"
);
}
);
width = 377;
},
{
layerId = "753CA70B-25C4-47AF-A15F-390B5E4CCE16";
paths = (
{
closed = 1;
nodes = (
"369 250 LINE {name = hr00;}",
"369 337 LINE SMOOTH",
"369 341.007 OFFCURVE",
"367.305 344 OFFCURVE",
"363 344 CURVE SMOOTH",
"71 344 LINE",
"53 332 LINE",
"53 250 LINE"
);
}
);
width = 423;
}
);
leftKerningGroup = hyphen;
rightKerningGroup = hyphen;
unicode = 002D;
userData = {
com.typemytype.robofont.mark = (
0.713,
0.6,
1,
1
);
};
},
{
glyphname = uni00AD;
lastChange = "2018-07-24 15:11:20 +0000";
layers = (
{
layerId = "1178ECA0-A987-4969-BD6E-681EE9C1B9C8";
paths = (
{
closed = 1;
nodes = (
"48 262 LINE",
"48 353 LINE",
"328 353 LINE",
"328 262 LINE {name = hr00;}"
);
}
);
width = 377;
},
{
layerId = "753CA70B-25C4-47AF-A15F-390B5E4CCE16";
paths = (
{
closed = 1;
nodes = (
"-30 419 LINE",
"-30 314 LINE",
"459 314 LINE",
"459 419 LINE {name = hr00;}"
);
}
);
width = 429;
}
);
unicode = 00AD;
userData = {
com.typemytype.robofont.mark = (
0.713,
0.6,
1,
1
);
};
},
{
glyphname = endash;
lastChange = "2018-07-24 15:11:20 +0000";
layers = (
{
layerId = "1178ECA0-A987-4969-BD6E-681EE9C1B9C8";
paths = (
{
closed = 1;
nodes = (
"432 363 LINE",
"432 301 LINE",
"61 301 LINE",
"61 363 LINE {name = hr00;}"
);
}
);
width = 495;
},
{
layerId = "753CA70B-25C4-47AF-A15F-390B5E4CCE16";
paths = (
{
closed = 1;
nodes = (
"424 396 LINE",
"424 301 LINE",
"53 301 LINE",
"53 396 LINE {name = hr00;}"
);
}
);
width = 476;
}
);
leftKerningGroup = hyphen;
rightKerningGroup = hyphen;
unicode = 2013;
userData = {
com.typemytype.robofont.mark = (
0.713,
0.6,
1,
1
);
};
},
{
glyphname = emdash;
lastChange = "2018-07-24 15:11:20 +0000";
layers = (
{
layerId = "1178ECA0-A987-4969-BD6E-681EE9C1B9C8";
paths = (
{
closed = 1;
nodes = (
"662 363 LINE",
"662 301 LINE",
"61 301 LINE",
"61 363 LINE {name = hr00;}"
);
}
);
width = 725;
},
{
layerId = "753CA70B-25C4-47AF-A15F-390B5E4CCE16";
paths = (
{
closed = 1;
nodes = (
"574 396 LINE",
"574 301 LINE",
"53 301 LINE",
"53 396 LINE {name = hr00;}"
);
}
);
width = 626;
}
);
leftKerningGroup = hyphen;
rightKerningGroup = hyphen;
unicode = 2014;
userData = {
com.typemytype.robofont.mark = (
0.713,
0.6,
1,
1
);
};
},
{
glyphname = underscore;
lastChange = "2018-07-24 15:11:20 +0000";
layers = (
{
layerId = "1178ECA0-A987-4969-BD6E-681EE9C1B9C8";
paths = (
{
closed = 1;
nodes = (
"10 -13 LINE",
"22 0 LINE",
"557 0 LINE SMOOTH",
"561.2 0 OFFCURVE",
"563 -3.11 OFFCURVE",
"563 -7 CURVE SMOOTH",
"563 -63 LINE",
"10 -63 LINE {name = hr00;}"
);
}
);
width = 573;
},
{
layerId = "753CA70B-25C4-47AF-A15F-390B5E4CCE16";
paths = (
{
closed = 1;
nodes = (
"0 -13 LINE",
"11 0 LINE",
"547 0 LINE SMOOTH",
"551.2 0 OFFCURVE",
"553 -3.11 OFFCURVE",
"553 -7 CURVE SMOOTH",
"553 -86 LINE",
"0 -86 LINE {name = hr00;}"
);
}
);
width = 553;
}
);
unicode = 005F;
userData = {
com.typemytype.robofont.mark = (
0.713,
0.6,
1,
1
);
};
},
{
glyphname = quotesinglbase;
lastChange = "2018-07-24 19:20:27 +0000";
layers = (
{
layerId = "1178ECA0-A987-4969-BD6E-681EE9C1B9C8";
paths = (
{
closed = 1;
nodes = (
"118.684 -73.117 OFFCURVE",
"153 -12.648 OFFCURVE",
"153 45 CURVE SMOOTH",
"153 75.425 OFFCURVE",
"142.489 108.936 OFFCURVE",
"129 136 CURVE",
"45 108 LINE",
"84 9 LINE",
"45 -79 LINE {name = hr00;}",
"45 -93 LINE",
"81 -115 LINE"
);
}
);
width = 207;
},
{
layerId = "753CA70B-25C4-47AF-A15F-390B5E4CCE16";
paths = (
{
closed = 1;
nodes = (
"155.63 -93.666 OFFCURVE",
"192 1.555 OFFCURVE",
"192 77 CURVE SMOOTH",
"192 119.454 OFFCURVE",
"179.887 162.689 OFFCURVE",
"171 204 CURVE",
"36 174 LINE",
"73 19 LINE",
"22 -103 LINE",
"25 -114 LINE {name = hr00;}",
"109 -153 LINE"
);
}
);
width = 237;
}
);
leftKerningGroup = quotesinglbase;
rightKerningGroup = quotesinglbase;
unicode = 201A;
userData = {
com.typemytype.robofont.mark = (
0.713,
0.6,
1,
1
);
};
},
{
glyphname = quotedblbase;
lastChange = "2018-07-24 19:20:19 +0000";
layers = (
{
layerId = "1178ECA0-A987-4969-BD6E-681EE9C1B9C8";
paths = (
{
closed = 1;
nodes = (
"232.662 -73.139 OFFCURVE",
"267 -12.641 OFFCURVE",
"267 45 CURVE SMOOTH",
"267 72.621 OFFCURVE",
"255.167 131.347 OFFCURVE",
"243 156 CURVE",
"159 131 LINE",
"198 9 LINE",
"159 -79 LINE",
"159 -93 LINE",
"195 -115 LINE"
);
},
{
closed = 1;
nodes = (
"114.684 -73.117 OFFCURVE",
"149 -12.648 OFFCURVE",
"149 45 CURVE SMOOTH",
"149 75.425 OFFCURVE",
"138.489 108.936 OFFCURVE",
"125 136 CURVE",
"41 108 LINE",
"80 9 LINE",
"41 -79 LINE {name = hr00;}",
"41 -93 LINE",
"77 -115 LINE"
);
}
);
width = 321;
},
{
layerId = "753CA70B-25C4-47AF-A15F-390B5E4CCE16";
paths = (
{
closed = 1;
nodes = (
"324.262 -103.972 OFFCURVE",
"363 10.508 OFFCURVE",
"363 85 CURVE SMOOTH",
"363 131.057 OFFCURVE",
"349.582 179.082 OFFCURVE",
"340 224 CURVE",
"205 194 LINE",
"244 27 LINE",
"191 -113 LINE",
"194 -124 LINE",
"278 -163 LINE"
);
},
{
closed = 1;
nodes = (
"152.63 -93.666 OFFCURVE",
"189 1.555 OFFCURVE",
"189 77 CURVE SMOOTH",
"189 119.454 OFFCURVE",
"176.887 162.689 OFFCURVE",
"168 204 CURVE",
"33 174 LINE",
"70 19 LINE",
"19 -103 LINE",
"22 -114 LINE {name = hr00;}",
"106 -153 LINE"
);
}
);
width = 408;
}
);
leftKerningGroup = quotesinglbase;
rightKerningGroup = quotesinglbase;
unicode = 201E;
userData = {
com.typemytype.robofont.mark = (
0.713,
0.6,
1,
1
);
};
},
{
glyphname = quotedblleft;
lastChange = "2018-07-24 19:20:11 +0000";
layers = (
{
layerId = "1178ECA0-A987-4969-BD6E-681EE9C1B9C8";
paths = (
{
closed = 1;
nodes = (
"137 475 LINE",
"114 604 LINE",
"147 691 LINE",
"147 701 LINE",
"104 726 LINE",
"67.835 672.379 OFFCURVE",
"48 618.135 OFFCURVE",
"48 553 CURVE SMOOTH",
"48 522.66 OFFCURVE",
"51.961 488.524 OFFCURVE",
"59 459 CURVE"
);
},
{
closed = 1;
nodes = (
"248 488 LINE",
"225 604 LINE",
"258 691 LINE {name = hr00;}",
"258 701 LINE",
"215 726 LINE",
"178.853 672.408 OFFCURVE",
"159 618.162 OFFCURVE",
"159 553 CURVE SMOOTH",
"159 526.561 OFFCURVE",
"162.811 500.453 OFFCURVE",
"170 475 CURVE"
);
}
);
width = 295;
},
{
layerId = "753CA70B-25C4-47AF-A15F-390B5E4CCE16";
paths = (
{
closed = 1;
nodes = (
"199 382 LINE",
"153 547 LINE",
"200 689 LINE",
"196 700 LINE",
"110 735 LINE",
"68.536 675.683 OFFCURVE",
"37 566.803 OFFCURVE",
"37 495 CURVE SMOOTH",
"37 460.432 OFFCURVE",
"55.098 380.821 OFFCURVE",
"66 346 CURVE"
);
},
{
closed = 1;
nodes = (
"370 409 LINE",
"326 562 LINE",
"372 687 LINE",
"368 697 LINE {name = hr00;}",
"283 733 LINE",
"240.692 674.404 OFFCURVE",
"210 583.076 OFFCURVE",
"210 511 CURVE SMOOTH",
"210 475.99 OFFCURVE",
"225.92 407.677 OFFCURVE",
"237 373 CURVE"
);
}
);
width = 401;
}
);
leftKerningGroup = quoteleft;
rightKerningGroup = quoteleft;
unicode = 201C;
userData = {
com.typemytype.robofont.mark = (
0.713,
0.6,
1,
1
);
};
},
{
glyphname = quotedblright;
lastChange = "2018-07-24 19:20:02 +0000";
layers = (
{
layerId = "1178ECA0-A987-4969-BD6E-681EE9C1B9C8";
paths = (
{
closed = 1;
nodes = (
"231.165 503.621 OFFCURVE",
"251 557.865 OFFCURVE",
"251 623 CURVE SMOOTH",
"251 653.191 OFFCURVE",
"247.168 687.643 OFFCURVE",
"240 717 CURVE",
"162 701 LINE",
"185 572 LINE",
"152 485 LINE",
"152 475 LINE",
"195 450 LINE"
);
},
{
closed = 1;
nodes = (
"120.147 503.592 OFFCURVE",
"140 557.838 OFFCURVE",
"140 623 CURVE SMOOTH",
"140 649.915 OFFCURVE",
"135.479 674.966 OFFCURVE",
"129 701 CURVE",
"51 688 LINE",
"74 572 LINE",
"41 485 LINE {name = hr00;}",
"41 475 LINE",
"84 450 LINE"
);
}
);
width = 292;
},
{
layerId = "753CA70B-25C4-47AF-A15F-390B5E4CCE16";
paths = (
{
closed = 1;
nodes = (
"330.26 432.003 OFFCURVE",
"369 546.53 OFFCURVE",
"369 621 CURVE SMOOTH",
"369 660.917 OFFCURVE",
"358.371 701.175 OFFCURVE",
"350 740 CURVE",
"215 710 LINE",
"250 563 LINE",
"197 423 LINE",
"200 412 LINE",
"284 373 LINE"
);
},
{
closed = 1;
nodes = (
"158.63 442.325 OFFCURVE",
"195 537.564 OFFCURVE",
"195 613 CURVE SMOOTH",
"195 649.341 OFFCURVE",
"185.672 684.756 OFFCURVE",
"178 720 CURVE",
"43 690 LINE",
"76 555 LINE",
"25 433 LINE",
"28 422 LINE {name = hr00;}",
"112 383 LINE"
);
}
);
width = 397;
}
);
leftKerningGroup = quoteright;
rightKerningGroup = quoteright;
unicode = 201D;
userData = {
com.typemytype.robofont.mark = (
0.713,
0.6,
1,
1
);
};
},
{
glyphname = quoteleft;
lastChange = "2018-07-24 19:16:22 +0000";
layers = (
{
layerId = "1178ECA0-A987-4969-BD6E-681EE9C1B9C8";
paths = (
{
closed = 1;
nodes = (
"135 462 LINE",
"112 578 LINE",
"145 665 LINE {name = hr00;}",
"145 675 LINE",
"102 700 LINE",
"65.853 646.408 OFFCURVE",
"46 592.162 OFFCURVE",
"46 527 CURVE SMOOTH",
"46 500.561 OFFCURVE",
"49.811 474.453 OFFCURVE",
"57 449 CURVE"
);
}
);
width = 187;
},
{
layerId = "753CA70B-25C4-47AF-A15F-390B5E4CCE16";
paths = (
{
closed = 1;
nodes = (
"191 449 LINE",
"150 569 LINE",
"185 697 LINE",
"181 707 LINE {name = hr00;}",
"93 735 LINE",
"58.936 679.372 OFFCURVE",
"37 596.872 OFFCURVE",
"37 532 CURVE SMOOTH",
"37 497.038 OFFCURVE",
"47.428 434.798 OFFCURVE",
"61 402 CURVE"
);
}
);
width = 219;
}
);
leftKerningGroup = quoteleft;
rightKerningGroup = quoteleft;
unicode = 2018;
userData = {
com.typemytype.robofont.mark = (
0.713,
0.6,
1,
1
);
};
},
{
glyphname = quoteright;
lastChange = "2018-07-24 19:16:03 +0000";
layers = (
{
layerId = "1178ECA0-A987-4969-BD6E-681EE9C1B9C8";
paths = (
{
closed = 1;
nodes = (
"120.147 503.592 OFFCURVE",
"140 557.838 OFFCURVE",
"140 623 CURVE SMOOTH",
"140 649.915 OFFCURVE",
"135.479 674.966 OFFCURVE",
"129 701 CURVE",
"51 688 LINE",
"74 572 LINE",
"41 485 LINE {name = hr00;}",
"41 475 LINE",
"84 450 LINE"
);
}
);
width = 181;
},
{
layerId = "753CA70B-25C4-47AF-A15F-390B5E4CCE16";
paths = (
{
closed = 1;
nodes = (
"157.681 470.383 OFFCURVE",
"194 565.489 OFFCURVE",
"194 641 CURVE SMOOTH",
"194 673.172 OFFCURVE",
"190.253 706.418 OFFCURVE",
"184 738 CURVE",
"49 708 LINE",
"75 583 LINE",
"24 461 LINE",
"27 450 LINE {name = hr00;}",
"111 411 LINE"
);
}
);
width = 220;
}
);
leftKerningGroup = quoteright;
rightKerningGroup = quoteright;
unicode = 2019;
userData = {
com.typemytype.robofont.mark = (
0.713,
0.6,
1,
1
);
};
},
{
glyphname = guillemotleft;
lastChange = "2018-07-24 15:11:20 +0000";
layers = (
{
layerId = "1178ECA0-A987-4969-BD6E-681EE9C1B9C8";
paths = (
{
closed = 1;
nodes = (
"91 338 LINE",
"264 164 LINE",
"223 123 LINE",
"10 337 LINE",
"223 553 LINE",
"264 512 LINE {name = hr00;}"
);
},
{
closed = 1;
nodes = (
"256 338 LINE",
"408 185 LINE",
"367 144 LINE",
"175 337 LINE",
"367 532 LINE",
"408 491 LINE"
);
}
);
width = 454;
},
{
layerId = "753CA70B-25C4-47AF-A15F-390B5E4CCE16";
paths = (
{
closed = 1;
nodes = (
"1 339 LINE",
"214 123 LINE",
"280 190 LINE",
"133 337 LINE",
"281 486 LINE",
"214 553 LINE {name = hr00;}"
);
},
{
closed = 1;
nodes = (
"176 339 LINE",
"369 144 LINE",
"435 211 LINE",
"309 337 LINE",
"436 465 LINE",
"369 532 LINE"
);
}
);
width = 469;
}
);
unicode = 00AB;
userData = {
com.typemytype.robofont.mark = (
0.713,
0.6,
1,
1
);
};
},
{
glyphname = guillemotright;
lastChange = "2018-07-24 15:11:20 +0000";
layers = (
{
layerId = "1178ECA0-A987-4969-BD6E-681EE9C1B9C8";
paths = (
{
closed = 1;
nodes = (
"363 338 LINE",
"190 512 LINE",
"231 553 LINE",
"444 339 LINE",
"231 123 LINE",
"190 164 LINE {name = hr00;}"
);
},
{
closed = 1;
nodes = (
"198 338 LINE",
"46 491 LINE",
"87 532 LINE",
"279 339 LINE",
"87 144 LINE",
"46 185 LINE"
);
}
);
width = 455;
},
{
layerId = "753CA70B-25C4-47AF-A15F-390B5E4CCE16";
paths = (
{
closed = 1;
nodes = (
"337 337 LINE",
"190 190 LINE",
"256 123 LINE",
"469 337 LINE",
"256 553 LINE",
"189 486 LINE {name = hr00;}"
);
},
{
closed = 1;
nodes = (
"160 337 LINE",
"34 211 LINE",
"100 144 LINE",
"293 337 LINE",
"100 532 LINE",
"33 465 LINE"
);
}
);
width = 469;
}
);
unicode = 00BB;
userData = {
com.typemytype.robofont.mark = (
0.713,
0.6,
1,
1
);
};
},
{
glyphname = guilsinglleft;
lastChange = "2018-07-24 15:11:20 +0000";
layers = (
{
layerId = "1178ECA0-A987-4969-BD6E-681EE9C1B9C8";
paths = (
{
closed = 1;
nodes = (
"287 530 LINE",
"292 528 LINE",
"292 458 LINE",
"94 301 LINE",
"292 145 LINE",
"292 73 LINE",
"286 70 LINE",
"14 288 LINE",
"14 314 LINE {name = hr00;}"
);
}
);
width = 351;
},
{
layerId = "753CA70B-25C4-47AF-A15F-390B5E4CCE16";
paths = (
{
closed = 1;
nodes = (
"264 50 LINE",
"270 53 LINE",
"270 184 LINE",
"151 300 LINE",
"270 417 LINE",
"270 548 LINE",
"265 550 LINE",
"2 314 LINE",
"2 288 LINE {name = hr00;}"
);
}
);
width = 327;
}
);
unicode = 2039;
userData = {
com.typemytype.robofont.mark = (
0.713,
0.6,
1,
1
);
};
},
{
glyphname = guilsinglright;
lastChange = "2018-07-24 15:11:20 +0000";
layers = (
{
layerId = "1178ECA0-A987-4969-BD6E-681EE9C1B9C8";
paths = (
{
closed = 1;
nodes = (
"65 70 LINE",
"59 73 LINE",
"59 145 LINE",
"257 301 LINE",
"59 458 LINE",
"59 528 LINE",
"64 530 LINE",
"337 314 LINE",
"337 288 LINE {name = hr00;}"
);
}
);
width = 351;
},
{
layerId = "753CA70B-25C4-47AF-A15F-390B5E4CCE16";
paths = (
{
closed = 1;
nodes = (
"62 550 LINE",
"57 548 LINE",
"57 417 LINE",
"176 300 LINE",
"57 184 LINE",
"57 53 LINE",
"63 50 LINE",
"325 288 LINE",
"325 314 LINE {name = hr00;}"
);
}
);
width = 327;
}
);
unicode = 203A;
userData = {
com.typemytype.robofont.mark = (
0.713,
0.6,
1,
1
);
};
},
{
glyphname = quotedbl;
lastChange = "2018-07-24 15:11:20 +0000";
layers = (
{
layerId = "1178ECA0-A987-4969-BD6E-681EE9C1B9C8";
paths = (
{
closed = 1;
nodes = (
"43 689 LINE {name = mh01;}",
"118 694 LINE {name = hr01;}",
"127 672 LINE",
"105 501 LINE {name = hr02;}",
"60 500 LINE {name = hr00;}"
);
},
{
closed = 1;
nodes = (
"158 689 LINE {name = mh02;}",
"233 694 LINE {name = hr03;}",
"243 672 LINE {name = hr04;}",
"221 501 LINE",
"175 501 LINE"
);
}
);
width = 284;
},
{
layerId = "753CA70B-25C4-47AF-A15F-390B5E4CCE16";
paths = (
{
closed = 1;
nodes = (
"139 442 LINE",
"168 669 LINE",
"151 699 LINE",
"28 689 LINE",
"64 442 LINE {name = hr00;}"
);
},
{
closed = 1;
nodes = (
"310 442 LINE",
"339 669 LINE",
"322 699 LINE",
"199 689 LINE",
"235 442 LINE"
);
}
);
width = 371;
}
);
leftKerningGroup = quotesingle;
rightKerningGroup = quotesingle;
unicode = 0022;
userData = {
com.typemytype.robofont.mark = (
0.713,
0.6,
1,
1
);
};
},
{
glyphname = quotesingle;
lastChange = "2018-07-24 15:11:20 +0000";
layers = (
{
layerId = "1178ECA0-A987-4969-BD6E-681EE9C1B9C8";
paths = (
{
closed = 1;
nodes = (
"44 689 LINE {name = mh01;}",
"119 694 LINE",
"128 672 LINE",
"106 501 LINE",
"61 501 LINE {name = hr00;}"
);
}
);
width = 170;
},
{
layerId = "753CA70B-25C4-47AF-A15F-390B5E4CCE16";
paths = (
{
closed = 1;
nodes = (
"141 412 LINE",
"170 639 LINE",
"153 669 LINE",
"30 659 LINE",
"66 412 LINE {name = hr00;}"
);
}
);
width = 203;
}
);
leftKerningGroup = quotesingle;
rightKerningGroup = quotesingle;
unicode = 0027;
userData = {
com.typemytype.robofont.mark = (
0.713,
0.6,
1,
1
);
};
},
{
glyphname = Euro;
lastChange = "2018-07-24 18:59:15 +0000";
layers = (
{
layerId = "1178ECA0-A987-4969-BD6E-681EE9C1B9C8";
paths = (
{
closed = 1;
nodes = (
"425.578 -4 OFFCURVE",
"488.655 10.085 OFFCURVE",
"529 38 CURVE",
"504 99 LINE",
"467.651 75.744 OFFCURVE",
"418.883 64 OFFCURVE",
"376 64 CURVE SMOOTH",
"254.797 64 OFFCURVE",
"198.496 133.241 OFFCURVE",
"181 247 CURVE",
"456 247 LINE",
"456 310 LINE",
"175 310 LINE",
"175 330.071 OFFCURVE",
"173.522 351.043 OFFCURVE",
"176 371 CURVE",
"457 371 LINE",
"457 434 LINE",
"182 434 LINE",
"200.803 541.466 OFFCURVE",
"254.132 623 OFFCURVE",
"373 623 CURVE SMOOTH",
"396.329 623 OFFCURVE",
"417.922 620.895 OFFCURVE",
"441 618 CURVE",
"469 520 LINE",
"526 520 LINE",
"504 678 LINE",
"459.623 687.179 OFFCURVE",
"414.277 691 OFFCURVE",
"369 691 CURVE SMOOTH",
"208.097 691 OFFCURVE",
"133.79 580.9 OFFCURVE",
"111 434 CURVE",
"34 434 LINE",
"34 371 LINE",
"105 371 LINE",
"103.154 350.754 OFFCURVE",
"104 330.298 OFFCURVE",
"104 310 CURVE",
"34 310 LINE {name = hr00;}",
"34 247 LINE",
"109 247 LINE",
"128.644 89.8 OFFCURVE",
"213.153 -4 OFFCURVE",
"377 -4 CURVE SMOOTH"
);
}
);
width = 573;
},
{
layerId = "753CA70B-25C4-47AF-A15F-390B5E4CCE16";
paths = (
{
closed = 1;
nodes = (
"464.908 -4 OFFCURVE",
"536.149 17.877 OFFCURVE",
"590 65 CURVE",
"553 156 LINE",
"511.603 120.564 OFFCURVE",
"455.113 101 OFFCURVE",
"401 101 CURVE SMOOTH",
"327.166 101 OFFCURVE",
"280.237 136.255 OFFCURVE",
"255 205 CURVE",
"486 205 LINE",
"486 304 LINE",
"235 304 LINE",
"233.67 318.627 OFFCURVE",
"233 333.313 OFFCURVE",
"233 348 CURVE {name = hr00;}",
"486 348 LINE",
"486 450 LINE",
"244 450 LINE",
"263.337 533.861 OFFCURVE",
"308.766 586 OFFCURVE",
"399 586 CURVE SMOOTH",
"415.511 586 OFFCURVE",
"429.028 582.024 OFFCURVE",
"445 580 CURVE",
"497 491 LINE",
"578 491 LINE",
"558 667 LINE",
"502.009 683.419 OFFCURVE",
"447.296 691 OFFCURVE",
"389 691 CURVE SMOOTH",
"239.343 691 OFFCURVE",
"140.117 591.265 OFFCURVE",
"109 450 CURVE",
"31 450 LINE",
"31 350 LINE",
"98 350 LINE",
"98 334.734 OFFCURVE",
"97.114 319.192 OFFCURVE",
"99 304 CURVE",
"31 304 LINE",
"31 205 LINE",
"114 205 LINE",
"152.33 66.166 OFFCURVE",
"251.196 -4 OFFCURVE",
"394 -4 CURVE SMOOTH"
);
}
);
width = 620;
}
);
unicode = 20AC;
userData = {
com.typemytype.robofont.mark = (
0.713,
0.6,
1,
1
);
};
},
{
glyphname = cent;
lastChange = "2018-07-24 18:58:40 +0000";
layers = (
{
layerId = "1178ECA0-A987-4969-BD6E-681EE9C1B9C8";
paths = (
{
closed = 1;
nodes = (
"274 420 LINE",
"270 421 LINE",
"270 53 LINE",
"299.82 55.59 OFFCURVE",
"328.317 64.587 OFFCURVE",
"354 80 CURVE",
"371 31 LINE",
"342.126 9 OFFCURVE",
"305.747 -0.448 OFFCURVE",
"270 -3 CURVE",
"270 -158 LINE",
"212 -158 LINE",
"212 -2 LINE",
"89.186 14.006 OFFCURVE",
"32 117.271 OFFCURVE",
"32 233 CURVE SMOOTH",
"32 348.502 OFFCURVE",
"86.852 461.038 OFFCURVE",
"212 477 CURVE {name = mh01;}",
"212 609 LINE {name = mh02;}",
"270 609 LINE",
"270 478 LINE",
"305.662 473.928 OFFCURVE",
"347.155 462.487 OFFCURVE",
"377 442 CURVE {name = mh03;}",
"333 373 LINE {name = hr00;}"
);
},
{
closed = 1;
nodes = (
"98 153.655 OFFCURVE",
"127.877 75.386 OFFCURVE",
"212 57 CURVE",
"212 420 LINE {name = mh04;}",
"123 403.839 OFFCURVE",
"98 310.313 OFFCURVE",
"98 232 CURVE SMOOTH"
);
}
);
width = 408;
},
{
layerId = "753CA70B-25C4-47AF-A15F-390B5E4CCE16";
paths = (
{
closed = 1;
nodes = (
"274 420 LINE",
"270 421 LINE",
"270 53 LINE",
"299.82 55.59 OFFCURVE",
"328.317 64.587 OFFCURVE",
"354 80 CURVE",
"371 31 LINE",
"342.126 8.999 OFFCURVE",
"305.747 -0.448 OFFCURVE",
"270 -3 CURVE",
"270 -158 LINE",
"212 -158 LINE",
"212 -2 LINE",
"89.186 14.006 OFFCURVE",
"32 117.271 OFFCURVE",
"32 233 CURVE SMOOTH",
"32 348.502 OFFCURVE",
"86.852 461.038 OFFCURVE",
"212 477 CURVE {name = mh01;}",
"212 609 LINE {name = mh02;}",
"270 609 LINE",
"270 478 LINE",
"305.662 473.928 OFFCURVE",
"347.155 462.487 OFFCURVE",
"377 442 CURVE {name = mh03;}",
"333 373 LINE {name = hr00;}"
);
},
{
closed = 1;
nodes = (
"98 153.655 OFFCURVE",
"127.877 75.386 OFFCURVE",
"212 57 CURVE",
"212 420 LINE {name = mh04;}",
"123 403.839 OFFCURVE",
"98 310.313 OFFCURVE",
"98 232 CURVE SMOOTH"
);
}
);
width = 438;
},
{
associatedMasterId = "1178ECA0-A987-4969-BD6E-681EE9C1B9C8";
layerId = "0A2DE03E-7373-40CF-BB18-AD034DDFF3BC";
name = "Jul 24 18, 14:57";
paths = (
{
closed = 1;
nodes = (
"274 420 LINE",
"270 421 LINE",
"270 53 LINE",
"299.82 55.59 OFFCURVE",
"328.317 64.587 OFFCURVE",
"354 80 CURVE",
"371 31 LINE",
"342.126 9 OFFCURVE",
"305.747 -0.448 OFFCURVE",
"270 -3 CURVE",
"270 -158 LINE",
"212 -158 LINE",
"212 -2 LINE",
"89.186 14.006 OFFCURVE",
"32 117.271 OFFCURVE",
"32 233 CURVE SMOOTH",
"32 348.502 OFFCURVE",
"86.852 461.038 OFFCURVE",
"212 477 CURVE {name = mh01;}",
"212 609 LINE {name = mh02;}",
"270 609 LINE",
"270 478 LINE",
"305.662 473.928 OFFCURVE",
"347.155 462.487 OFFCURVE",
"377 442 CURVE {name = mh03;}",
"333 373 LINE {name = hr00;}"
);
},
{
closed = 1;
nodes = (
"98 153.655 OFFCURVE",
"127.877 75.386 OFFCURVE",
"212 57 CURVE",
"212 420 LINE {name = mh04;}",
"123 403.839 OFFCURVE",
"98 310.313 OFFCURVE",
"98 232 CURVE SMOOTH"
);
}
);
width = 408;
},
{
associatedMasterId = "753CA70B-25C4-47AF-A15F-390B5E4CCE16";
layerId = "6FC38B09-5364-49F3-B221-95C7F1B6CFEC";
name = "Jul 24 18, 14:57";
paths = (
{
closed = 1;
nodes = (
"303 484 LINE",
"347.572 472.863 OFFCURVE",
"390.724 443.727 OFFCURVE",
"412 402 CURVE",
"291 337 LINE",
"248 397 LINE",
"168.127 397.024 OFFCURVE",
"151 299.843 OFFCURVE",
"151 238 CURVE SMOOTH",
"151 163.438 OFFCURVE",
"181.779 91 OFFCURVE",
"267 91 CURVE SMOOTH",
"312.709 91 OFFCURVE",
"345.148 110.782 OFFCURVE",
"379 139 CURVE",
"387.229 110.267 OFFCURVE",
"395.632 80.312 OFFCURVE",
"405 52 CURVE",
"378.106 23.69 OFFCURVE",
"340.78 8.311 OFFCURVE",
"303 1 CURVE",
"303 -200 LINE",
"182 -200 LINE",
"182 5 LINE",
"75.49 35.922 OFFCURVE",
"27 126.993 OFFCURVE",
"27 233 CURVE SMOOTH",
"27 342.034 OFFCURVE",
"66.124 452.098 OFFCURVE",
"182 483 CURVE",
"182 689 LINE {name = at01;}",
"303 689 LINE {name = hr00;}"
);
}
);
width = 438;
}
);
unicode = 00A2;
userData = {
com.typemytype.robofont.mark = (
0.713,
0.6,
1,
1
);
};
},
